<svg width="1068" height="797" viewBox="0 0 1068 797" fill="none" xmlns="http://www.w3.org/2000/svg">
<g filter="url(#filter0_f_65_1784)">
<path d="M447.135 251.234C425.888 326.521 372.974 389.402 302.426 423.203C292.637 427.893 282.218 431.076 271.665 433.614L223.138 445.283C216.758 446.817 214.836 454.957 219.857 459.182L347.007 566.176C352.028 570.401 359.72 567.117 360.141 560.569L363.345 510.761C364.042 499.929 365.398 489.12 368.346 478.674C389.593 403.387 442.507 340.505 513.055 306.705C522.844 302.015 533.263 298.831 543.816 296.293L592.344 284.624C598.724 283.09 600.645 274.95 595.624 270.725L468.475 163.73C463.454 159.505 455.761 162.789 455.34 169.338L452.136 219.146C451.439 229.978 450.083 240.787 447.135 251.234Z" fill="#9EA8AE"/>
</g>
<g filter="url(#filter1_f_65_1784)">
<path d="M696.91 251.234C718.157 326.521 771.07 389.402 841.619 423.203C851.408 427.893 861.826 431.076 872.38 433.614L920.907 445.283C927.287 446.817 929.208 454.957 924.187 459.182L797.038 566.176C792.017 570.401 784.325 567.117 783.904 560.569L780.699 510.761C780.002 499.929 778.646 489.12 775.698 478.674C754.451 403.387 701.538 340.505 630.989 306.705C621.201 302.015 610.782 298.831 600.229 296.293L551.701 284.624C545.321 283.09 543.399 274.95 548.42 270.725L675.57 163.73C680.591 159.505 688.283 162.789 688.704 169.338L691.909 219.146C692.606 229.978 693.962 240.787 696.91 251.234Z" fill="#A9B4BA"/>
</g>
<g filter="url(#filter2_f_65_1784)">
<circle cx="573.695" cy="169.196" r="116.811" transform="rotate(45 573.695 169.196)" fill="url(#paint0_radial_65_1784)"/>
</g>
<g filter="url(#filter3_f_65_1784)">
<circle cx="901.999" cy="555.088" r="117.165" transform="rotate(45 901.999 555.088)" fill="url(#paint1_radial_65_1784)"/>
</g>
<g filter="url(#filter4_f_65_1784)">
<circle cx="241.696" cy="555.088" r="117.165" transform="rotate(45 241.696 555.088)" fill="url(#paint2_radial_65_1784)"/>
</g>
<defs>
<filter id="filter0_f_65_1784" x="157.003" y="101.839" width="501.475" height="526.228" filterUnits="userSpaceOnUse" color-interpolation-filters="sRGB">
<feFlood flood-opacity="0" result="BackgroundImageFix"/>
<feBlend mode="normal" in="SourceGraphic" in2="BackgroundImageFix" result="shape"/>
<feGaussianBlur stdDeviation="30" result="effect1_foregroundBlur_65_1784"/>
</filter>
<filter id="filter1_f_65_1784" x="517.566" y="133.839" width="437.475" height="462.228" filterUnits="userSpaceOnUse" color-interpolation-filters="sRGB">
<feFlood flood-opacity="0" result="BackgroundImageFix"/>
<feBlend mode="normal" in="SourceGraphic" in2="BackgroundImageFix" result="shape"/>
<feGaussianBlur stdDeviation="14" result="effect1_foregroundBlur_65_1784"/>
</filter>
<filter id="filter2_f_65_1784" x="404.883" y="0.384766" width="337.622" height="337.623" filterUnits="userSpaceOnUse" color-interpolation-filters="sRGB">
<feFlood flood-opacity="0" result="BackgroundImageFix"/>
<feBlend mode="normal" in="SourceGraphic" in2="BackgroundImageFix" result="shape"/>
<feGaussianBlur stdDeviation="26" result="effect1_foregroundBlur_65_1784"/>
</filter>
<filter id="filter3_f_65_1784" x="768.834" y="421.923" width="266.329" height="266.33" filterUnits="userSpaceOnUse" color-interpolation-filters="sRGB">
<feFlood flood-opacity="0" result="BackgroundImageFix"/>
<feBlend mode="normal" in="SourceGraphic" in2="BackgroundImageFix" result="shape"/>
<feGaussianBlur stdDeviation="8" result="effect1_foregroundBlur_65_1784"/>
</filter>
<filter id="filter4_f_65_1784" x="0.531219" y="313.923" width="482.329" height="482.33" filterUnits="userSpaceOnUse" color-interpolation-filters="sRGB">
<feFlood flood-opacity="0" result="BackgroundImageFix"/>
<feBlend mode="normal" in="SourceGraphic" in2="BackgroundImageFix" result="shape"/>
<feGaussianBlur stdDeviation="62" result="effect1_foregroundBlur_65_1784"/>
</filter>
<radialGradient id="paint0_radial_65_1784" cx="0" cy="0" r="1" gradientUnits="userSpaceOnUse" gradientTransform="translate(635.229 275.578) rotate(-121.15) scale(213.127)">
<stop stop-color="#95A0A7"/>
<stop offset="1" stop-color="#C5CBCF"/>
</radialGradient>
<radialGradient id="paint1_radial_65_1784" cx="0" cy="0" r="1" gradientUnits="userSpaceOnUse" gradientTransform="translate(965.577 530.983) rotate(177.316) scale(181.218)">
<stop stop-color="#D3D7DB"/>
<stop offset="0.934531" stop-color="#ACB7BD"/>
</radialGradient>
<radialGradient id="paint2_radial_65_1784" cx="0" cy="0" r="1" gradientUnits="userSpaceOnUse" gradientTransform="translate(238.313 465.008) rotate(109.867) scale(178.941)">
<stop stop-color="#95A0A7"/>
<stop offset="1" stop-color="#C5CBCF"/>
</radialGradient>
</defs>
</svg>
