<svg width="114" height="113" viewBox="0 0 114 113" fill="none" xmlns="http://www.w3.org/2000/svg">
<path d="M36.8939 25.1128H78.2272C84.4939 25.1128 89.5606 30.147 89.5606 36.3735V75.8521C89.5606 82.0786 84.4939 87.1128 78.2272 87.1128H36.8939C30.6272 87.1128 25.5605 82.0786 25.5605 75.8521V36.3735C25.5605 30.147 30.6272 25.1128 36.8939 25.1128Z" fill="#330000"/>
<path d="M56.5744 62.3125H46.6544L44.6277 68.539C44.5744 68.7774 44.361 68.9364 44.121 68.9099H39.1077C38.8144 68.9099 38.7344 68.7509 38.8144 68.433L47.401 43.8714C47.481 43.6065 47.561 43.315 47.6677 42.9971C47.7744 42.4407 47.8277 41.8578 47.8277 41.2749C47.801 41.1424 47.9077 41.0099 48.041 40.9834C48.0677 40.9834 48.0944 40.9834 48.121 40.9834H54.9477C55.161 40.9834 55.2677 41.0629 55.2944 41.1954L65.0277 68.486C65.1077 68.7774 65.0277 68.9099 64.761 68.9099H59.1877C59.001 68.9364 58.8144 68.8039 58.761 68.6184L56.5744 62.3125ZM48.201 56.9338H54.9744C54.8144 56.3774 54.601 55.715 54.361 55.0261C54.121 54.3107 53.881 53.5424 53.641 52.7475C53.3744 51.9261 53.1344 51.1313 52.8677 50.3099C52.601 49.4885 52.361 48.7201 52.1477 47.9518C51.9344 47.2099 51.7477 46.521 51.561 45.8851H51.5077C51.2677 47.0244 50.9744 48.1637 50.601 49.3031C50.201 50.5749 49.801 51.8996 49.3744 53.2244C49.001 54.5757 48.601 55.821 48.201 56.9338Z" fill="#FF9A00"/>
<path d="M70.8401 45.5147C69.9601 45.5412 69.1068 45.1967 68.4668 44.5873C67.8535 43.9249 67.5335 43.0506 67.5601 42.1497C67.5335 41.2489 67.8801 40.401 68.5201 39.7916C69.1601 39.1822 70.0135 38.8643 70.8935 38.8643C71.9335 38.8643 72.7335 39.1822 73.3201 39.7916C73.9068 40.4275 74.2268 41.2754 74.2001 42.1497C74.2268 43.0506 73.9068 43.9249 73.2668 44.5873C72.6535 45.2232 71.7468 45.5677 70.8401 45.5147ZM67.8535 68.513V48.1113C67.8535 47.8463 67.9601 47.7403 68.2001 47.7403H73.4801C73.7201 47.7403 73.8268 47.8728 73.8268 48.1113V68.513C73.8268 68.8044 73.7201 68.9369 73.4801 68.9369H68.2535C67.9868 68.9369 67.8535 68.7779 67.8535 68.513Z" fill="#FF9A00"/>
</svg>
