<svg width="114" height="113" viewBox="0 0 114 113" fill="none" xmlns="http://www.w3.org/2000/svg">
<path d="M40.6531 50.4461C40.6531 51.3402 40.7503 52.065 40.9204 52.5966C41.1147 53.1282 41.3577 53.7081 41.6979 54.3363C41.8194 54.5296 41.868 54.7229 41.868 54.8921C41.868 55.1337 41.7222 55.3753 41.4063 55.6169L39.8756 56.6318C39.6569 56.7767 39.4382 56.8492 39.2438 56.8492C39.0008 56.8492 38.7579 56.7284 38.5149 56.5109C38.1747 56.1485 37.8832 55.7619 37.6402 55.3753C37.3972 54.9645 37.1542 54.5055 36.887 53.9497C34.9917 56.1727 32.6106 57.2841 29.7435 57.2841C27.7025 57.2841 26.0745 56.7042 24.884 55.5444C23.6934 54.3846 23.0859 52.8382 23.0859 50.9052C23.0859 48.8514 23.8149 47.1842 25.297 45.9277C26.7792 44.6713 28.7473 44.0431 31.2499 44.0431C32.076 44.0431 32.9265 44.1155 33.8255 44.2364C34.7245 44.3572 35.6478 44.5505 36.6197 44.7679V43.0041C36.6197 41.1677 36.2309 39.8871 35.4777 39.138C34.7002 38.389 33.3881 38.0266 31.5172 38.0266C30.6668 38.0266 29.7921 38.1232 28.8931 38.3407C27.994 38.5581 27.1193 38.8239 26.2689 39.1622C25.8802 39.3313 25.5886 39.428 25.4185 39.4763C25.2484 39.5246 25.1269 39.5488 25.0297 39.5488C24.6896 39.5488 24.5195 39.3072 24.5195 38.7998V37.6158C24.5195 37.2292 24.5681 36.9393 24.6896 36.7701C24.8111 36.601 25.0297 36.4318 25.3699 36.2627C26.2203 35.8278 27.2408 35.4653 28.4314 35.1754C29.622 34.8613 30.8855 34.7163 32.2218 34.7163C35.1132 34.7163 37.2271 35.3687 38.5878 36.6735C39.9242 37.9782 40.6045 39.9596 40.6045 42.6175V50.4461H40.6531ZM30.7883 54.1188C31.5901 54.1188 32.4162 53.9739 33.2909 53.6839C34.1656 53.394 34.9432 52.8624 35.5992 52.1375C35.9879 51.6784 36.2795 51.171 36.4253 50.5911C36.5711 50.0112 36.6683 49.3105 36.6683 48.489V47.4741C35.9636 47.305 35.2104 47.16 34.4329 47.0634C33.6554 46.9667 32.9022 46.9184 32.1489 46.9184C30.521 46.9184 29.3304 47.2325 28.5286 47.8849C27.7268 48.5373 27.338 49.4555 27.338 50.6636C27.338 51.7992 27.6296 52.6449 28.237 53.2248C28.8202 53.8289 29.6706 54.1188 30.7883 54.1188ZM50.2992 56.7284C49.8619 56.7284 49.5703 56.6559 49.3759 56.4868C49.1815 56.3418 49.0114 56.0035 48.8657 55.5444L43.1557 36.8668C43.0099 36.3835 42.937 36.0694 42.937 35.9003C42.937 35.5137 43.1314 35.2962 43.5202 35.2962H45.9014C46.363 35.2962 46.6789 35.3687 46.849 35.5378C47.0433 35.6828 47.1891 36.0211 47.3349 36.4802L51.4169 52.4758L55.2073 36.4802C55.3288 35.9969 55.4746 35.6828 55.669 35.5378C55.8634 35.3928 56.2035 35.2962 56.6409 35.2962H58.5847C59.0463 35.2962 59.3622 35.3687 59.5566 35.5378C59.751 35.6828 59.921 36.0211 60.0182 36.4802L63.8573 52.6691L68.0607 36.4802C68.2065 35.9969 68.3766 35.6828 68.5467 35.5378C68.7411 35.3928 69.0569 35.2962 69.4943 35.2962H71.754C72.1427 35.2962 72.3614 35.4895 72.3614 35.9003C72.3614 36.0211 72.3371 36.1419 72.3128 36.2869C72.2885 36.4318 72.2399 36.6251 72.1427 36.8909L66.287 55.5686C66.1412 56.0519 65.9711 56.366 65.7768 56.5109C65.5824 56.6559 65.2665 56.7526 64.8535 56.7526H62.7639C62.3022 56.7526 61.9863 56.6801 61.792 56.5109C61.5976 56.3418 61.4275 56.0277 61.3303 55.5444L57.5642 39.9596L53.8224 55.5203C53.7009 56.0035 53.5551 56.3176 53.3607 56.4868C53.1663 56.6559 52.8262 56.7284 52.3888 56.7284H50.2992ZM81.5216 57.3808C80.2581 57.3808 78.9946 57.2358 77.7798 56.9459C76.5649 56.6559 75.6173 56.3418 74.9855 55.9794C74.5968 55.7619 74.3295 55.5203 74.2323 55.3028C74.1351 55.0854 74.0865 54.8437 74.0865 54.6263V53.394C74.0865 52.8866 74.2809 52.6449 74.6454 52.6449C74.7912 52.6449 74.9369 52.6691 75.0827 52.7174C75.2285 52.7657 75.4472 52.8624 75.6902 52.959C76.5163 53.3215 77.4153 53.6114 78.3629 53.8047C79.3348 53.998 80.2824 54.0947 81.2543 54.0947C82.7851 54.0947 83.9756 53.8289 84.8018 53.2973C85.6279 52.7657 86.0652 51.9925 86.0652 51.0019C86.0652 50.3253 85.8466 49.7696 85.4092 49.3105C84.9718 48.8514 84.1457 48.4406 82.9551 48.054L79.432 46.9667C77.6583 46.411 76.3462 45.5895 75.5444 44.5021C74.7426 43.439 74.3295 42.255 74.3295 40.9986C74.3295 39.9837 74.5482 39.0897 74.9855 38.3165C75.4229 37.5433 76.006 36.8668 76.735 36.3352C77.4639 35.7794 78.29 35.3687 79.2619 35.0787C80.2338 34.7888 81.2543 34.668 82.3234 34.668C82.8579 34.668 83.4168 34.6921 83.9513 34.7646C84.5102 34.8371 85.0204 34.9338 85.5307 35.0304C86.0166 35.1512 86.4783 35.272 86.9156 35.417C87.353 35.562 87.6932 35.707 87.9361 35.8519C88.2763 36.0452 88.5193 36.2385 88.6651 36.456C88.8109 36.6493 88.8837 36.9151 88.8837 37.2534V38.389C88.8837 38.8964 88.6894 39.1622 88.3249 39.1622C88.1305 39.1622 87.8147 39.0656 87.4016 38.8723C86.0166 38.244 84.4616 37.9299 82.7365 37.9299C81.3515 37.9299 80.2581 38.1474 79.5049 38.6065C78.7517 39.0656 78.3629 39.7663 78.3629 40.7569C78.3629 41.4335 78.6059 42.0134 79.0918 42.4725C79.5778 42.9316 80.4768 43.3907 81.7646 43.8014L85.2148 44.8887C86.9642 45.4445 88.2277 46.2177 88.9809 47.2084C89.7342 48.199 90.0986 49.3347 90.0986 50.5911C90.0986 51.6301 89.8799 52.5724 89.4669 53.394C89.0295 54.2155 88.4464 54.9404 87.6932 55.5203C86.9399 56.1243 86.0409 56.5593 84.9961 56.8734C83.9027 57.2117 82.7608 57.3808 81.5216 57.3808Z" fill="#252F3E"/>
<path fill-rule="evenodd" clip-rule="evenodd" d="M86.113 69.1231C78.1191 74.9946 66.5048 78.1116 56.5185 78.1116C42.5232 78.1116 29.9127 72.9649 20.3881 64.4114C19.6349 63.7348 20.3152 62.8166 21.2142 63.3482C31.5164 69.2922 44.224 72.8924 57.369 72.8924C66.2376 72.8924 75.9809 71.0561 84.9467 67.2867C86.283 66.6827 87.425 68.1566 86.113 69.1231Z" fill="#FF9900"/>
<path fill-rule="evenodd" clip-rule="evenodd" d="M89.4435 65.3541C88.423 64.0493 82.6888 64.7258 80.089 65.0399C79.3114 65.1366 79.19 64.46 79.8946 63.9526C84.4625 60.7632 91.9704 61.6813 92.8451 62.7445C93.7198 63.8318 92.6021 71.298 88.3258 74.8741C87.6697 75.4298 87.038 75.1399 87.3296 74.415C88.3015 72.0229 90.4639 66.6347 89.4435 65.3541Z" fill="#FF9900"/>
</svg>
