<svg width="114" height="114" viewBox="0 0 114 114" fill="none" xmlns="http://www.w3.org/2000/svg">
<path d="M46.6695 29.4409H64.128L46.0042 83.1713C45.9115 83.4457 45.7767 83.704 45.6045 83.9368C45.4326 84.1699 45.2254 84.3742 44.9901 84.5431C44.7548 84.712 44.4952 84.8433 44.2193 84.9318C43.9435 85.0203 43.6559 85.066 43.3667 85.066H29.7796C29.3386 85.066 28.9034 84.9613 28.511 84.7592C28.1182 84.5577 27.7792 84.2654 27.522 83.9066C27.2646 83.5478 27.0963 83.1329 27.0308 82.6963C26.9651 82.2597 27.005 81.8134 27.1458 81.3952L44.0313 31.3342C44.1235 31.0598 44.2584 30.8017 44.431 30.5686C44.6029 30.3356 44.8109 30.1313 45.0454 29.9624C45.2807 29.7935 45.5403 29.6622 45.8161 29.5737C46.092 29.4852 46.3796 29.4395 46.6687 29.4395V29.4402L46.6695 29.4409Z" fill="url(#paint0_linear_1226_905)"/>
<path d="M78.8532 85.0661H63.1766C63.0018 85.0661 62.827 85.0498 62.6544 85.0166C62.4826 84.9842 62.3137 84.9355 62.1507 84.8713C61.9877 84.8072 61.8313 84.7275 61.6831 84.6346C61.535 84.541 61.396 84.4339 61.2678 84.3145L43.4782 67.7005C43.29 67.5248 43.159 67.2966 43.102 67.0455C43.0451 66.7945 43.0651 66.5321 43.1595 66.2925C43.2538 66.053 43.418 65.8474 43.6308 65.7025C43.844 65.5579 44.0955 65.4805 44.3529 65.4805H72.0375L78.8517 85.0668L78.8532 85.0661Z" fill="#0078D4"/>
<path d="M64.1916 29.4405L51.9704 65.4837L71.9388 65.4793L78.7884 85.0657H63.1708C63.0093 85.0642 62.8478 85.0494 62.6885 85.0207C62.5292 84.9919 62.3728 84.9499 62.2209 84.8938C61.9162 84.7828 61.6328 84.6204 61.383 84.4137L49.3743 73.2059L46.0125 83.12C45.9255 83.3678 45.806 83.6031 45.657 83.8192C45.3584 84.2539 44.95 84.6018 44.4732 84.8274C44.2359 84.9397 43.9846 85.0198 43.7261 85.0657H29.7887C29.3432 85.0671 28.9036 84.9609 28.5075 84.7559C28.1114 84.551 27.7704 84.2538 27.5134 83.8893C27.2564 83.5249 27.0909 83.1039 27.031 82.662C26.9712 82.2199 27.0185 81.7699 27.1689 81.3499L44.027 31.3714C44.1148 31.0918 44.2468 30.8285 44.4179 30.591C44.5883 30.3535 44.7963 30.1441 45.0323 29.9715C45.2683 29.7989 45.5309 29.6647 45.8089 29.5747C46.087 29.4847 46.3783 29.439 46.6711 29.4405H64.1923H64.1916Z" fill="url(#paint1_linear_1226_905)"/>
<path d="M85.854 81.3948C85.9949 81.8133 86.0346 82.2591 85.9698 82.6959C85.9042 83.1324 85.7361 83.5472 85.4793 83.9062C85.222 84.2648 84.8831 84.557 84.4905 84.7586C84.0979 84.9602 83.663 85.0655 83.2216 85.0656H63.7636C64.2047 85.0656 64.6398 84.9602 65.0329 84.7588C65.4253 84.5575 65.7646 84.2646 66.022 83.9062C66.2794 83.5477 66.4476 83.1325 66.5132 82.6959C66.5788 82.2593 66.539 81.813 66.3981 81.3948L49.512 31.3322C49.3261 30.7808 48.9719 30.3015 48.4993 29.9619C48.2648 29.793 48.0051 29.6624 47.73 29.5739C47.4549 29.4854 47.1673 29.4404 46.8789 29.4404H66.3362C66.6253 29.4404 66.9122 29.4854 67.1881 29.5739C67.4632 29.6624 67.7228 29.7937 67.9581 29.9619C68.1926 30.1308 68.3999 30.3351 68.5717 30.5674C68.7436 30.7997 68.8778 31.0579 68.9707 31.3322L85.8569 81.3948H85.854Z" fill="url(#paint2_linear_1226_905)"/>
<defs>
<linearGradient id="paint0_linear_1226_905" x1="53.0412" y1="33.5638" x2="34.8975" y2="87.1614" gradientUnits="userSpaceOnUse">
<stop stop-color="#114A8B"/>
<stop offset="1" stop-color="#0669BC"/>
</linearGradient>
<linearGradient id="paint1_linear_1226_905" x1="58.6991" y1="58.5368" x2="54.5024" y2="59.9602" gradientUnits="userSpaceOnUse">
<stop stop-opacity="0.3"/>
<stop offset="0.1" stop-opacity="0.2"/>
<stop offset="0.3" stop-opacity="0.1"/>
<stop offset="0.6" stop-opacity="0.1"/>
<stop offset="1" stop-opacity="0"/>
</linearGradient>
<linearGradient id="paint2_linear_1226_905" x1="56.3822" y1="31.9997" x2="76.296" y2="85.0516" gradientUnits="userSpaceOnUse">
<stop stop-color="#3CCBF4"/>
<stop offset="1" stop-color="#2892DF"/>
</linearGradient>
</defs>
</svg>
