<svg width="114" height="113" viewBox="0 0 114 113" fill="none" xmlns="http://www.w3.org/2000/svg">
<path fill-rule="evenodd" clip-rule="evenodd" d="M38.8477 31C35.1959 31 32.4938 34.1973 32.6148 37.6647C32.7309 40.996 32.5801 45.3104 31.4943 48.8288C30.4047 52.3571 28.5632 54.593 25.5547 54.88V58.12C28.5632 58.4076 30.4047 60.6424 31.4942 64.1712C32.5801 67.6896 32.7308 72.004 32.6147 75.3353C32.4937 78.8022 35.1958 82 38.8482 82H76.2666C79.9183 82 82.6199 78.8027 82.4989 75.3353C82.3828 72.004 82.5337 67.6896 83.6194 64.1712C84.7091 60.6424 86.5461 58.4068 89.5547 58.12V54.88C86.5462 54.5924 84.7092 52.3576 83.6194 48.8288C82.5336 45.3109 82.3828 40.996 82.4989 37.6647C82.6199 34.1978 79.9183 31 76.2666 31H38.8472H38.8477ZM68.9446 62.3938C68.9446 67.1683 65.3844 70.0639 59.4763 70.0639H49.4191C49.1314 70.0639 48.8555 69.9496 48.652 69.7461C48.4486 69.5426 48.3343 69.2666 48.3343 68.9788V44.0213C48.3343 43.7336 48.4486 43.4575 48.652 43.2541C48.8555 43.0506 49.1314 42.9362 49.4191 42.9362H59.4191C64.3454 42.9362 67.5786 45.6056 67.5786 49.704C67.5786 52.5806 65.4036 55.1558 62.6327 55.607V55.757C66.4047 56.1709 68.9446 58.7843 68.9446 62.3938ZM58.3797 46.376H52.6452V54.4787H57.4751C61.2088 54.4787 63.2676 52.9747 63.2676 50.2864C63.2672 47.7671 61.4972 46.376 58.3797 46.376ZM52.6452 57.6936V66.623H58.5907C62.4782 66.623 64.5373 65.0626 64.5373 62.1301C64.5373 59.1976 62.4204 57.6931 58.3407 57.6931H52.6452V57.6936Z" fill="#7952B3"/>
</svg>
