<svg width="115" height="114" viewBox="0 0 115 114" fill="none" xmlns="http://www.w3.org/2000/svg">
<path d="M57.4258 85.6738C73.7182 85.6738 86.9258 72.4662 86.9258 56.1738C86.9258 39.8814 73.7182 26.6738 57.4258 26.6738C41.1334 26.6738 27.9258 39.8814 27.9258 56.1738C27.9258 72.4662 41.1334 85.6738 57.4258 85.6738Z" fill="#7D2AE7"/>
<path d="M57.4258 85.6738C73.7182 85.6738 86.9258 72.4662 86.9258 56.1738C86.9258 39.8814 73.7182 26.6738 57.4258 26.6738C41.1334 26.6738 27.9258 39.8814 27.9258 56.1738C27.9258 72.4662 41.1334 85.6738 57.4258 85.6738Z" fill="url(#paint0_radial_2484_1311)"/>
<path d="M57.4258 85.6738C73.7182 85.6738 86.9258 72.4662 86.9258 56.1738C86.9258 39.8814 73.7182 26.6738 57.4258 26.6738C41.1334 26.6738 27.9258 39.8814 27.9258 56.1738C27.9258 72.4662 41.1334 85.6738 57.4258 85.6738Z" fill="url(#paint1_radial_2484_1311)"/>
<path d="M57.4258 85.6738C73.7182 85.6738 86.9258 72.4662 86.9258 56.1738C86.9258 39.8814 73.7182 26.6738 57.4258 26.6738C41.1334 26.6738 27.9258 39.8814 27.9258 56.1738C27.9258 72.4662 41.1334 85.6738 57.4258 85.6738Z" fill="url(#paint2_radial_2484_1311)"/>
<path d="M57.4258 85.6738C73.7182 85.6738 86.9258 72.4662 86.9258 56.1738C86.9258 39.8814 73.7182 26.6738 57.4258 26.6738C41.1334 26.6738 27.9258 39.8814 27.9258 56.1738C27.9258 72.4662 41.1334 85.6738 57.4258 85.6738Z" fill="url(#paint3_radial_2484_1311)"/>
<path d="M70.1622 62.2259C69.9188 62.2259 69.7045 62.4314 69.4816 62.8804C66.9638 67.9858 62.6152 71.5982 57.583 71.5982C51.7644 71.5982 48.1611 66.3456 48.1611 59.0892C48.1611 46.7975 55.0096 39.6907 61.025 39.6907C63.8359 39.6907 65.5525 41.4572 65.5525 44.2682C65.5525 47.6045 63.657 49.3709 63.657 50.5475C63.657 51.0757 63.9856 51.3955 64.637 51.3955C67.2545 51.3955 70.3265 48.3879 70.3265 44.1391C70.3265 40.0194 66.7409 36.9912 60.7257 36.9912C50.7843 36.9912 41.9492 46.2078 41.9492 58.96C41.9492 68.8311 47.586 75.354 56.2831 75.354C65.5143 75.354 70.8519 66.1695 70.8519 63.1885C70.8519 62.5283 70.5144 62.2259 70.1622 62.2259Z" fill="white"/>
<defs>
<radialGradient id="paint0_radial_2484_1311" cx="0" cy="0" r="1" gradientUnits="userSpaceOnUse" gradientTransform="translate(39.3224 78.9668) rotate(-49.416) scale(45.6315)">
<stop stop-color="#6420FF"/>
<stop offset="1" stop-color="#6420FF" stop-opacity="0"/>
</radialGradient>
<radialGradient id="paint1_radial_2484_1311" cx="0" cy="0" r="1" gradientUnits="userSpaceOnUse" gradientTransform="translate(43.5452 33.3811) rotate(54.703) scale(51.4579)">
<stop stop-color="#00C4CC"/>
<stop offset="1" stop-color="#00C4CC" stop-opacity="0"/>
</radialGradient>
<radialGradient id="paint2_radial_2484_1311" cx="0" cy="0" r="1" gradientUnits="userSpaceOnUse" gradientTransform="translate(39.3221 78.9665) rotate(-45.1954) scale(45.0791 20.7325)">
<stop stop-color="#6420FF"/>
<stop offset="1" stop-color="#6420FF" stop-opacity="0"/>
</radialGradient>
<radialGradient id="paint3_radial_2484_1311" cx="0" cy="0" r="1" gradientUnits="userSpaceOnUse" gradientTransform="translate(52.0537 34.6233) rotate(66.5198) scale(46.4504 77.8148)">
<stop stop-color="#00C4CC" stop-opacity="0.725916"/>
<stop offset="0.0001" stop-color="#00C4CC"/>
<stop offset="1" stop-color="#00C4CC" stop-opacity="0"/>
</radialGradient>
</defs>
</svg>
