<svg width="114" height="113" viewBox="0 0 114 113" fill="none" xmlns="http://www.w3.org/2000/svg">
<path d="M84.1855 25L79.1749 80.7935L56.6519 87L34.1909 80.8023L29.1855 25H84.1855Z" fill="#264DE4"/>
<path d="M74.8852 77.2406L79.1672 29.5625H56.6855V82.2559L74.8852 77.2406Z" fill="#2965F1"/>
<path d="M40.6602 50.2588L41.2773 57.1026H56.6855V50.2588H40.6602Z" fill="#EBEBEB"/>
<path d="M56.6853 36.4062H56.6615H39.4199L40.0458 43.2502H56.6853V36.4062Z" fill="#EBEBEB"/>
<path d="M56.6846 75.1534V68.0329L56.6544 68.0409L48.9861 65.9828L48.4959 60.5244H44.7697H41.584L42.5486 71.2703L56.6529 75.1622L56.6846 75.1534Z" fill="#EBEBEB"/>
<path d="M65.1407 57.1024L64.3415 65.9784L56.6621 68.0386V75.1589L70.7776 71.2704L70.8812 70.1141L72.4992 52.0963L72.6672 50.2585L73.9102 36.4062H56.6621V43.2502H66.3644L65.7379 50.2585H56.6621V57.1024H65.1407Z" fill="white"/>
</svg>
