<svg width="114" height="114" viewBox="0 0 114 114" fill="none" xmlns="http://www.w3.org/2000/svg">
<path fill-rule="evenodd" clip-rule="evenodd" d="M57.1713 89.6689V76.8784C70.7098 76.8784 81.2192 63.4524 76.0201 49.2029C75.0653 46.5852 73.5497 44.2078 71.5795 42.2374C69.6093 40.2669 67.2321 38.751 64.6144 37.7959C50.365 32.6352 36.939 43.1062 36.939 56.6448H24.1855C24.1855 35.0673 45.0547 18.2375 67.6807 25.3046C77.5545 28.4106 85.4452 36.2628 88.5127 46.138C95.5812 68.7998 78.7884 89.6689 57.1713 89.6689Z" fill="#0080FF"/>
<path fill-rule="evenodd" clip-rule="evenodd" d="M44.4935 76.9153H57.2085V64.2002H44.4948L44.4935 76.9153ZM34.6951 86.7138H44.4922V76.9166H34.6951V86.7138ZM26.5039 76.9166H34.6951V68.7241H26.5039V76.9166Z" fill="#0080FF"/>
</svg>
