<svg width="114" height="114" viewBox="0 0 114 114" fill="none" xmlns="http://www.w3.org/2000/svg">
<path d="M54.1408 26.5566H63.9534V71.5843C58.9272 72.5361 55.227 72.9107 51.2236 72.9107C39.2387 72.8981 33 67.5376 33 57.2422C33 47.3227 39.6175 40.8849 49.8722 40.8849C51.4635 40.8849 52.6758 41.0103 54.1408 41.3859V26.5566ZM54.4846 49.5004C53.3354 49.1246 52.3883 48.9994 51.1759 48.9994C46.2128 48.9994 43.3461 52.0303 43.3461 57.342C43.3461 62.5135 46.0866 65.3691 51.1129 65.3691C52.1988 65.3691 53.0828 65.3079 54.4846 65.12V49.5004Z" fill="#2BA977"/>
<path d="M80.0004 42.0938V64.6385C80.0004 72.4025 79.4195 76.1361 77.7146 79.3551C76.1233 82.4498 74.027 84.4012 69.6953 86.5566L60.5898 82.2608C64.9215 80.2453 67.0179 78.4645 68.3567 75.7467C69.7583 72.9674 70.2003 69.7485 70.2003 61.2818V42.094H80.0004V42.0938ZM69.2114 26.5566H79.0241V36.5389H69.2114V26.5566Z" fill="#2BA977"/>
</svg>
