<svg width="113" height="114" viewBox="0 0 113 114" fill="none" xmlns="http://www.w3.org/2000/svg">
<path d="M46.2266 88.2187C51.9795 88.2187 56.6485 83.5497 56.6485 77.7969V67.375H46.2266C40.4737 67.375 35.8047 72.044 35.8047 77.7969C35.8047 83.5497 40.4737 88.2187 46.2266 88.2187Z" fill="#0ACF83"/>
<path d="M35.8047 56.9512C35.8047 51.1983 40.4737 46.5293 46.2266 46.5293H56.6485V67.373H46.2266C40.4737 67.373 35.8047 62.704 35.8047 56.9512Z" fill="#A259FF"/>
<path d="M35.8047 36.1084C35.8047 30.3555 40.4737 25.6865 46.2266 25.6865H56.6485V46.5303H46.2266C40.4737 46.5303 35.8047 41.8613 35.8047 36.1084Z" fill="#F24E1E"/>
<path d="M56.6484 25.6865H67.0703C72.8232 25.6865 77.4922 30.3555 77.4922 36.1084C77.4922 41.8613 72.8232 46.5303 67.0703 46.5303H56.6484V25.6865Z" fill="#FF7262"/>
<path d="M77.4922 56.9512C77.4922 62.704 72.8232 67.373 67.0703 67.373C61.3174 67.373 56.6484 62.704 56.6484 56.9512C56.6484 51.1983 61.3174 46.5293 67.0703 46.5293C72.8232 46.5293 77.4922 51.1983 77.4922 56.9512Z" fill="#1ABCFE"/>
</svg>
