<svg width="114" height="114" viewBox="0 0 114 114" fill="none" xmlns="http://www.w3.org/2000/svg">
<path d="M36.3333 25.6738H77.6667C83.9333 25.6738 89 30.708 89 36.9345V76.4131C89 82.6396 83.9333 87.6738 77.6667 87.6738H36.3333C30.0667 87.6738 25 82.6396 25 76.4131V36.9345C25 30.708 30.0667 25.6738 36.3333 25.6738Z" fill="#49021F"/>
<path d="M48.2533 41.8895V69.1801C48.2533 69.4715 48.12 69.604 47.88 69.604H42.6533C42.4133 69.604 42.3066 69.4715 42.3066 69.1801V41.8895C42.3066 41.651 42.44 41.545 42.68 41.545H47.88C48.04 41.5185 48.2 41.6245 48.2266 41.81C48.2533 41.8365 48.2533 41.863 48.2533 41.8895Z" fill="#FF3366"/>
<path d="M63.6671 69.9214C61.6938 69.9479 59.7205 69.5505 57.9338 68.7291C56.2538 67.9607 54.8671 66.6889 53.9071 65.1257C52.9205 63.5094 52.4405 61.4958 52.4405 59.0846C52.4138 57.124 52.9205 55.1898 53.9071 53.494C54.9205 51.7718 56.3871 50.341 58.1471 49.3872C60.0138 48.3539 62.2538 47.8505 64.8938 47.8505C65.0271 47.8505 65.2138 47.8505 65.4538 47.8769C65.6938 47.9034 65.9605 47.9034 66.2805 47.9299V39.5573C66.2805 39.3718 66.3605 39.2658 66.5471 39.2658H71.9605C72.0938 39.2393 72.2005 39.3453 72.2271 39.4513V39.5043V64.7282C72.2271 65.2052 72.2538 65.7351 72.2805 66.318C72.3338 66.8744 72.3605 67.4043 72.3871 67.8547C72.3871 68.0402 72.3071 68.1992 72.1205 68.2787C70.7338 68.8616 69.2671 69.2855 67.7738 69.5505C66.4405 69.7889 65.0538 69.9214 63.6671 69.9214ZM66.2805 64.6222V52.9641C66.0405 52.9111 65.8005 52.8581 65.5605 52.8316C65.2671 52.8052 64.9738 52.7787 64.6805 52.7787C63.6405 52.7787 62.6005 52.9906 61.6671 53.4675C60.7605 53.918 59.9871 54.5804 59.4005 55.4282C58.8138 56.2761 58.5205 57.4154 58.5205 58.7932C58.4938 59.7205 58.6538 60.6479 58.9738 61.5222C59.2405 62.2376 59.6405 62.8735 60.1738 63.4034C60.6805 63.8804 61.2938 64.2513 61.9871 64.4633C62.7071 64.7017 63.4538 64.8077 64.2005 64.8077C64.6005 64.8077 64.9738 64.7812 65.3205 64.7547C65.6671 64.7812 65.9871 64.7282 66.2805 64.6222Z" fill="#FF3366"/>
</svg>
