<svg width="114" height="113" viewBox="0 0 114 113" fill="none" xmlns="http://www.w3.org/2000/svg">
<path d="M90.1836 23H24.1836V89H90.1836V23Z" fill="#F7DF1E"/>
<path d="M68.5198 74.5626C69.8493 76.7332 71.5789 78.3288 74.6379 78.3288C77.2077 78.3288 78.8494 77.0444 78.8494 75.2697C78.8494 73.1431 77.1627 72.3898 74.3341 71.1526L72.7836 70.4873C68.3082 68.5807 65.3351 66.1921 65.3351 61.1426C65.3351 56.4911 68.8792 52.9502 74.4179 52.9502C78.3612 52.9502 81.196 54.3226 83.2389 57.9159L78.4094 61.0169C77.346 59.1102 76.1989 58.359 74.4179 58.359C72.6014 58.359 71.45 59.5114 71.45 61.0169C71.45 62.8774 72.6024 63.6307 75.2634 64.7831L76.8138 65.4472C82.0834 67.707 85.0586 70.0107 85.0586 75.1901C85.0586 80.7739 80.6722 83.833 74.7815 83.833C69.0216 83.833 65.3005 81.0882 63.4797 77.4907L68.5198 74.5626ZM46.611 75.1C47.5853 76.8286 48.4715 78.29 50.6024 78.29C52.64 78.29 53.9255 77.4928 53.9255 74.3929V53.3043H60.1274V74.4767C60.1274 80.8986 56.3622 83.8214 50.8664 83.8214C45.9007 83.8214 43.025 81.2516 41.5625 78.1564L46.611 75.1Z" fill="black"/>
</svg>
