<svg width="114" height="113" viewBox="0 0 114 113" fill="none" xmlns="http://www.w3.org/2000/svg">
<path d="M90.3339 37.3834C90.3584 37.474 90.3709 37.5675 90.3711 37.6614V52.2574C90.3711 52.4448 90.3217 52.6288 90.2279 52.7909C90.134 52.953 89.9991 53.0875 89.8368 53.1807L77.5962 60.2339V74.214C77.5962 74.5944 77.3941 74.9456 77.0645 75.1372L51.5133 89.8583C51.4548 89.8915 51.391 89.9128 51.3272 89.9354C51.3033 89.9434 51.2807 89.958 51.2555 89.9647C51.0768 90.0118 50.8891 90.0118 50.7105 89.9647C50.6812 89.9567 50.6547 89.9407 50.6267 89.9301C50.5683 89.9088 50.5071 89.8902 50.4513 89.8583L24.9054 75.1372C24.7431 75.0439 24.6083 74.9094 24.5145 74.7473C24.4207 74.5853 24.3712 74.4013 24.3711 74.214V30.4259C24.3711 30.3301 24.3844 30.237 24.4083 30.1466C24.4163 30.116 24.4349 30.088 24.4455 30.0574C24.4655 30.0016 24.4841 29.9444 24.5133 29.8925C24.5333 29.8579 24.5625 29.83 24.5864 29.798C24.617 29.7555 24.6449 29.7116 24.6808 29.6743C24.7114 29.6437 24.7512 29.6211 24.7858 29.5945C24.8244 29.5626 24.8589 29.528 24.9028 29.5027H24.9041L37.6777 22.1422C37.8394 22.049 38.0228 22 38.2094 22C38.396 22 38.5793 22.049 38.7411 22.1422L51.5146 29.5027H51.5173C51.5598 29.5293 51.5957 29.5626 51.6343 29.5932C51.6688 29.6198 51.7074 29.6437 51.738 29.673C51.7752 29.7116 51.8018 29.7555 51.8337 29.798C51.8563 29.83 51.8868 29.8579 51.9054 29.8925C51.936 29.9457 51.9533 30.0016 51.9746 30.0574C51.9852 30.088 52.0038 30.116 52.0118 30.1479C52.0362 30.2386 52.0488 30.332 52.049 30.4259V57.7755L62.6932 51.6415V37.6601C62.6932 37.567 62.7065 37.4725 62.7304 37.3834C62.7397 37.3515 62.757 37.3235 62.7676 37.2929C62.7889 37.237 62.8075 37.1798 62.8368 37.128C62.8567 37.0934 62.8859 37.0654 62.9085 37.0335C62.9404 36.9909 62.967 36.947 63.0042 36.9098C63.0348 36.8792 63.0734 36.8566 63.1079 36.83C63.1478 36.798 63.1824 36.7635 63.2249 36.7382H63.2262L76.0011 29.3777C76.1628 29.2844 76.3462 29.2353 76.5328 29.2353C76.7194 29.2353 76.9028 29.2844 77.0645 29.3777L89.8381 36.7382C89.8833 36.7648 89.9178 36.798 89.9577 36.8286C89.9909 36.8553 90.0295 36.8792 90.0601 36.9085C90.0973 36.947 90.1239 36.9909 90.1558 37.0335C90.1797 37.0654 90.2089 37.0934 90.2275 37.128C90.2581 37.1798 90.2754 37.237 90.2967 37.2929C90.3086 37.3235 90.3259 37.3515 90.3339 37.3834ZM88.2417 51.6415V39.5039L83.7716 42.0793L77.5962 45.6379V57.7755L88.2431 51.6415H88.2417ZM75.4681 73.598V61.4524L69.3937 64.9245L52.0477 74.8326V87.0926L75.4681 73.598ZM26.5005 32.2684V73.598L49.9183 87.0912V74.8339L37.6843 67.9044L37.6804 67.9017L37.675 67.8991C37.6338 67.8751 37.5993 67.8405 37.5607 67.8113C37.5275 67.7847 37.4889 67.7634 37.4597 67.7341L37.457 67.7301C37.4225 67.6968 37.3986 67.6556 37.3693 67.6184C37.3427 67.5824 37.3108 67.5518 37.2896 67.5146L37.2882 67.5106C37.2643 67.4707 37.2497 67.4228 37.2324 67.3776C37.2151 67.3377 37.1925 67.3004 37.1819 67.2579V67.2565C37.1686 67.206 37.166 67.1528 37.1606 67.1009C37.1553 67.061 37.1447 67.0211 37.1447 66.9812V38.4024L30.9706 34.8425L26.5005 32.2697V32.2684ZM38.2107 24.2946L27.5678 30.4259L38.208 36.5573L48.8496 30.4246L38.208 24.2946H38.2107ZM43.7455 62.5592L49.9196 59.002V32.2684L45.4495 34.8438L39.2741 38.4024V65.136L43.7455 62.5592ZM76.5328 31.5301L65.8913 37.6614L76.5328 43.7927L87.173 37.6601L76.5328 31.5301ZM75.4681 45.6379L69.2927 42.0793L64.8226 39.5039V51.6415L70.9967 55.1987L75.4681 57.7755V45.6379ZM50.9816 72.9901L66.5904 64.0718L74.3928 59.6153L63.7592 53.488L51.516 60.5425L40.3574 66.9718L50.9816 72.9901Z" fill="#FF2D20"/>
</svg>
