<svg width="114" height="114" viewBox="0 0 114 114" fill="none" xmlns="http://www.w3.org/2000/svg">
<path d="M36.5178 25.6738H77.8533C84.1185 25.6738 89.1855 30.7082 89.1855 36.933V76.4146C89.1855 82.6394 84.1185 87.6738 77.8533 87.6738H36.5178C30.2526 87.6738 25.1855 82.6394 25.1855 76.4146V36.933C25.1855 30.7082 30.2526 25.6738 36.5178 25.6738Z" fill="#001E36"/>
<path d="M58.7831 69.495H41.8845C41.585 69.495 41.4602 69.3462 41.4602 69.0238V41.9422C41.4352 41.7686 41.56 41.595 41.7597 41.5702C41.7847 41.5702 41.8097 41.5702 41.8596 41.5702H47.0764C47.2012 41.5454 47.376 41.6446 47.376 41.7934C47.376 41.8182 47.376 41.843 47.376 41.8678V64.1134H59.7067C59.9813 64.1134 60.0561 64.2374 60.0062 64.4854L59.2324 69.0982C59.2324 69.2222 59.1575 69.3462 59.0827 69.4206C58.9828 69.4702 58.883 69.495 58.7831 69.495Z" fill="#31A8FF"/>
<path d="M63.0504 48.2918H67.7181C67.9927 48.2918 68.1924 48.4654 68.2673 48.7134C68.3671 48.887 68.442 49.1102 68.4919 49.3334C68.5418 49.6062 68.5918 49.879 68.6167 50.1518C68.6417 50.4494 68.6666 50.7718 68.6666 51.0942C69.4654 50.1766 70.4389 49.4078 71.5122 48.8126C72.7353 48.143 74.1081 47.8206 75.481 47.8702C75.6557 47.8454 75.8304 47.9694 75.8554 48.1678C75.8554 48.1926 75.8554 48.2174 75.8554 48.267V53.4502C75.8554 53.6734 75.7306 53.7478 75.4311 53.7478C73.7088 53.6486 71.9615 53.971 70.3889 54.6406C69.8648 54.8886 69.3406 55.1862 68.9412 55.6326V69.1486C68.9412 69.4214 68.8414 69.5206 68.5917 69.5206H63.3999C63.1752 69.5454 63.0005 69.4214 62.9755 69.1982C62.9755 69.1734 62.9755 69.1238 62.9755 69.099V54.4174C62.9755 53.7726 62.9755 53.1278 62.9506 52.4334C62.9256 51.739 62.9256 51.0446 62.9006 50.375C62.8757 49.7798 62.8258 49.2094 62.7509 48.6142C62.7259 48.4902 62.8008 48.3414 62.9256 48.3166C62.9755 48.267 63.0005 48.267 63.0504 48.2918Z" fill="#31A8FF"/>
</svg>
