<svg width="114" height="113" viewBox="0 0 114 113" fill="none" xmlns="http://www.w3.org/2000/svg">
<path d="M57.3375 20.3066L59.2386 23.8652C59.666 24.5219 60.1291 25.1032 60.6745 25.6446C62.2735 27.2183 63.764 28.8978 65.1358 30.6719C68.357 34.8872 70.5298 39.5684 72.0814 44.6312C73.012 47.7239 73.5173 50.8965 73.5552 54.1045C73.711 63.6955 70.4118 71.9309 63.76 78.7752C62.678 79.8606 61.5091 80.8563 60.2649 81.7525C59.6059 81.7525 59.2943 81.2489 59.0227 80.7852C58.5281 79.9254 58.1989 78.9811 58.0521 78.0009C57.8183 76.8406 57.6647 75.6803 57.7404 74.4822V73.9409C57.687 73.8255 57.1059 20.5795 57.3375 20.3066Z" fill="#599636"/>
<path d="M57.3376 20.1886C57.2597 20.0333 57.1818 20.1509 57.1039 20.2263C57.1417 21.0029 56.8701 21.6951 56.4449 22.3562C55.9774 23.0129 55.3585 23.5165 54.7374 24.0578C51.2869 27.0352 48.5709 30.6315 46.396 34.6538C43.5019 40.0672 42.0104 45.8688 41.5874 51.9765C41.3938 54.1796 42.2864 61.9535 42.9832 64.1965C44.8844 70.1512 48.2993 75.1408 52.7227 79.4715C53.8091 80.5142 54.9712 81.4815 56.1733 82.4111C56.5228 82.4111 56.5607 82.1005 56.6408 81.8697C56.794 81.376 56.9109 80.8718 56.9903 80.3611L57.7695 74.5617L57.3376 20.1886Z" fill="#6CAC48"/>
<path d="M59.2393 84.108C59.3172 83.2205 59.7446 82.484 60.2099 81.7496C59.7424 81.5566 59.3951 81.1728 59.1235 80.7446C58.8893 80.3392 58.6955 79.9119 58.5447 79.4689C58.0015 77.8449 57.8858 76.1411 57.7299 74.4816V73.4766C57.5362 73.6319 57.4962 74.9453 57.4962 75.1405C57.3829 76.8944 57.1493 78.6386 56.7972 80.3608C56.6814 81.0574 56.6035 81.7518 56.1738 82.3708C56.1738 82.4485 56.1738 82.5261 56.2117 82.6415C56.9107 84.6915 57.1021 86.7791 57.2201 88.9067V89.6832C57.2201 90.6106 57.1823 90.4154 57.9548 90.726C58.2664 90.8413 58.6137 90.8813 58.9254 91.112C59.1591 91.112 59.197 90.919 59.197 90.7637L59.0812 89.488V85.9294C59.0434 85.3082 59.1591 84.6915 59.237 84.1102L59.2393 84.108Z" fill="#C2BFBF"/>
</svg>
