<svg width="114" height="114" viewBox="0 0 114 114" fill="none" xmlns="http://www.w3.org/2000/svg">
<path d="M85.8206 75.2624C82.1208 75.1684 79.2534 75.5453 76.8484 76.5817C76.1546 76.8642 75.0445 76.8644 74.952 77.7597C75.3221 78.1367 75.3683 78.7492 75.6921 79.2673C76.2477 80.2094 77.2182 81.4816 78.097 82.1416C79.0681 82.8952 80.0397 83.6489 81.0567 84.3086C82.8606 85.4394 84.8958 86.0989 86.6532 87.2297C87.6711 87.8889 88.6878 88.7376 89.7054 89.4441C90.2142 89.8205 90.5377 90.4336 91.1855 90.6689V90.5278C90.8615 90.1035 90.769 89.4912 90.4455 89.02C89.9835 88.5488 89.5204 88.1247 89.0579 87.6535C87.7168 85.8164 86.0519 84.2143 84.2483 82.8952C82.7684 81.8586 79.5306 80.4453 78.9296 78.7018C78.9296 78.7018 78.8831 78.655 78.8371 78.6079C79.8544 78.5136 81.0567 78.1367 82.0283 77.8539C83.6007 77.4296 85.0343 77.5241 86.6532 77.1C87.393 76.9115 88.1331 76.6759 88.8729 76.4403V76.0165C88.0408 75.1684 87.4395 74.0378 86.5607 73.2367C84.202 71.1632 81.6118 69.1376 78.9296 67.4415C77.4957 66.4991 75.6456 65.8866 74.1195 65.0858C73.5649 64.8028 72.6396 64.6617 72.3161 64.1905C71.4833 63.1542 71.0207 61.7879 70.4197 60.5628C69.0789 57.9712 67.7835 55.0975 66.6271 52.365C65.7951 50.5274 65.2863 48.6897 64.2687 46.9939C59.5051 38.9843 54.3252 34.1315 46.3706 29.3727C44.6592 28.3834 42.6243 27.9594 40.4506 27.4413C39.2948 27.3939 38.1382 27.2999 36.9821 27.2526C36.2421 26.9227 35.502 26.0277 34.8545 25.6036C32.2188 23.9073 25.4197 20.2328 23.4773 25.0856C22.2285 28.1478 25.3275 31.163 26.3908 32.7182C27.1776 33.8017 28.1947 35.0265 28.7497 36.2516C29.0735 37.0521 29.1658 37.9008 29.4895 38.7487C30.2299 40.8212 30.9231 43.1303 31.8947 45.0623C32.4035 46.0515 32.9583 47.0879 33.6059 47.9832C33.9759 48.5012 34.6232 48.7371 34.7622 49.585C34.1149 50.5274 34.0684 51.941 33.6981 53.1187C32.0332 58.4427 32.6811 65.0387 35.0395 68.9491C35.7793 70.1265 37.5369 72.7187 39.8956 71.7289C41.977 70.881 41.5145 68.1954 42.1152 65.8397C42.2545 65.2737 42.162 64.8973 42.4393 64.5204V64.6149C43.0868 65.9337 43.7341 67.2062 44.3354 68.5253C45.7693 70.8336 48.2665 73.2367 50.3476 74.8388C51.458 75.6864 52.3365 77.1471 53.7242 77.6655V77.5238H53.6314C53.3539 77.0998 52.9376 76.9115 52.5678 76.5814C51.7355 75.7338 50.8102 74.6972 50.1629 73.7548C48.2208 71.1161 46.5091 68.1952 44.983 65.1798C44.2432 63.7196 43.5954 62.1175 42.9943 60.6571C42.7165 60.0911 42.7165 59.2435 42.2543 58.961C41.5605 59.9974 40.5431 60.8927 40.0344 62.1646C39.1561 64.1905 39.0633 66.6876 38.7395 69.2787C38.5545 69.3263 38.6467 69.2787 38.5542 69.3734C37.0746 68.9959 36.5658 67.4415 36.0105 66.1222C34.6229 62.7772 34.3916 57.4061 35.5945 53.5428C35.9183 52.5533 37.3059 49.4439 36.7509 48.5015C36.4733 47.6062 35.548 47.0879 35.0395 46.3814C34.4384 45.4861 33.7906 44.3557 33.3746 43.3659C32.2645 40.7275 31.7095 37.8063 30.5071 35.1679C29.9521 33.9428 28.9813 32.6711 28.1947 31.5402C27.3161 30.2682 26.3448 29.3727 25.651 27.8651C25.42 27.3471 25.0959 26.4989 25.466 25.9335C25.5585 25.5565 25.7432 25.4154 26.1135 25.3212C26.7148 24.8026 28.4262 25.4623 29.027 25.745C30.7384 26.4512 32.172 27.1115 33.6059 28.1007C34.2531 28.5719 34.947 29.4672 35.7793 29.7028H36.7506C38.2307 30.0324 39.8953 29.797 41.2829 30.2208C43.7344 31.0216 45.954 32.1996 47.943 33.4718C54.0017 37.3823 58.996 42.9419 62.3726 49.585C62.9276 50.6682 63.1586 51.6582 63.6674 52.7886C64.639 55.0975 65.8414 57.4532 66.8122 59.7147C67.7835 61.9288 68.7083 64.1905 70.0959 66.0282C70.7897 67.0172 73.5644 67.5358 74.8133 68.0541C75.7383 68.4779 77.1722 68.8551 78.0045 69.3732C79.5769 70.3621 81.1493 71.4936 82.6294 72.5768C83.3694 73.1422 85.6816 74.3202 85.8206 75.2624Z" fill="#00546B"/>
<path d="M38.6459 34.3193C37.8598 34.3193 37.305 34.4141 36.75 34.5552V34.6494H36.8425C37.2128 35.4034 37.8598 35.9217 38.3221 36.5811C38.6924 37.3347 39.0159 38.0889 39.3862 38.8428C39.4322 38.7955 39.4784 38.7486 39.4784 38.7486C40.1263 38.2771 40.4498 37.5235 40.4498 36.3926C40.1722 36.063 40.126 35.7332 39.8947 35.4034C39.6175 34.9319 39.0159 34.6966 38.6459 34.3193Z" fill="#00546B"/>
</svg>
