<svg width="114" height="114" viewBox="0 0 114 114" fill="none" xmlns="http://www.w3.org/2000/svg">
<g clip-path="url(#clip0_1226_1014)">
<path d="M69.8223 48.5635H83.8276V51.1485H78.2719V64.748H75.4938V51.1485H69.8223V48.5635Z" fill="black"/>
<path d="M46.7905 48.5635V51.1485H35.5642V55.307H44.5924V57.892H35.5642V62.163H46.7905V64.748H32.7863V51.1485H32.7852V48.5635H46.7905Z" fill="black"/>
<path d="M53.7839 48.5703H50.1484L63.1698 64.7548H66.8158L60.3043 56.6681L66.8054 48.5827L63.1698 48.5883L58.4842 54.4076L53.7839 48.5703Z" fill="black"/>
<path d="M57.5111 60.1308L55.6906 57.8672L50.1348 64.767H53.7806L57.5111 60.1308Z" fill="black"/>
<path fill-rule="evenodd" clip-rule="evenodd" d="M32.8823 64.7479L19.8435 48.5566H16.3711V64.7411H19.149V52.0161L29.3926 64.7479H32.8823Z" fill="black"/>
<path d="M84.4529 64.649C84.2495 64.649 84.0764 64.5786 83.9315 64.4376C83.7866 64.2967 83.715 64.126 83.7168 63.9239C83.715 63.7272 83.7866 63.5585 83.9315 63.4175C84.0764 63.2765 84.2495 63.2061 84.4529 63.2061C84.6486 63.2061 84.8199 63.2765 84.9648 63.4175C85.1117 63.5585 85.185 63.7272 85.187 63.9239C85.185 64.0574 85.1511 64.1798 85.0833 64.2892C85.0137 64.4005 84.9254 64.4877 84.8142 64.5508C84.705 64.6157 84.5846 64.649 84.4529 64.649Z" fill="black"/>
<path d="M89.1958 57.8311H90.4268V62.5737C90.425 63.0095 90.3307 63.3823 90.1464 63.6958C89.9601 64.0092 89.7022 64.2485 89.3709 64.4173C89.0416 64.5842 88.6556 64.6695 88.2171 64.6695C87.8161 64.6695 87.4567 64.5972 87.1367 64.4562C86.8167 64.3153 86.5626 64.1038 86.3763 63.8256C86.1879 63.5474 86.0957 63.2006 86.0957 62.7851H87.3287C87.3306 62.9669 87.372 63.1245 87.451 63.2562C87.53 63.3879 87.6391 63.488 87.7785 63.5585C87.9195 63.629 88.0816 63.6642 88.264 63.6642C88.4618 63.6642 88.6312 63.6234 88.7685 63.54C88.9058 63.4583 89.0113 63.3359 89.0848 63.1727C89.1562 63.0114 89.194 62.8111 89.1958 62.5737V57.8311Z" fill="black"/>
<path d="M95.4893 59.6859C95.4593 59.3984 95.3274 59.174 95.0978 59.0144C94.8662 58.8531 94.567 58.7733 94.1999 58.7733C93.9422 58.7733 93.7201 58.8123 93.5356 58.8883C93.3512 58.9662 93.2081 59.0701 93.1101 59.2018C93.0124 59.3335 92.9634 59.4837 92.9595 59.6525C92.9595 59.7935 92.9934 59.9159 93.0593 60.0179C93.1252 60.1217 93.2136 60.2089 93.3285 60.2794C93.4414 60.3517 93.5675 60.4111 93.705 60.4593C93.8442 60.5075 93.9836 60.5483 94.1228 60.5817L94.7646 60.7394C95.0225 60.7987 95.2729 60.8785 95.5119 60.9805C95.7509 61.0806 95.9674 61.2086 96.1574 61.3626C96.3476 61.5165 96.4982 61.702 96.6092 61.919C96.7203 62.136 96.7768 62.3901 96.7768 62.6831C96.7768 63.0782 96.6752 63.425 96.4699 63.7255C96.2648 64.0241 95.9693 64.2578 95.5815 64.4266C95.1956 64.5935 94.7289 64.6788 94.1793 64.6788C93.6485 64.6788 93.1854 64.5973 92.7959 64.434C92.4044 64.2727 92.0993 64.0352 91.8791 63.7236C91.6589 63.4121 91.5404 63.0318 91.5234 62.5848H92.7432C92.7601 62.8185 92.8354 63.0133 92.9634 63.1709C93.0932 63.3267 93.2626 63.4417 93.4697 63.5196C93.6787 63.5957 93.912 63.6346 94.1699 63.6346C94.4391 63.6346 94.6762 63.5938 94.8813 63.5141C95.0846 63.4343 95.2446 63.323 95.3595 63.1784C95.4762 63.0355 95.5346 62.8668 95.5364 62.6739C95.5346 62.4977 95.4817 62.3511 95.3801 62.2361C95.2766 62.1212 95.1336 62.0247 94.9509 61.9468C94.7666 61.8689 94.5519 61.7984 94.3072 61.7372L93.5281 61.5406C92.9652 61.3978 92.5191 61.1808 92.1934 60.8896C91.8661 60.5984 91.704 60.2126 91.704 59.7285C91.704 59.3316 91.8132 58.9829 92.0336 58.6843C92.2518 58.3857 92.5512 58.1539 92.9295 57.9888C93.3097 57.8219 93.7389 57.7402 94.2168 57.7402C94.7025 57.7402 95.1278 57.8219 95.495 57.9888C95.8619 58.1539 96.1501 58.3839 96.3588 58.6769C96.5678 58.9699 96.677 59.3056 96.6827 59.6859H95.4893Z" fill="black"/>
</g>
<defs>
<clipPath id="clip0_1226_1014">
<rect width="80.4062" height="16.3261" fill="white" transform="translate(16.3711 48.5566)"/>
</clipPath>
</defs>
</svg>
