<svg width="114" height="113" viewBox="0 0 114 113" fill="none" xmlns="http://www.w3.org/2000/svg">
<path d="M54.5769 20.7788C56.3802 19.7427 58.7292 19.7381 60.531 20.7788C69.5959 25.9199 78.6636 31.0529 87.7269 36.1971C89.4316 37.1609 90.5718 39.0651 90.5545 41.0366V71.9673C90.5672 74.0205 89.3142 75.9702 87.5158 76.9121C78.4807 82.0249 69.4503 87.1439 60.4168 92.2566C58.5761 93.313 56.18 93.2316 54.3968 92.0886C51.6881 90.5126 48.9747 88.9443 46.2658 87.3698C45.7122 87.0386 45.0882 86.7749 44.6973 86.2362C45.0429 85.7688 45.6607 85.7105 46.1627 85.5064C47.2934 85.1456 48.3318 84.5663 49.3705 84.0042C49.6332 83.8238 49.9539 83.8929 50.2057 84.0544C52.5219 85.3874 54.8178 86.7591 57.1418 88.0793C57.6376 88.3666 58.1396 87.9852 58.5634 87.7481C67.4296 82.7185 76.3066 77.708 85.1713 72.6769C85.4997 72.5183 85.6813 72.1683 85.6546 71.8072C85.6608 61.6038 85.6562 51.3986 85.6577 41.1952C85.6953 40.7855 85.4591 40.4087 85.0899 40.241C76.0862 35.1517 67.0871 30.0545 58.0849 24.9639C57.929 24.8563 57.7442 24.7985 57.5549 24.7983C57.3657 24.798 57.1807 24.8552 57.0245 24.9623C48.0223 30.0545 39.0248 35.1564 30.0226 40.2455C29.6548 40.4134 29.4079 40.7839 29.4517 41.1952C29.4532 51.3986 29.4517 61.6038 29.4517 71.8087C29.4361 71.9849 29.4746 72.1617 29.5622 72.3153C29.6497 72.4688 29.782 72.5917 29.9412 72.6675C32.3435 74.0348 34.7489 75.3925 37.1527 76.7551C38.507 77.4867 40.1697 77.9214 41.6617 77.3609C42.9784 76.8869 43.9013 75.5383 43.8762 74.1352C43.8886 63.9913 43.87 53.8459 43.8855 43.7036C43.8526 43.2533 44.2782 42.8813 44.7144 42.9236C45.8687 42.9158 47.0245 42.908 48.1787 42.9268C48.6605 42.9158 48.9921 43.4007 48.9325 43.8544C48.9279 54.0625 48.945 64.2708 48.9247 74.4789C48.9279 77.1994 47.8143 80.1597 45.3071 81.4909C42.2184 83.0968 38.4008 82.7562 35.3493 81.2163C32.7077 79.8929 30.1868 78.3312 27.5921 76.9134C25.7889 75.9767 24.5422 74.0192 24.5549 71.9676V41.0366C24.536 39.0243 25.7216 37.0855 27.4794 36.1358C36.5129 31.0189 45.5449 25.8981 54.5769 20.7788Z" fill="#8CC84B"/>
<path d="M62.4571 42.2043C66.397 41.9498 70.6148 42.0535 74.1602 44.0017C76.9052 45.4945 78.427 48.6277 78.4754 51.6886C78.3988 52.1015 77.9688 52.3292 77.5761 52.3009C76.433 52.2993 75.2896 52.3165 74.1465 52.2931C73.6616 52.3118 73.3797 51.863 73.3189 51.4328C72.9904 49.9682 72.1947 48.5177 70.8213 47.8113C68.713 46.7519 66.2685 46.8052 63.9696 46.8273C62.2913 46.9167 60.4866 47.0625 59.0648 48.0531C57.9732 48.8035 57.6417 50.3182 58.0312 51.5381C58.3986 52.414 59.4059 52.6966 60.2302 52.9571C64.9783 54.2035 70.0097 54.0795 74.6671 55.7198C76.5954 56.3885 78.4817 57.6884 79.1417 59.7148C80.005 62.4307 79.6266 65.6769 77.7014 67.8572C76.1403 69.6514 73.8665 70.628 71.5986 71.1583C68.5817 71.8335 65.4507 71.8507 62.3869 71.5509C59.5059 71.2213 56.5079 70.4616 54.2838 68.4914C52.382 66.8339 51.4531 64.2514 51.5453 61.7589C51.5673 61.3379 51.9849 61.0444 52.3867 61.079C53.5378 61.0696 54.6889 61.0665 55.8401 61.0805C56.2999 61.0475 56.6408 61.4464 56.6643 61.8813C56.8767 63.2767 57.3992 64.7412 58.6115 65.5685C60.9511 67.0835 63.8867 66.9798 66.5656 67.0221C68.785 66.9233 71.2764 66.8934 73.0875 65.4211C74.0431 64.5813 74.3262 63.1763 74.068 61.9676C73.7882 60.9472 72.7246 60.4716 71.8113 60.1607C67.1241 58.6725 62.0364 59.2125 57.3945 57.5296C55.5101 56.8611 53.6878 55.5973 52.9638 53.6541C51.9535 50.9039 52.4164 47.5022 54.5434 45.3955C56.6172 43.2999 59.6108 42.4929 62.4571 42.2041V42.2043Z" fill="#8CC84B"/>
</svg>
