<svg width="114" height="114" viewBox="0 0 114 114" fill="none" xmlns="http://www.w3.org/2000/svg">
<rect x="0.462891" y="0.77832" width="113.185" height="112.556" rx="32.1589" fill="white"/>
<path d="M61.1234 76.7783H83.428C84.1364 76.7784 84.8324 76.5936 85.4459 76.2425C86.0594 75.8914 86.5688 75.3864 86.9229 74.7782C87.277 74.1701 87.4632 73.4802 87.4629 72.7781C87.4626 72.076 87.2757 71.3863 86.9211 70.7785L71.942 45.0642C71.588 44.4562 71.0787 43.9513 70.4653 43.6003C69.8519 43.2492 69.1561 43.0644 68.4478 43.0644C67.7395 43.0644 67.0437 43.2492 66.4303 43.6003C65.8169 43.9513 65.3076 44.4562 64.9535 45.0642L61.1234 51.6436L53.635 38.7779C53.2806 38.1699 52.7711 37.6651 52.1575 37.3141C51.544 36.9631 50.8481 36.7783 50.1396 36.7783C49.4312 36.7783 48.7353 36.9631 48.1217 37.3141C47.5082 37.6651 46.9986 38.1699 46.6443 38.7779L28.0047 70.7785C27.6501 71.3863 27.4632 72.076 27.4629 72.7781C27.4626 73.4802 27.6488 74.1701 28.0029 74.7782C28.357 75.3864 28.8664 75.8914 29.4799 76.2425C30.0934 76.5936 30.7894 76.7784 31.4978 76.7783H45.4988C51.0461 76.7783 55.137 74.3633 57.952 69.6517L64.7862 57.9213L68.4467 51.6436L79.4327 70.5005H64.7862L61.1234 76.7783ZM45.2705 70.4941L35.4996 70.4919L50.1462 45.3507L57.4542 57.9213L52.5612 66.3233C50.6918 69.3803 48.568 70.4941 45.2705 70.4941Z" fill="#00DC82"/>
</svg>
