<svg width="114" height="113" viewBox="0 0 114 113" fill="none" xmlns="http://www.w3.org/2000/svg">
<path fill-rule="evenodd" clip-rule="evenodd" d="M56.5 72C74.4493 72 89 64.6124 89 55.5C89 46.3876 74.4493 39 56.5 39C38.5511 39 24 46.3876 24 55.5C24 64.6124 38.5511 72 56.5 72Z" fill="#6E81B6"/>
<path fill-rule="evenodd" clip-rule="evenodd" d="M63.0884 60.833L64.7005 52.521C65.0644 50.6449 64.7618 49.2457 63.8017 48.3614C62.8714 47.5059 61.2924 47.0897 58.9745 47.0897H56.1826L56.9812 42.9715C56.9962 42.8949 56.994 42.8159 56.9749 42.7402C56.9558 42.6645 56.9202 42.5939 56.8706 42.5336C56.8211 42.4733 56.7588 42.4248 56.6883 42.3914C56.6178 42.3581 56.5408 42.3408 56.4629 42.3408H52.6095C52.3564 42.3408 52.1391 42.5207 52.0908 42.7696L50.3785 51.5938C50.2229 50.6008 49.8393 49.7473 49.2254 49.0429C48.0952 47.7468 46.3074 47.0897 43.9113 47.0897H36.4428C36.1897 47.0897 35.9724 47.2697 35.9241 47.5181L32.459 65.3799C32.4288 65.5354 32.4693 65.6953 32.5699 65.8173C32.6701 65.9398 32.8194 66.0102 32.9778 66.0102H36.8614C37.1145 66.0102 37.3318 65.8303 37.3801 65.5811L38.2184 61.2609H41.1093C42.6262 61.2609 43.9011 61.0964 44.8962 60.7719C45.9137 60.4404 46.8502 59.8782 47.6755 59.1042C48.3424 58.4904 48.8934 57.803 49.3174 57.0616L48.6253 60.6302C48.5951 60.7857 48.6355 60.9464 48.7362 61.0676C48.8364 61.1901 48.9861 61.2605 49.1441 61.2605H52.9974C53.2505 61.2605 53.4678 61.0806 53.5162 60.8322L55.4179 51.0276H58.062C59.1887 51.0276 59.5188 51.2524 59.6088 51.3489C59.6901 51.4371 59.8591 51.7477 59.6693 52.7269L58.1366 60.6298C58.1219 60.7064 58.1243 60.7854 58.1436 60.861C58.1628 60.9366 58.1985 61.007 58.2481 61.0672C58.2976 61.1274 58.3598 61.1759 58.4302 61.2092C58.5006 61.2426 58.5775 61.26 58.6554 61.2601H62.57C62.6925 61.2604 62.8113 61.2179 62.9059 61.1399C63.0005 61.062 63.065 60.9534 63.0884 60.833ZM45.2236 53.9651C44.9815 55.2112 44.5256 56.0998 43.8677 56.6065C43.1996 57.1226 42.1311 57.3841 40.6915 57.3841H38.9702L40.2148 50.9674H42.4404C44.0752 50.9674 44.7339 51.3174 44.9984 51.6107C45.365 52.0178 45.4428 52.8324 45.2236 53.9651ZM79.3195 49.0429C78.1897 47.7468 76.4019 47.0897 74.0058 47.0897H66.5373C66.2838 47.0897 66.0669 47.2697 66.0186 47.5181L62.5539 65.3799C62.5233 65.5354 62.5637 65.6953 62.6643 65.8173C62.7649 65.9394 62.9147 66.0102 63.0719 66.0102H66.9559C67.2093 66.0102 67.4263 65.8303 67.4746 65.5811L68.3129 61.2609H71.2041C72.7215 61.2609 73.9952 61.0964 74.9907 60.7719C76.0085 60.4404 76.945 59.8782 77.7699 59.1042C78.4585 58.4707 79.0248 57.7585 79.4539 56.9896C79.8831 56.2207 80.1908 55.3632 80.3704 54.4403C80.8117 52.1643 80.4584 50.3485 79.3195 49.0429ZM75.5385 53.9651C75.296 55.2112 74.8401 56.0998 74.1831 56.6065C73.5146 57.1226 72.446 57.3841 71.0069 57.3841H69.2851L70.5294 50.9674H72.7553C74.3902 50.9674 75.0488 51.3174 75.3137 51.6107C75.6796 52.0178 75.7578 52.8324 75.5385 53.9651Z" fill="white"/>
<path fill-rule="evenodd" clip-rule="evenodd" d="M42.3263 50.4376C43.8016 50.4376 44.7852 50.7104 45.2769 51.2561C45.7681 51.8018 45.8852 52.7388 45.6282 54.066C45.3594 55.4483 44.8422 56.435 44.0759 57.0263C43.3095 57.6177 42.1431 57.9129 40.5774 57.9129H38.2147L39.6649 50.4376H42.3263ZM32.8633 65.4804H36.7469L37.6685 60.7319H40.9952C42.463 60.7319 43.6707 60.5772 44.6186 60.2681C45.5665 59.959 46.4284 59.4413 47.2037 58.7141C47.8546 58.1153 48.3812 57.4539 48.7844 56.731C49.1872 56.0082 49.4733 55.2109 49.6427 54.3389C50.0538 52.2215 49.7437 50.5722 48.7133 49.3911C47.6832 48.2096 46.044 47.619 43.7972 47.619H36.3287L32.8633 65.4804ZM52.4951 42.8701H56.3484L55.4272 47.619H58.8604C61.0196 47.619 62.5102 47.9962 63.33 48.7509C64.1498 49.5057 64.3954 50.7289 64.0677 52.4199L62.4556 60.7319H58.5409L60.0736 52.8286C60.2477 51.9294 60.1841 51.3164 59.8811 50.9892C59.5781 50.6624 58.9331 50.4986 57.9475 50.4986H54.868L52.883 60.7319H49.0296L52.4951 42.8701ZM72.6413 50.4376C74.1166 50.4376 75.0999 50.7104 75.5919 51.2561C76.0831 51.8018 76.1999 52.7388 75.9429 54.066C75.6748 55.4483 75.1576 56.435 74.3909 57.0263C73.625 57.6177 72.4581 57.9129 70.8932 57.9129H68.5305L69.9803 50.4376H72.6413ZM63.1775 65.4804H67.0615L67.9827 60.7319H71.3094C72.7776 60.7319 73.9853 60.5772 74.9332 60.2681C75.8811 59.959 76.743 59.4413 77.5184 58.7141C78.1692 58.1153 78.6958 57.4539 79.0986 56.731C79.5014 56.0082 79.7879 55.2109 79.9577 54.3389C80.3684 52.2215 80.0583 50.5722 79.0283 49.3911C77.9974 48.2096 76.3586 47.619 74.1119 47.619H66.6434L63.1775 65.4804Z" fill="black"/>
</svg>
