<svg width="114" height="114" viewBox="0 0 114 114" fill="none" xmlns="http://www.w3.org/2000/svg">
<path d="M87.4237 62.8083C87.0632 61.7136 86.119 60.9511 84.8979 60.7681C84.3221 60.682 83.6628 60.7187 82.8824 60.88C81.5223 61.1614 80.5133 61.2685 79.7769 61.2892C82.5565 56.5833 84.8167 51.2168 86.1178 46.1652C88.2219 37.9968 87.0975 34.2757 85.7837 32.5925C82.3066 28.1373 77.2337 25.744 71.1137 25.6707C67.849 25.6307 64.9829 26.2771 63.4878 26.7419C62.0957 26.4956 60.599 26.3581 59.0285 26.3326C56.0845 26.2855 53.4833 26.9291 51.2607 28.2518C50.0302 27.8345 48.0553 27.2463 45.7747 26.8709C40.4109 25.9879 36.0877 26.676 32.9256 28.916C29.0965 31.6282 27.3215 36.3405 27.6498 42.922C27.754 45.0116 28.9197 51.3694 30.7551 57.399C31.8099 60.8647 32.9347 63.7427 34.0983 65.9538C35.7484 69.0891 37.5141 70.9354 39.4962 71.5985C40.6072 71.9697 42.6257 72.2296 44.7488 70.4565C45.0179 70.7833 45.3769 71.108 45.8534 71.4097C46.4585 71.7923 47.1985 72.105 47.9375 72.2904C50.6006 72.9579 53.0952 72.791 55.2234 71.8552C55.2365 72.2348 55.2466 72.5974 55.2551 72.9106C55.2692 73.4185 55.2832 73.9165 55.3018 74.3823C55.4279 77.5316 55.6416 79.9802 56.2747 81.6936C56.3094 81.7877 56.3562 81.9314 56.4055 82.0837C56.7213 83.0534 57.2494 84.6768 58.5931 85.9481C59.9844 87.2651 61.6674 87.6689 63.2088 87.6689C63.9819 87.6689 64.7194 87.5672 65.3664 87.4283C67.6724 86.9326 70.2914 86.1777 72.1859 83.4726C73.9772 80.9153 74.8479 77.0637 75.0055 70.9948C75.0259 70.8231 75.0447 70.6592 75.0628 70.5031L75.1003 70.1824L75.5223 70.2196L75.631 70.2269C77.9798 70.3343 80.8517 69.8348 82.6154 69.0133C84.0091 68.3648 88.4753 66.0004 87.4237 62.8083Z" fill="black"/>
<path d="M83.4064 63.4286C76.4227 64.8732 75.9425 62.5023 75.9425 62.5023C83.316 51.5308 86.3985 37.6041 83.7386 34.1956C76.4816 24.8979 63.9197 29.2952 63.71 29.4091L63.6426 29.4214C62.2627 29.1341 60.7188 28.9632 58.9832 28.9347C55.8234 28.8829 53.4263 29.7654 51.6073 31.1486C51.6073 31.1486 29.198 21.8912 30.2403 42.7914C30.462 47.2376 36.5957 76.4343 43.9114 67.6156C46.5853 64.3908 49.1691 61.6642 49.1691 61.6642C50.4522 62.519 51.9884 62.9551 53.5989 62.7985L53.724 62.692C53.685 63.0924 53.7029 63.4839 53.774 63.9476C51.8893 66.0591 52.4433 66.4297 48.6758 67.2075C44.8634 67.9954 47.1029 69.3979 48.5652 69.7648C50.3378 70.2091 54.4388 70.8388 57.2098 66.949L57.0994 67.3928C57.8377 67.986 58.3562 71.2506 58.2693 74.2103C58.1824 77.1697 58.1244 79.2016 58.7061 80.7887C59.2882 82.3758 59.868 85.9468 64.8209 84.8827C68.9592 83.9933 71.1039 81.6887 71.4023 77.8444C71.6139 75.1114 72.0932 75.5155 72.1233 73.072L72.5077 71.9153C72.9508 68.2106 72.5781 67.0154 75.1276 67.5713L75.7476 67.6259C77.6238 67.7114 80.0801 67.3231 81.5217 66.6513C84.6256 65.2069 86.4666 62.795 83.4059 63.4286H83.4064Z" fill="#336791"/>
<path d="M52.9213 44.7803C52.292 44.6925 51.7221 44.7737 51.4337 44.9927C51.2717 45.1158 51.2214 45.2585 51.2078 45.3567C51.1716 45.6169 51.3534 45.9047 51.4652 46.053C51.7812 46.4731 52.2429 46.7618 52.6999 46.8254C52.7661 46.8348 52.8321 46.839 52.8976 46.839C53.6596 46.839 54.3526 46.244 54.4136 45.8048C54.49 45.2548 53.6937 44.8881 52.9213 44.7805V44.7803ZM73.77 44.7977C73.7099 44.3666 72.9448 44.2437 72.2188 44.3449C71.4936 44.4462 70.7906 44.7744 70.8493 45.2065C70.8962 45.5425 71.5014 46.1161 72.2176 46.1161C72.2782 46.1161 72.3392 46.1121 72.4008 46.1034C72.8789 46.037 73.2297 45.7326 73.3964 45.5571C73.65 45.2896 73.797 44.9915 73.77 44.7977Z" fill="white"/>
<path d="M85.731 63.2654C85.4647 62.458 84.6076 62.1983 83.1836 62.4931C78.9556 63.3681 77.4414 62.762 76.9443 62.3949C80.2307 57.3746 82.9342 51.3059 84.3927 45.6439C85.0836 42.9619 85.4652 40.471 85.4964 38.4407C85.5309 36.2124 85.1524 34.575 84.3718 33.5747C81.2247 29.5422 76.6057 27.3791 71.0145 27.3197C67.1706 27.2764 63.923 28.2628 63.2934 28.5402C61.9676 28.2096 60.5223 28.0066 58.9487 27.9807C56.0632 27.9339 53.5689 28.6266 51.5038 30.0388C50.6068 29.7039 48.2886 28.9059 45.4535 28.4479C40.5523 27.6567 36.6574 28.2562 33.878 30.2307C30.5616 32.5868 29.0306 36.7985 29.3271 42.7485C29.4269 44.7503 30.5644 50.9084 32.3594 56.8059C34.7222 64.5681 37.2908 68.9623 39.9931 69.8663C40.3094 69.972 40.6741 70.0459 41.0764 70.0459C42.0622 70.0459 43.2708 69.6004 44.5283 68.0844C46.0621 66.2394 47.6487 64.4391 49.2861 62.6859C50.3485 63.2577 51.5155 63.577 52.7092 63.609C52.7115 63.6403 52.7146 63.6716 52.7174 63.7027C52.5119 63.9484 52.3107 64.1976 52.1139 64.4503C51.2868 65.5031 51.1147 65.7224 48.4525 66.272C47.6952 66.4288 45.6839 66.8444 45.6543 68.2582C45.6224 69.8029 48.0319 70.4516 48.3064 70.5204C49.2631 70.7606 50.1848 70.879 51.0637 70.879C53.2013 70.879 55.0825 70.1745 56.5859 68.8113C56.5396 74.3181 56.7686 79.7444 57.428 81.3977C57.9681 82.7512 59.2873 86.0589 63.4545 86.0587C64.066 86.0587 64.739 85.9873 65.4794 85.8281C69.8286 84.8933 71.7173 82.9657 72.4479 78.7161C72.8388 76.4449 73.5097 71.0217 73.8254 68.1127C74.4913 68.3211 75.3487 68.4164 76.2755 68.4162C78.2086 68.4162 80.4392 68.0044 81.8381 67.3533C83.4095 66.6214 86.2453 64.8257 85.731 63.2654ZM75.3738 43.608C75.3595 44.4668 75.2416 45.2464 75.1167 46.0602C74.9821 46.9355 74.8431 47.8404 74.8081 48.9389C74.7736 50.008 74.9067 51.1194 75.0354 52.1943C75.2956 54.3654 75.5626 56.6005 74.5291 58.806C74.3574 58.501 74.2045 58.1857 74.0712 57.862C73.9428 57.5497 73.6638 57.0482 73.2775 56.354C71.7749 53.6517 68.256 47.3236 70.0573 44.7413C70.5939 43.9727 71.9557 43.1825 75.3738 43.608ZM71.2305 29.0587C76.2403 29.1696 80.2032 31.049 83.0089 34.6442C85.1608 37.4018 82.7912 49.9496 75.9313 60.7746C75.8623 60.6866 75.7929 60.5989 75.7232 60.5115L75.6363 60.4028C77.409 57.4671 77.0624 54.5625 76.7539 51.9874C76.627 50.9306 76.5073 49.9324 76.5378 48.9947C76.5693 48.001 76.7003 47.1486 76.8271 46.3244C76.9828 45.3088 77.1413 44.2579 77.0976 43.0191C77.1303 42.8891 77.1434 42.7356 77.1263 42.5533C77.0147 41.3653 75.6622 37.8099 72.9053 34.5919C71.3973 32.8317 69.1981 30.862 66.1954 29.5334C67.4869 29.265 69.2531 29.0147 71.2305 29.0587ZM43.1976 66.9749C41.8121 68.6453 40.8554 68.3251 40.5407 68.22C38.4907 67.5343 36.1119 63.1894 34.0147 56.2994C32.2 50.3376 31.1395 44.3427 31.0554 42.6616C30.7906 37.3451 32.0758 33.6399 34.8756 31.6487C39.4321 28.4086 46.9235 30.3479 49.9338 31.3315C49.8905 31.3744 49.8455 31.4144 49.8027 31.458C44.8629 36.4604 44.9801 45.0072 44.9923 45.5297C44.9919 45.7313 45.0088 46.0167 45.0318 46.4092C45.1168 47.8468 45.2751 50.5222 44.8524 53.5521C44.4597 56.3677 45.3253 59.1234 47.2267 61.113C47.4218 61.3167 47.6269 61.5107 47.8412 61.6941C46.9949 62.603 45.1555 64.613 43.1976 66.9749ZM48.4762 59.9123C46.9437 58.3087 46.2477 56.0783 46.5664 53.7923C47.0125 50.5917 46.8479 47.8042 46.7594 46.3065C46.7469 46.097 46.7359 45.9133 46.7296 45.7685C47.4512 45.1268 50.7953 43.3301 53.1802 43.8781C54.2684 44.1279 54.9315 44.8711 55.2072 46.1492C56.634 52.7668 55.396 55.5249 54.4013 57.7414C54.1963 58.198 54.0026 58.6296 53.8373 59.0761L53.709 59.4213C53.3845 60.294 53.0825 61.1054 52.8954 61.8759C51.2662 61.8712 49.6813 61.1732 48.4762 59.912V59.9123ZM48.7263 68.8368C48.2505 68.7176 47.8227 68.5106 47.5716 68.339C47.7813 68.2401 48.1545 68.1054 48.8017 67.9716C51.9335 67.3252 52.4173 66.8689 53.4735 65.5241C53.7156 65.2156 53.9901 64.8662 54.3703 64.4404L54.3708 64.44C54.9369 63.8042 55.196 63.912 55.6656 64.1075C56.0463 64.2653 56.417 64.7437 56.5673 65.2703C56.6385 65.5189 56.7183 65.9908 56.457 66.3582C54.2505 69.4561 51.0353 69.4163 48.7263 68.8368ZM65.1169 84.1313C61.2854 84.9545 59.9289 82.9942 59.0349 80.7532C58.4579 79.3064 58.1742 72.7824 58.3755 65.5775C58.3781 65.4817 58.3645 65.3892 58.3382 65.302C58.3146 65.13 58.2788 64.9599 58.2311 64.7929C57.9319 63.7446 57.2028 62.8677 56.328 62.5041C55.9805 62.3598 55.3427 62.0949 54.5763 62.2915C54.7397 61.6162 55.0231 60.8535 55.3305 60.0276L55.4594 59.6803C55.6046 59.2887 55.7868 58.883 55.9793 58.4535C57.0203 56.1345 58.4459 52.9582 56.8987 45.7826C56.3191 43.0949 54.3837 41.7824 51.4498 42.0873C49.6909 42.2698 48.0817 42.9814 47.2791 43.3895C47.1065 43.4771 46.9487 43.5618 46.8012 43.6443C47.0252 40.9363 47.8715 35.8755 51.0374 32.6735C53.0309 30.6578 55.6856 29.6622 58.9201 29.7159C65.2932 29.8205 69.3801 33.1002 71.6866 35.8333C73.6741 38.1883 74.7503 40.5607 75.1798 41.8403C71.9498 41.5109 69.753 42.1502 68.6395 43.7467C66.2168 47.2195 69.9648 53.9597 71.7662 57.1991C72.0966 57.7928 72.3816 58.3059 72.4713 58.5239C73.0579 59.9495 73.8174 60.9013 74.3718 61.5959C74.5418 61.8088 74.7066 62.0153 74.832 62.1957C73.8538 62.4785 72.0966 63.1319 72.2567 66.3982C72.1276 68.0371 71.2092 75.7103 70.7426 78.4213C70.1266 82.0029 68.8123 83.3368 65.1169 84.1315V84.1313ZM81.1094 65.7794C80.109 66.2449 78.435 66.5941 76.8447 66.6692C75.0882 66.7516 74.194 66.4719 73.9836 66.2998C73.885 64.2643 74.6404 64.0517 75.44 63.8266C75.5656 63.7912 75.6882 63.7566 75.8066 63.7152C75.8801 63.7752 75.9606 63.8348 76.0489 63.8932C77.4607 64.8276 79.9787 64.9283 83.5337 64.1925L83.5727 64.1847C83.0932 64.6342 82.2727 65.2375 81.1094 65.7794Z" fill="white"/>
</svg>
