<svg width="114" height="113" viewBox="0 0 114 113" fill="none" xmlns="http://www.w3.org/2000/svg">
<g clip-path="url(#clip0_2484_1265)">
<path d="M36.1529 25.3936H77.1133C78.5886 25.3922 80.0496 25.6817 81.4129 26.2456C82.7761 26.8096 84.0148 27.6368 85.0579 28.68C86.1011 29.7231 86.9283 30.9618 87.4923 32.325C88.0562 33.6883 88.3457 35.1493 88.3443 36.6246V75.9994C88.3457 77.4747 88.0562 78.9357 87.4923 80.299C86.9283 81.6622 86.1011 82.9009 85.0579 83.9441C84.0148 84.9872 82.7761 85.8145 81.4129 86.3784C80.0496 86.9423 78.5886 87.2319 77.1133 87.2305H36.1529C34.6777 87.2319 33.2166 86.9423 31.8534 86.3784C30.4901 85.8145 29.2515 84.9872 28.2083 83.9441C27.1651 82.9009 26.3379 81.6622 25.774 80.299C25.21 78.9357 24.9205 77.4747 24.9219 75.9994V36.6246C24.9205 35.1493 25.21 33.6883 25.774 32.325C26.3379 30.9618 27.1651 29.7231 28.2083 28.68C29.2515 27.6368 30.4901 26.8096 31.8534 26.2456C33.2166 25.6817 34.6777 25.3922 36.1529 25.3936V25.3936Z" fill="#00005B"/>
<path d="M39.9844 68.7578V41.5655C39.9844 41.3805 40.0637 41.2748 40.2486 41.2748C40.6979 41.2748 41.1207 41.2748 41.7285 41.2483C42.3363 41.2219 43.0234 41.2219 43.7369 41.1955C44.4504 41.1691 45.2167 41.1691 46.0359 41.1426C46.8551 41.1162 47.6479 41.1162 48.4407 41.1162C50.6076 41.1162 52.4046 41.3805 53.8845 41.9354C55.211 42.3859 56.4207 43.1261 57.4256 44.1024C58.2771 44.9567 58.935 45.9841 59.3547 47.1149C59.7547 48.2162 59.9603 49.3786 59.9625 50.5503C59.9625 52.8229 59.4339 54.6992 58.3769 56.179C57.3149 57.6569 55.8323 58.7804 54.1223 59.403C52.3253 60.0637 50.3434 60.3015 48.1764 60.3015C47.5422 60.3015 47.1194 60.3015 46.8551 60.2751C46.5909 60.2487 46.2209 60.2487 45.7188 60.2487V68.7314C45.7247 68.7749 45.7218 68.8191 45.7103 68.8615C45.6988 68.9038 45.6789 68.9434 45.6518 68.9779C45.6247 69.0124 45.5909 69.0411 45.5525 69.0623C45.5141 69.0835 45.4718 69.0968 45.4281 69.1014H40.3015C40.0901 69.1014 39.9844 68.9957 39.9844 68.7578ZM45.7452 46.375V55.2541C46.1152 55.2806 46.4587 55.307 46.7759 55.307H48.1764C49.2081 55.3082 50.2335 55.1477 51.2154 54.8313C52.0579 54.5836 52.8105 54.0971 53.3824 53.4307C53.9373 52.7701 54.2016 51.8716 54.2016 50.7089C54.2264 49.8831 54.0156 49.0673 53.5938 48.3569C53.1532 47.6708 52.5051 47.1431 51.744 46.8507C50.7519 46.4621 49.6904 46.2822 48.6257 46.3221C47.9386 46.3221 47.3308 46.3221 46.8287 46.3486C46.4675 46.325 46.1049 46.3338 45.7452 46.375V46.375Z" fill="#9999FF"/>
<path d="M63.6627 47.9083H68.2873C68.4125 47.9113 68.5336 47.9538 68.6333 48.0297C68.733 48.1057 68.8061 48.2111 68.8422 48.3311C68.9229 48.5437 68.9762 48.7657 69.0008 48.9917C69.0536 49.256 69.1065 49.5467 69.1329 49.8109C69.1594 50.0752 69.1858 50.4187 69.1858 50.7623C69.9792 49.836 70.9381 49.0653 72.0134 48.4896C73.2417 47.8073 74.625 47.4524 76.0301 47.459C76.0736 47.4531 76.1178 47.456 76.1602 47.4675C76.2025 47.4791 76.2421 47.499 76.2766 47.5261C76.3111 47.5532 76.3398 47.587 76.361 47.6254C76.3823 47.6638 76.3955 47.7061 76.4001 47.7497V53.0085C76.4001 53.2199 76.268 53.2992 75.9773 53.2992C75.0186 53.2678 74.0598 53.3566 73.1233 53.5634C72.3599 53.721 71.6157 53.9602 70.9035 54.2769C70.3922 54.5075 69.9336 54.8402 69.5557 55.2547V68.732C69.5557 68.9962 69.45 69.1019 69.2122 69.1019H64.0063C63.9575 69.1102 63.9076 69.1084 63.8596 69.0967C63.8116 69.085 63.7664 69.0637 63.7268 69.0341C63.6873 69.0044 63.6542 68.967 63.6296 68.9242C63.6049 68.8813 63.5892 68.8339 63.5835 68.7848V54.0391C63.5835 53.4049 63.5835 52.7442 63.557 52.0572C63.5306 51.3701 63.5306 50.683 63.5042 49.9959C63.5042 49.3881 63.4513 48.8068 63.3985 48.199C63.3915 48.1677 63.3907 48.1354 63.3962 48.1039C63.4017 48.0723 63.4134 48.0422 63.4306 48.0152C63.4478 47.9882 63.4701 47.9648 63.4964 47.9465C63.5226 47.9281 63.5522 47.9151 63.5835 47.9083C63.5835 47.8818 63.6363 47.8818 63.6627 47.9083V47.9083Z" fill="#9999FF"/>
</g>
<defs>
<clipPath id="clip0_2484_1265">
<rect width="63.4225" height="61.8369" fill="white" transform="translate(24.9199 25.3931)"/>
</clipPath>
</defs>
</svg>
