<svg width="114" height="113" viewBox="0 0 114 113" fill="none" xmlns="http://www.w3.org/2000/svg">
<path d="M36.5312 25.1128H77.2187C83.3875 25.1128 88.375 30.0658 88.375 36.1919V75.0337C88.375 81.1598 83.3875 86.1128 77.2187 86.1128H36.5312C30.3625 86.1128 25.375 81.1598 25.375 75.0337V36.1919C25.375 30.0658 30.3625 25.1128 36.5312 25.1128Z" fill="#001E36"/>
<path d="M39.5508 67.8906V41.0662C39.5508 40.8837 39.6295 40.7795 39.8133 40.7795C40.2595 40.7795 40.6795 40.7795 41.2833 40.7534C41.9133 40.7273 42.5695 40.7273 43.2783 40.7013C43.987 40.6752 44.7483 40.6752 45.562 40.6491C46.3758 40.623 47.1633 40.623 47.9508 40.623C50.1033 40.623 51.8883 40.8837 53.3583 41.4312C54.6708 41.8743 55.8783 42.6042 56.8758 43.5688C57.7158 44.403 58.372 45.4196 58.792 46.5406C59.1858 47.6354 59.3958 48.7564 59.3958 49.9295C59.3958 52.1713 58.8708 54.0222 57.8208 55.482C56.7708 56.9419 55.3008 58.0367 53.5945 58.6624C51.8095 59.3141 49.8408 59.5487 47.6883 59.5487C47.0583 59.5487 46.6383 59.5487 46.3758 59.5226C46.1133 59.4966 45.7458 59.4966 45.247 59.4966V67.8645C45.2733 68.047 45.142 68.2034 44.9583 68.2295C44.932 68.2295 44.9058 68.2295 44.8533 68.2295H39.8658C39.6558 68.2295 39.5508 68.1252 39.5508 67.8906ZM45.2733 45.8107V54.5696C45.6408 54.5957 45.982 54.6218 46.297 54.6218H47.6883C48.712 54.6218 49.7358 54.4654 50.707 54.1525C51.547 53.9179 52.282 53.4226 52.8595 52.7709C53.4108 52.1192 53.6733 51.2329 53.6733 50.0859C53.6995 49.2777 53.4895 48.4696 53.0695 47.7658C52.6233 47.088 51.9933 46.5666 51.232 46.2799C50.2608 45.8889 49.2108 45.7324 48.1345 45.7585C47.452 45.7585 46.8483 45.7585 46.3495 45.7846C45.8245 45.7585 45.457 45.7846 45.2733 45.8107Z" fill="#31A8FF"/>
<path d="M75.7758 52.9803C74.9883 52.5632 74.1483 52.2765 73.2558 52.094C72.2845 51.8854 71.3133 51.7551 70.3158 51.7551C69.7908 51.729 69.2395 51.8072 68.7408 51.9376C68.3995 52.0158 68.1108 52.1983 67.927 52.459C67.7958 52.6675 67.717 52.9282 67.717 53.1628C67.717 53.3974 67.822 53.632 67.9795 53.8406C68.2158 54.1273 68.5308 54.3619 68.872 54.5444C69.4758 54.8572 70.1058 55.144 70.7358 55.4047C72.1533 55.8739 73.5183 56.5256 74.7783 57.3077C75.6445 57.8551 76.3533 58.585 76.852 59.4713C77.272 60.3055 77.482 61.2179 77.4558 62.1564C77.482 63.3816 77.1145 64.6068 76.432 65.6235C75.697 66.6662 74.6733 67.4743 73.492 67.9436C72.2058 68.491 70.6308 68.7778 68.7408 68.7778C67.5333 68.7778 66.352 68.6735 65.1708 68.4389C64.252 68.2825 63.3333 67.9957 62.4933 67.6047C62.3095 67.5004 62.1783 67.3179 62.2045 67.1094V62.5735C62.2045 62.4953 62.2308 62.391 62.3095 62.3389C62.3883 62.2867 62.467 62.3128 62.5458 62.3649C63.5695 62.9645 64.6458 63.3816 65.8008 63.6423C66.7983 63.903 67.8483 64.0333 68.8983 64.0333C69.8958 64.0333 70.6045 63.903 71.077 63.6684C71.497 63.4859 71.7858 63.0427 71.7858 62.5735C71.7858 62.2085 71.5758 61.8696 71.1558 61.5307C70.7358 61.1919 69.8695 60.8008 68.5833 60.3055C67.2445 59.8363 66.0108 59.2107 64.8558 58.4286C64.042 57.8551 63.3595 57.0991 62.8608 56.2128C62.4408 55.3786 62.2308 54.4662 62.257 53.5538C62.257 52.4329 62.572 51.3641 63.1495 50.3995C63.8058 49.3568 64.777 48.5226 65.9058 48.0013C67.1395 47.3756 68.6883 47.0889 70.552 47.0889C71.6283 47.0889 72.7308 47.1671 73.807 47.3235C74.5945 47.4278 75.3558 47.6363 76.0645 47.9231C76.1695 47.9491 76.2745 48.0534 76.327 48.1577C76.3533 48.2619 76.3795 48.3662 76.3795 48.4705V52.7196C76.3795 52.8239 76.327 52.9282 76.2483 52.9803C76.012 53.0325 75.8808 53.0325 75.7758 52.9803Z" fill="#31A8FF"/>
</svg>
