<svg width="114" height="114" viewBox="0 0 114 114" fill="none" xmlns="http://www.w3.org/2000/svg">
<path d="M56.953 24.5566C40.7058 24.5566 41.7203 31.6024 41.7203 31.6024L41.7383 38.902H57.2427V41.0935H35.5802C35.5802 41.0935 25.1836 39.9144 25.1836 56.3077C25.1836 72.7015 34.258 72.1201 34.258 72.1201H39.6736V64.5128C39.6736 64.5128 39.3816 55.4384 48.6031 55.4384H63.9807C63.9807 55.4384 72.6203 55.578 72.6203 47.0885V33.0516C72.6203 33.0516 73.9325 24.5566 56.953 24.5566ZM48.4039 29.4655C48.7703 29.4652 49.1331 29.5371 49.4717 29.6771C49.8102 29.8172 50.1178 30.0226 50.3769 30.2817C50.636 30.5408 50.8414 30.8484 50.9815 31.1869C51.1215 31.5255 51.1934 31.8883 51.1931 32.2547C51.1934 32.6211 51.1215 32.9839 50.9815 33.3225C50.8414 33.661 50.636 33.9687 50.3769 34.2277C50.1178 34.4868 49.8102 34.6922 49.4717 34.8323C49.1331 34.9724 48.7703 35.0443 48.4039 35.0439C48.0375 35.0443 47.6747 34.9724 47.3361 34.8323C46.9975 34.6922 46.6899 34.4868 46.4309 34.2277C46.1718 33.9687 45.9664 33.661 45.8263 33.3225C45.6862 32.9839 45.6143 32.6211 45.6146 32.2547C45.6143 31.8883 45.6862 31.5255 45.8263 31.1869C45.9664 30.8484 46.1718 30.5408 46.4309 30.2817C46.6899 30.0226 46.9975 29.8172 47.3361 29.6771C47.6747 29.5371 48.0375 29.4652 48.4039 29.4655Z" fill="url(#paint0_linear_1169_1318)"/>
<path d="M57.4137 88.2243C73.6609 88.2243 72.6465 81.1786 72.6465 81.1786L72.6284 73.8792H57.1238V71.6877H78.7863C78.7863 71.6877 89.1829 72.8668 89.1829 56.4729C89.1829 40.0793 80.1085 40.6608 80.1085 40.6608H74.6929V48.2679C74.6929 48.2679 74.9849 57.3423 65.7634 57.3423H50.3858C50.3858 57.3423 41.7462 57.2027 41.7462 65.6924V79.7296C41.7462 79.7296 40.4342 88.2243 57.4135 88.2243H57.4137ZM65.9629 83.316C65.5965 83.3163 65.2336 83.2444 64.8951 83.1043C64.5565 82.9643 64.2489 82.7589 63.9898 82.4998C63.7308 82.2407 63.5253 81.9331 63.3853 81.5945C63.2452 81.256 63.1733 80.8931 63.1736 80.5268C63.1733 80.1604 63.2452 79.7975 63.3852 79.4589C63.5252 79.1203 63.7307 78.8127 63.9897 78.5536C64.2488 78.2945 64.5564 78.089 64.895 77.9489C65.2336 77.8089 65.5965 77.7369 65.9629 77.7373C66.3292 77.7369 66.6921 77.8089 67.0306 77.9489C67.3692 78.089 67.6768 78.2944 67.9359 78.5535C68.1949 78.8126 68.4004 79.1202 68.5404 79.4587C68.6805 79.7973 68.7524 80.1601 68.7521 80.5265C68.7524 80.8929 68.6805 81.2557 68.5404 81.5943C68.4004 81.9328 68.1949 82.2405 67.9359 82.4995C67.6768 82.7586 67.3692 82.964 67.0306 83.1041C66.6921 83.2441 66.3292 83.3161 65.9629 83.3157V83.316Z" fill="url(#paint1_linear_1169_1318)"/>
<defs>
<linearGradient id="paint0_linear_1169_1318" x1="31.334" y1="30.2831" x2="63.0504" y2="61.6831" gradientUnits="userSpaceOnUse">
<stop stop-color="#387EB8"/>
<stop offset="1" stop-color="#366994"/>
</linearGradient>
<linearGradient id="paint1_linear_1169_1318" x1="50.8009" y1="50.4468" x2="84.8607" y2="82.6447" gradientUnits="userSpaceOnUse">
<stop stop-color="#FFE052"/>
<stop offset="1" stop-color="#FFC331"/>
</linearGradient>
</defs>
</svg>
