<svg width="114" height="114" viewBox="0 0 114 114" fill="none" xmlns="http://www.w3.org/2000/svg">
<path d="M56.5925 62.3491C59.6542 62.3491 62.1362 59.8808 62.1362 56.8361C62.1362 53.7915 59.6542 51.3232 56.5925 51.3232C53.5308 51.3232 51.0488 53.7915 51.0488 56.8361C51.0488 59.8808 53.5308 62.3491 56.5925 62.3491Z" fill="#61DAFB"/>
<path fill-rule="evenodd" clip-rule="evenodd" d="M30.5262 53.9342C29.269 55.0628 28.8558 56.0467 28.8558 56.8349C28.8558 57.6231 29.269 58.6071 30.5262 59.7357C31.7825 60.8635 33.7139 61.9712 36.2719 62.9425C41.374 64.8797 48.5579 66.1197 56.5926 66.1197C64.6273 66.1197 71.8111 64.8797 76.9132 62.9425C79.4713 61.9712 81.4026 60.8635 82.6589 59.7357C83.9161 58.6071 84.3293 57.6231 84.3293 56.8349C84.3293 56.0467 83.9161 55.0628 82.6589 53.9342C81.4026 52.8064 79.4713 51.6987 76.9132 50.7274C71.8111 48.7902 64.6273 47.5501 56.5926 47.5501C48.5579 47.5501 41.374 48.7902 36.2719 50.7274C33.7139 51.6987 31.7825 52.8064 30.5262 53.9342ZM34.845 46.9693C40.5091 44.8187 48.1986 43.5303 56.5926 43.5303C64.9865 43.5303 72.676 44.8187 78.3401 46.9693C81.1651 48.042 83.5901 49.3681 85.3443 50.9428C87.0977 52.5168 88.3492 54.5042 88.3492 56.8349C88.3492 59.1657 87.0977 61.153 85.3443 62.727C83.5901 64.3018 81.1651 65.6279 78.3401 66.7006C72.676 68.8512 64.9865 70.1396 56.5926 70.1396C48.1986 70.1396 40.5091 68.8512 34.845 66.7006C32.02 65.6279 29.5951 64.3018 27.8408 62.727C26.0875 61.153 24.8359 59.1657 24.8359 56.8349C24.8359 54.5042 26.0875 52.5168 27.8408 50.9428C29.5951 49.3681 32.02 48.042 34.845 46.9693Z" fill="#61DAFB"/>
<path fill-rule="evenodd" clip-rule="evenodd" d="M46.1015 32.9399C44.4922 32.4222 43.4231 32.5557 42.7282 32.9547C42.0332 33.3537 41.3824 34.2076 41.0286 35.8525C40.6748 37.4975 40.6759 39.7131 41.1088 42.4001C41.9722 47.7596 44.4831 54.5638 48.4992 61.4813C52.5154 68.3988 57.1854 73.9633 61.4211 77.3867C63.5447 79.103 65.4737 80.2117 67.0832 80.7295C68.6925 81.2473 69.7616 81.1138 70.4565 80.7148C71.1515 80.3158 71.8023 79.4618 72.156 77.817C72.5099 76.172 72.5088 73.9563 72.0759 71.2693C71.2125 65.9098 68.7016 59.1056 64.6854 52.1881C60.6693 45.2706 55.9993 39.7061 51.7635 36.2827C49.64 34.5664 47.711 33.4577 46.1015 32.9399ZM54.2975 33.1704C59.0049 36.975 63.9734 42.9555 68.1716 50.1866C72.3698 57.4177 75.0937 64.6868 76.0533 70.6432C76.5319 73.6142 76.5895 76.3672 76.0951 78.6662C75.6005 80.9653 74.4961 83.0307 72.4749 84.1912C70.4536 85.3517 68.1027 85.2701 65.8532 84.5464C63.6039 83.8228 61.2352 82.3967 58.8872 80.499C54.1798 76.6944 49.2113 70.7139 45.0131 63.4828C40.8149 56.2518 38.091 48.9826 37.1314 43.0262C36.6527 40.0552 36.5951 37.3022 37.0896 35.0033C37.5841 32.7041 38.6886 30.6387 40.7098 29.4782C42.7311 28.3177 45.082 28.3993 47.3315 29.123C49.5808 29.8466 51.9495 31.2727 54.2975 33.1704Z" fill="#61DAFB"/>
<path fill-rule="evenodd" clip-rule="evenodd" d="M72.1566 35.8521C71.8028 34.2072 71.1521 33.3533 70.4571 32.9543C69.7622 32.5553 68.6931 32.4218 67.0838 32.9395C65.4743 33.4573 63.5453 34.566 61.4217 36.2823C57.186 39.7058 52.516 45.2702 48.4998 52.1877C44.4837 59.1052 41.9728 65.9094 41.1093 71.269C40.6764 73.956 40.6754 76.1716 41.0292 77.8166C41.383 79.4615 42.0338 80.3154 42.7288 80.7144C43.4237 81.1134 44.4927 81.2469 46.1021 80.7291C47.7116 80.2114 49.6406 79.1027 51.7641 77.3863C55.9998 73.9629 60.6699 68.3984 64.686 61.4809C68.7022 54.5634 71.213 47.7593 72.0765 42.3997C72.5094 39.7127 72.5105 37.4971 72.1566 35.8521ZM76.0539 43.0258C75.0943 48.9822 72.3704 56.2514 68.1722 63.4825C63.974 70.7136 59.0055 76.694 54.2981 80.4986C51.9501 82.3963 49.5814 83.8224 47.3321 84.5461C45.0826 85.2698 42.7316 85.3513 40.7104 84.1908C38.6892 83.0304 37.5847 80.9649 37.0902 78.6658C36.5957 76.3668 36.6533 73.6138 37.132 70.6428C38.0916 64.6865 40.8155 57.4173 45.0137 50.1862C49.2119 42.9551 54.1804 36.9747 58.8878 33.17C61.2358 31.2723 63.6044 29.8462 65.8538 29.1226C68.1033 28.3989 70.4542 28.3174 72.4754 29.4778C74.4967 30.6383 75.6011 32.7038 76.0956 35.0029C76.5901 37.3019 76.5325 40.0549 76.0539 43.0258Z" fill="#61DAFB"/>
</svg>
