<svg width="114" height="113" viewBox="0 0 114 113" fill="none" xmlns="http://www.w3.org/2000/svg">
<path d="M56.8711 34.6006C47.1375 34.6006 41.0543 39.466 38.6206 49.196C42.2711 44.3306 46.5295 42.5067 51.3959 43.7226C54.1727 44.4164 56.1573 46.431 58.3545 48.6602C61.9328 52.2914 66.0744 56.4942 75.1216 56.4942C84.8543 56.4942 90.9384 51.6287 93.3711 41.8978C89.7215 46.7633 85.4631 48.588 80.5959 47.3721C77.8199 46.6784 75.8354 44.6637 73.6382 42.4346C70.0598 38.8033 65.9174 34.6006 56.8711 34.6006ZM38.6206 56.4942C28.8879 56.4942 22.8038 61.3596 20.3711 71.0905C24.0206 66.225 28.279 64.4003 33.1463 65.6171C35.9223 66.3118 37.9068 68.3255 40.104 70.5537C43.6824 74.185 47.8248 78.3886 56.8711 78.3886C66.6047 78.3886 72.6879 73.5232 75.1216 63.7923C71.4711 68.6578 67.2127 70.4825 62.3463 69.2657C59.5695 68.5729 57.5849 66.5573 55.3877 64.3291C51.8094 60.6978 47.6678 56.4942 38.6206 56.4942Z" fill="#06B6D4"/>
</svg>
