<svg width="114" height="113" viewBox="0 0 114 113" fill="none" xmlns="http://www.w3.org/2000/svg">
<path d="M28.9902 55.4994C28.9902 66.5356 35.4034 76.072 44.703 80.5919L31.404 44.1529C29.8097 47.723 28.9872 51.5895 28.9902 55.4994ZM75.6907 54.0925C75.6907 50.6468 74.4531 48.2606 73.3916 46.4033C71.9783 44.1067 70.6542 42.1619 70.6542 39.8653C70.6542 37.3024 72.5974 34.9167 75.3353 34.9167C75.4589 34.9167 75.5761 34.9321 75.6971 34.939C70.7364 30.3947 64.1281 27.6201 56.8698 27.6201C47.13 27.6201 38.5609 32.6175 33.5758 40.1868C34.2299 40.2064 34.8469 40.2197 35.37 40.2197C38.2861 40.2197 42.8001 39.8658 42.8001 39.8658C44.303 39.7772 44.4801 41.9847 42.9794 42.1624C42.9794 42.1624 41.4685 42.3401 39.7879 42.4282L49.9405 72.6274L56.0423 54.3286L51.6981 42.4277C50.1968 42.3396 48.7745 42.1619 48.7745 42.1619C47.2721 42.0738 47.4483 39.7767 48.9506 39.8653C48.9506 39.8653 53.5548 40.2192 56.2943 40.2192C59.2099 40.2192 63.7244 39.8653 63.7244 39.8653C65.2283 39.7767 65.405 41.9842 63.9031 42.1619C63.9031 42.1619 62.3896 42.3396 60.7122 42.4277L70.7874 72.3982L73.5677 63.1053C74.7735 59.249 75.6907 56.4792 75.6907 54.0925Z" fill="#00749A"/>
<path d="M57.359 57.938L48.9941 82.2448C51.5515 82.9985 54.2038 83.3812 56.8699 83.3812C60.1165 83.3812 63.23 82.8194 66.1281 81.8008C66.0503 81.6791 65.9839 81.5505 65.9297 81.4167L57.359 57.938ZM81.3331 42.123C81.453 43.0111 81.5209 43.965 81.5209 44.9899C81.5209 47.8191 80.9925 50.9995 79.4011 54.9762L70.885 79.5987C79.1735 74.7652 84.7485 65.7853 84.7485 55.4993C84.7559 50.8239 83.581 46.2225 81.3331 42.123Z" fill="#00749A"/>
<path d="M56.8703 23C38.9507 23 24.3711 37.5789 24.3711 55.4989C24.3711 73.4211 38.9502 88 56.8703 88C74.7894 88 89.3711 73.4216 89.3711 55.4989C89.3706 37.5789 74.7894 23 56.8703 23ZM56.8703 86.5098C39.7724 86.5098 25.8613 72.5983 25.8613 55.4989C25.8613 38.4012 39.7719 24.4907 56.8703 24.4907C73.9676 24.4907 87.8778 38.4012 87.8778 55.4989C87.8778 72.5983 73.9671 86.5098 56.8703 86.5098Z" fill="#00749A"/>
</svg>
