<svg width="344" height="721" viewBox="0 0 344 721" fill="none" xmlns="http://www.w3.org/2000/svg">
<g filter="url(#filter0_f_65_1780)">
<circle cx="172" cy="549" r="112" fill="url(#paint0_radial_65_1780)"/>
</g>
<g filter="url(#filter1_f_65_1780)">
<path d="M133.548 256.089C161.109 308.93 161.109 369.071 133.548 421.912C128.168 432.227 120.868 441.38 113.095 450.036L90.9853 474.655C86.3601 479.805 90.0152 488 96.9373 488H247.063C253.985 488 257.64 479.805 253.015 474.655L230.905 450.036C223.132 441.38 215.832 432.227 210.452 421.912C182.891 369.071 182.891 308.93 210.452 256.089C215.832 245.774 223.132 236.62 230.905 227.965L253.015 203.345C257.64 198.195 253.985 190 247.063 190H96.9371C90.0149 190 86.3598 198.195 90.985 203.345L113.095 227.965C120.868 236.62 128.168 245.774 133.548 256.089Z" fill="#A9B4BA"/>
</g>
<g filter="url(#filter2_f_65_1780)">
<circle cx="172" cy="128" r="112" fill="url(#paint1_radial_65_1780)"/>
</g>
<defs>
<filter id="filter0_f_65_1780" x="0" y="377" width="344" height="344" filterUnits="userSpaceOnUse" color-interpolation-filters="sRGB">
<feFlood flood-opacity="0" result="BackgroundImageFix"/>
<feBlend mode="normal" in="SourceGraphic" in2="BackgroundImageFix" result="shape"/>
<feGaussianBlur stdDeviation="30" result="effect1_foregroundBlur_65_1780"/>
</filter>
<filter id="filter1_f_65_1780" x="53.9214" y="155" width="236.157" height="368" filterUnits="userSpaceOnUse" color-interpolation-filters="sRGB">
<feFlood flood-opacity="0" result="BackgroundImageFix"/>
<feBlend mode="normal" in="SourceGraphic" in2="BackgroundImageFix" result="shape"/>
<feGaussianBlur stdDeviation="17.5" result="effect1_foregroundBlur_65_1780"/>
</filter>
<filter id="filter2_f_65_1780" x="44" y="0" width="256" height="256" filterUnits="userSpaceOnUse" color-interpolation-filters="sRGB">
<feFlood flood-opacity="0" result="BackgroundImageFix"/>
<feBlend mode="normal" in="SourceGraphic" in2="BackgroundImageFix" result="shape"/>
<feGaussianBlur stdDeviation="8" result="effect1_foregroundBlur_65_1780"/>
</filter>
<radialGradient id="paint0_radial_65_1780" cx="0" cy="0" r="1" gradientUnits="userSpaceOnUse" gradientTransform="translate(172 468) rotate(118.327) scale(145.413)">
<stop stop-color="#939EA6"/>
<stop offset="1" stop-color="#C0C6CA"/>
</radialGradient>
<radialGradient id="paint1_radial_65_1780" cx="0" cy="0" r="1" gradientUnits="userSpaceOnUse" gradientTransform="translate(137 77) rotate(83.991) scale(152.84)">
<stop stop-color="#D9E2E9"/>
<stop offset="0.934531" stop-color="#ACB7BD"/>
</radialGradient>
</defs>
</svg>
