<svg width="63" height="54" viewBox="0 0 63 54" fill="none" xmlns="http://www.w3.org/2000/svg">
<path d="M31.5 1.5C35.4725 1.50006 38.7002 4.72768 38.7002 8.7002C38.7001 11.5399 37.0462 13.9759 34.667 15.1436C35.5718 18.6536 36.7487 21.3996 38.0889 23.3242C39.493 25.3405 40.9742 26.3265 42.4189 26.5449L42.707 26.5781L42.7197 26.5791L42.9775 26.5938C44.2773 26.6228 45.7723 26.0041 47.3213 24.5762C48.7638 23.2464 50.1558 21.2931 51.3262 18.8193C50.1407 17.7228 49.38 16.1604 49.3799 14.4004C49.3799 11.0572 52.0972 8.33984 55.4404 8.33984C58.7835 8.34008 61.5 11.0573 61.5 14.4004C61.4998 17.1264 59.693 19.3999 57.2363 20.1641L53.0322 42.043L52.7988 43.2598H52.3008C53.7148 44.1248 54.6601 45.6836 54.6602 47.46C54.6602 50.1738 52.454 52.3797 49.7402 52.3799H13.2598C10.5458 52.3798 8.33984 50.1739 8.33984 47.46C8.33987 45.6835 9.28508 44.1247 10.6992 43.2598H10.2012L9.96777 42.043L5.7627 20.1641C3.30652 19.3996 1.50017 17.1261 1.5 14.4004C1.5 11.0573 4.21659 8.34002 7.55957 8.33984C10.9028 8.33984 13.6201 11.0572 13.6201 14.4004C13.62 16.1608 12.858 17.7227 11.6719 18.8193C12.8418 21.2922 14.238 23.2449 15.6826 24.5752C17.3386 26.1 18.9304 26.7011 20.2793 26.5791L20.293 26.5781C21.8281 26.4528 23.4136 25.4746 24.9111 23.3242C26.2513 21.3997 27.4272 18.6535 28.332 15.1436C25.9531 13.9759 24.2999 11.5397 24.2998 8.7002C24.2998 4.72764 27.5274 1.5 31.5 1.5Z" fill="white" stroke="#F15A29" stroke-width="3"/>
</svg>
