<svg width="295" height="161" viewBox="0 0 295 161" fill="none" xmlns="http://www.w3.org/2000/svg">
<g clip-path="url(#clip0_786_1080)">
<g clip-path="url(#clip1_786_1080)">
<path d="M199.821 61.4709C203.764 62.796 208.513 61.918 211.089 58.4664C213.348 55.4384 212.794 51.9905 212.273 48.5103C212.006 46.7199 211.611 44.9782 211.469 43.0804C211.26 40.2917 210.866 36.8073 209.812 34.3916C209.022 32.5855 207.344 29.7773 204.635 28.4003C203.611 27.7607 202.918 27.3279 202.918 27.3279L202.545 27.0946C200.468 26.1434 198.294 25.4815 195.164 25.3413C190.036 25.1173 185.693 27.2765 183.579 29.1229C181.209 31.4358 180.169 33.8042 178.904 38.2991C178.184 40.8782 177.445 43.4535 176.893 46.0752C176.341 48.6913 175.995 51.493 176.748 54.1091C177.486 56.6724 179.25 58.2716 181.708 59.151L199.821 61.4704V61.4709Z" fill="#645D5C"/>
<path d="M205.006 29.6913C207.036 31.0748 208.543 33.3595 209.31 35.6742C210.247 38.5042 210.299 41.4466 210.675 44.3723C211.063 47.3888 211.903 50.4103 211.803 53.4717C211.715 56.2119 210.36 58.6474 207.95 60.0041C205.557 61.3505 202.637 61.4214 200.066 60.5785C198.93 60.2064 198.444 61.9935 199.573 62.3637C202.219 63.2311 205.186 63.2136 207.769 62.1369C210.569 60.9701 212.764 58.5586 213.408 55.5588C214.103 52.3196 213.273 48.8949 212.733 45.6929C212.187 42.4519 212.211 39.1424 211.33 35.9538C210.475 32.8596 208.616 29.9158 205.941 28.0926C204.954 27.4196 204.026 29.0234 205.006 29.6913H205.006Z" fill="#211715"/>
<path d="M209.022 48.9324C208.894 48.5709 208.555 47.9289 207.499 47.6725C207.013 47.5544 206.411 47.5813 205.907 47.8789C205.907 47.8789 205.609 47.9284 205.215 47.9303C204.842 47.9405 204.293 47.9766 203.736 47.9446C203.644 47.7368 203.587 47.6072 203.587 47.6072C201.781 43.5104 197.68 38.5606 195.007 36.3027C193.67 37.5057 192.347 38.7286 190.883 39.7784C189.481 40.7846 187.98 41.653 186.409 42.3695C185.241 42.9022 184.034 43.3507 182.8 43.7085C181.546 44.0728 180.303 44.2385 179.01 44.382C179.117 46.6255 179.115 48.8685 179.16 50.9296C179.207 53.0861 179.527 55.138 180.306 56.901C180.768 57.9475 181.392 58.8922 182.217 59.6971C183.782 61.2246 185.465 62.2077 187.384 62.6872V64.3642C187.4 65.3445 186.35 65.8944 185.521 66.1791C185.544 67.2881 185.676 69.2927 185.87 71.7056C187.94 72.3772 190.147 72.6327 192.344 72.4957C194.567 72.4726 196.763 72.0518 198.795 71.215C199.645 69.2205 200.443 67.3089 201.158 65.5602C200.575 65.1668 200.112 64.7206 199.91 64.2309C199.7 63.7305 199.583 63.1978 199.503 62.6618C199.4 61.9434 199.362 61.4606 199.332 60.5895V60.1799L200.381 59.3805C201.236 58.6409 201.946 57.8665 202.617 57.0408C202.617 57.0408 203.275 56.1979 203.565 55.7087C203.565 55.7087 203.642 55.58 203.761 55.38C204.637 55.5522 205.629 55.3125 206.028 55.1176C207.296 54.495 207.953 53.5059 208.389 52.7889C209.009 51.7753 209.402 50.0136 209.022 48.9324Z" fill="white"/>
<path d="M186.457 64.3642C186.451 64.4647 186.452 64.4813 186.462 64.4138C186.474 64.348 186.47 64.3619 186.451 64.4563L186.428 64.535C186.468 64.4526 186.473 64.4415 186.443 64.5008C186.411 64.5609 186.378 64.6183 186.339 64.6748C186.413 64.5665 186.351 64.6586 186.3 64.7081C186.249 64.7567 186.199 64.8053 186.146 64.8512C186.279 64.7368 186.071 64.9002 186.056 64.9099C185.934 64.9891 185.806 65.0594 185.676 65.1238C185.657 65.133 185.449 65.2284 185.551 65.1844C185.652 65.1404 185.446 65.2247 185.426 65.2321C185.299 65.2798 185.18 65.3251 185.052 65.3802C184.892 65.4496 185.15 65.3418 185.038 65.3867C184.759 65.4982 184.479 65.6047 184.196 65.7061C182.949 66.1536 181.673 66.5258 180.439 67.0109C179.973 67.1937 179.649 67.6311 179.792 68.1495C179.914 68.5925 180.463 68.9799 180.931 68.7961C182.305 68.256 183.73 67.8574 185.112 67.3363C185.264 67.2789 185.415 67.2196 185.566 67.1576C185.674 67.1132 185.78 67.0622 185.89 67.0215C185.95 66.9951 185.935 67.0035 185.842 67.046C185.881 67.0322 185.92 67.0178 185.958 67.003C186.313 66.8748 186.674 66.7151 186.991 66.5091C187.751 66.0166 188.294 65.2974 188.309 64.3647C188.317 63.8643 187.877 63.439 187.383 63.439C186.874 63.439 186.465 63.8625 186.457 64.3642Z" fill="#211715"/>
<path d="M192.457 49.2425C192.33 48.5311 192.662 46.9717 193.977 46.9971C195.693 47.2188 195.55 49.136 194.861 49.9613C194.298 50.6371 192.869 50.7708 192.457 49.2425Z" fill="#211715"/>
<path d="M182.224 48.3085C182.113 47.5966 182.43 46.0302 183.635 46.0455C185.206 46.2538 185.059 48.177 184.422 49.0097C183.9 49.6915 182.589 49.8368 182.224 48.3085H182.224Z" fill="#211715"/>
<path d="M187.156 50.3102C186.901 50.6629 186.654 51.023 186.433 51.397C186.334 51.5641 186.235 51.7446 186.203 51.9377C186.169 52.151 186.153 52.345 186.221 52.5547C186.288 52.7578 186.404 52.9328 186.555 53.0828C186.748 53.273 186.964 53.3961 187.219 53.4818C187.301 53.5091 187.387 53.5169 187.47 53.5368C187.709 53.5938 187.969 53.5692 188.184 53.4433C188.376 53.3309 188.559 53.111 188.609 52.8902C188.664 52.6532 188.652 52.3871 188.516 52.177C188.388 51.9779 188.199 51.8081 187.962 51.7516C187.864 51.728 187.765 51.7187 187.671 51.6812L187.892 51.7747C187.838 51.7516 187.791 51.7229 187.744 51.6877L187.931 51.8326C187.882 51.7919 187.838 51.7474 187.797 51.6988L187.942 51.8863C187.931 51.8729 187.922 51.858 187.914 51.8418L188.008 52.0631C187.998 52.0381 187.993 52.0168 187.989 51.99L188.022 52.2362C188.02 52.2191 188.02 52.2015 188.022 52.1844L187.989 52.4306C187.996 52.3839 188.008 52.3408 188.025 52.2968L187.931 52.5181C188.034 52.2802 188.198 52.058 188.341 51.8432C188.476 51.6419 188.613 51.4424 188.754 51.2457C188.887 51.0615 188.906 50.7421 188.848 50.5324C188.789 50.3176 188.623 50.0848 188.422 49.9793C188.207 49.8659 187.947 49.809 187.709 49.8858L187.487 49.9793C187.348 50.0617 187.237 50.1723 187.155 50.3116L187.156 50.3102Z" fill="#211715"/>
<path d="M202.765 55.2416C202.497 55.6865 202.178 56.0998 201.864 56.5122C202.126 56.1683 201.877 56.4895 201.814 56.5668C201.698 56.7066 201.581 56.845 201.462 56.9815C201.197 57.2866 200.923 57.5842 200.639 57.8712C200.498 58.0128 200.356 58.1521 200.21 58.2887C200.131 58.3627 200.052 58.4359 199.972 58.5081C199.931 58.5446 199.891 58.5807 199.849 58.6168C199.748 58.7029 199.768 58.6909 199.911 58.5817C199.804 58.6316 199.704 58.7168 199.606 58.7811L198.77 59.3259C198.365 59.5902 198.157 60.1582 198.437 60.5923C198.698 60.9969 199.27 61.2075 199.704 60.9247L200.573 60.3586C201.082 60.0267 201.521 59.6115 201.948 59.1801C202.84 58.2794 203.708 57.2662 204.364 56.1757C204.613 55.7601 204.47 55.1407 204.031 54.9093C203.583 54.6723 203.03 54.7978 202.764 55.2416H202.765Z" fill="#211715"/>
<path d="M195.828 61.0316C192.447 62.2314 188.621 62.7081 185.353 60.9104C183.82 60.067 182.422 58.8497 181.551 57.32C180.68 55.7902 180.294 54.0156 180.154 52.2757C179.949 49.7424 180.056 47.181 179.949 44.6417C179.899 43.4545 178.047 43.4485 178.097 44.6417C178.2 47.0875 178.116 49.5476 178.28 51.9901C178.419 54.0484 178.826 56.1091 179.786 57.9518C181.596 61.4255 185.421 63.6116 189.255 63.9185C191.668 64.1115 194.055 63.6209 196.321 62.8169C197.437 62.4212 196.956 60.6317 195.828 61.0316Z" fill="#211715"/>
<path d="M206.374 48.6778C206.809 48.4408 207.304 48.5144 207.674 48.7134C207.731 48.7444 207.787 48.7782 207.841 48.8143C207.778 48.7583 207.785 48.7643 207.864 48.8324C207.901 48.8657 208.111 49.1166 207.978 48.9309C208.03 49.0027 208.07 49.0791 208.116 49.154C208.243 49.3628 208.11 49.0675 208.128 49.1781C208.149 49.2994 208.201 49.4183 208.223 49.5405C208.243 49.6525 208.245 49.6692 208.23 49.5901C208.236 49.6586 208.24 49.7271 208.243 49.796C208.248 49.9386 208.244 50.0812 208.236 50.2237C208.231 50.2969 208.225 50.37 208.218 50.4431C208.207 50.5616 208.203 50.5903 208.206 50.5292C208.126 51.0559 207.959 51.6174 207.754 52.0238C207.305 52.9157 206.758 53.6295 205.892 54.1405C205.768 54.2136 205.641 54.2802 205.511 54.3423C205.761 54.2228 205.468 54.3478 205.41 54.3649C205.302 54.3973 205.191 54.4251 205.081 54.4483C205.047 54.4557 204.717 54.5052 204.851 54.4904C204.579 54.5205 204.29 54.532 204.018 54.4941C204.09 54.502 204.068 54.4959 203.952 54.477C203.884 54.4621 203.816 54.4446 203.75 54.4242C203.639 54.3899 203.643 54.3913 203.499 54.3085C202.463 53.7151 201.529 55.3138 202.564 55.9072C203.573 56.4853 204.889 56.4816 205.977 56.1275C207.114 55.7577 208.025 54.9102 208.721 53.966C209.363 53.0939 209.815 52.0937 209.993 51.0217C210.163 49.9937 210.179 48.8185 209.534 47.94C208.611 46.6828 206.792 46.3431 205.439 47.08C204.392 47.6507 205.326 49.2499 206.374 48.6787L206.374 48.6778Z" fill="#211715"/>
<path d="M186.997 57.193C187.678 57.6101 188.505 57.785 189.293 57.8299C189.689 57.8526 190.086 57.8193 190.476 57.7462C190.869 57.673 191.224 57.4897 191.595 57.3513C192.048 57.1824 192.406 56.7177 192.242 56.2127C192.099 55.7702 191.589 55.3846 191.103 55.5661C190.764 55.6924 190.438 55.8605 190.084 55.9405C190.017 55.9558 189.947 55.9618 189.881 55.9785C189.912 55.9706 190.098 55.9544 189.968 55.9655C189.922 55.9692 189.877 55.9739 189.831 55.9771C189.671 55.9878 189.51 55.9887 189.35 55.9813C189.273 55.978 189.196 55.9725 189.119 55.9651C189.081 55.9614 189.041 55.9526 189.003 55.953C189.043 55.953 189.204 55.9845 189.076 55.9628C188.916 55.9354 188.756 55.9058 188.599 55.8646C188.448 55.8253 188.302 55.7762 188.156 55.7216C188.036 55.6767 188.211 55.7364 188.234 55.7545C188.204 55.7304 188.155 55.7179 188.121 55.7003C188.056 55.6675 187.994 55.6318 187.932 55.5943C187.519 55.3407 186.895 55.4911 186.665 55.9267C186.426 56.3784 186.556 56.9227 186.998 57.193H186.997Z" fill="#211715"/>
<path d="M204.259 55.4392C203.446 55.4392 202.885 56.0104 202.885 56.6788C202.885 57.4267 203.459 57.9414 204.259 57.9414C205.09 57.9414 205.633 57.4216 205.633 56.6788C205.633 56.0058 205.069 55.4392 204.259 55.4392Z" fill="white"/>
<path d="M204.26 54.5135C203.81 54.519 203.325 54.6306 202.95 54.8898C202.528 55.1805 202.236 55.5521 202.062 56.0345C201.92 56.4293 201.927 56.9296 202.054 57.3272C202.208 57.8077 202.5 58.184 202.908 58.4737C203.635 58.9889 204.688 58.9759 205.459 58.576C206.312 58.1331 206.672 57.1555 206.513 56.2446C206.437 55.8086 206.171 55.3638 205.828 55.0847C205.374 54.7158 204.85 54.5204 204.261 54.5135C203.776 54.5075 203.312 54.9435 203.335 55.4392C203.357 55.9456 203.742 56.3585 204.261 56.3649C204.329 56.3659 204.397 56.3696 204.465 56.3774L204.218 56.3446C204.358 56.3635 204.492 56.3983 204.622 56.452L204.401 56.3585C204.51 56.4066 204.611 56.4663 204.705 56.539L204.518 56.3941C204.598 56.4594 204.669 56.5311 204.733 56.6116L204.588 56.4242C204.649 56.5052 204.699 56.5913 204.741 56.6838L204.647 56.4626C204.686 56.557 204.713 56.6528 204.729 56.7533L204.696 56.507C204.712 56.6237 204.711 56.7394 204.698 56.8565L204.731 56.6103C204.715 56.7223 204.688 56.8301 204.647 56.9356L204.74 56.7144C204.698 56.8139 204.645 56.9056 204.579 56.9916L204.724 56.8042C204.663 56.8796 204.595 56.9463 204.518 57.0065L204.705 56.8616C204.615 56.9287 204.519 56.9829 204.416 57.0268L204.637 56.9333C204.512 56.9829 204.384 57.0148 204.251 57.0333L204.498 57.0004C204.341 57.019 204.184 57.019 204.028 57.0004L204.274 57.0333C204.141 57.0139 204.014 56.981 203.889 56.931L204.111 57.0245C204.006 56.9792 203.909 56.9236 203.818 56.8551L204.005 57C203.927 56.938 203.858 56.8695 203.795 56.7917L203.94 56.9792C203.88 56.8995 203.83 56.8153 203.789 56.7246L203.883 56.9458C203.838 56.8389 203.809 56.7297 203.793 56.6149L203.826 56.8611C203.812 56.7431 203.811 56.6265 203.826 56.5089L203.793 56.7551C203.809 56.6547 203.836 56.5589 203.875 56.4654L203.781 56.6866C203.822 56.5941 203.872 56.5084 203.933 56.4274L203.788 56.6149C203.852 56.5339 203.923 56.4617 204.003 56.3969L203.816 56.5417C203.91 56.4686 204.011 56.4089 204.121 56.3608L203.899 56.4543C204.03 56.4001 204.164 56.3654 204.303 56.3464L204.057 56.3793C204.125 56.3719 204.193 56.3677 204.261 56.3668C204.746 56.3608 205.21 55.9451 205.188 55.4411C205.165 54.9444 204.781 54.5089 204.261 54.5153L204.26 54.5135Z" fill="#211715"/>
<path d="M181.954 58.2586C180.629 57.7735 179.372 56.9848 178.557 55.8096C177.533 54.3335 177.232 52.4978 177.241 50.7338C177.251 48.6861 177.68 46.6718 178.153 44.6889C178.653 42.593 179.24 40.5175 179.826 38.4444C180.636 35.5742 181.566 32.6563 183.619 30.4119C185.626 28.2184 188.722 27.0131 191.591 26.497C193.656 26.1253 195.821 26.1804 197.881 26.5623C199.426 26.8488 201.107 27.289 202.451 28.1281C203.464 28.7613 204.395 27.1603 203.386 26.5294C202.085 25.7171 200.478 25.2315 198.988 24.902C196.943 24.4493 194.791 24.2785 192.705 24.4877C189.269 24.8321 185.705 26.0804 183.058 28.3554C180.563 30.4984 179.303 33.7264 178.38 36.7864C177.716 38.9859 177.108 41.2095 176.553 43.4387C176.01 45.6178 175.507 47.8423 175.406 50.0932C175.304 52.3441 175.637 54.7765 176.916 56.6811C178.014 58.316 179.635 59.3754 181.463 60.0443C182.584 60.4548 183.068 58.6663 181.955 58.259L181.954 58.2586Z" fill="#211715"/>
<path d="M194.385 35.6177C192.178 37.6047 189.976 39.4891 187.335 40.8841C184.723 42.2639 181.965 43.1234 179.032 43.4535C178.535 43.5095 178.105 43.839 178.105 44.3792C178.105 44.836 178.532 45.3614 179.032 45.3049C180.604 45.1281 182.15 44.8939 183.661 44.4144C185.183 43.9311 186.669 43.3137 188.086 42.5791C190.937 41.1017 193.324 39.0623 195.695 36.9271C196.582 36.1278 195.269 34.822 194.385 35.6181L194.385 35.6177Z" fill="#211715"/>
<path d="M194.384 36.9849C196.073 38.4309 197.565 40.1245 198.931 41.8746C200.425 43.7895 201.794 45.852 202.786 48.0746C202.99 48.5315 203.656 48.6393 204.054 48.407C204.524 48.132 204.59 47.5988 204.386 47.1406C203.351 44.823 201.904 42.7073 200.352 40.7091C198.953 38.9081 197.43 37.1622 195.694 35.6769C194.792 34.9058 193.476 36.2096 194.384 36.9859V36.9849Z" fill="#211715"/>
<path d="M198.405 60.5894C198.441 61.6151 198.51 62.6612 198.753 63.6619C198.878 64.1766 199.052 64.7177 199.372 65.1458C199.741 65.6383 200.189 66.0174 200.696 66.3636C201.097 66.6376 201.741 66.4525 201.963 66.0313C202.211 65.5615 202.059 65.057 201.631 64.7649C201.582 64.732 201.535 64.6982 201.487 64.6654C201.431 64.627 201.392 64.5978 201.469 64.6566C201.382 64.5899 201.298 64.5182 201.217 64.4441C201.14 64.3738 201.065 64.3006 200.994 64.2233C200.96 64.1863 200.929 64.1465 200.895 64.1099C200.945 64.1632 200.964 64.209 200.908 64.1238C200.856 64.0461 200.81 63.9674 200.765 63.8855C200.72 63.8049 200.743 63.8345 200.768 63.9007C200.747 63.8443 200.725 63.7883 200.705 63.7318C200.62 63.4906 200.553 63.2435 200.499 62.9935C200.45 62.7635 200.412 62.5311 200.379 62.2983C200.358 62.1567 200.397 62.4561 200.382 62.3196C200.376 62.2715 200.37 62.2233 200.364 62.1756C200.353 62.0821 200.343 61.9882 200.334 61.8942C200.292 61.4605 200.273 61.025 200.257 60.5899C200.241 60.1067 199.843 59.641 199.331 59.6642C198.844 59.6859 198.387 60.0715 198.405 60.5899L198.405 60.5894Z" fill="#211715"/>
<path d="M199.555 69.4196C200.132 68.0495 200.678 66.7327 201.184 65.4968C207.109 68.224 214.366 70.2638 217.58 76.5157C219.522 80.2931 219.669 85.3008 219.58 89.6027C219.387 98.9677 218.118 108.307 215.795 117.343C199.984 117.343 173.711 117.343 173.711 117.343C173.58 112.985 173.433 108.627 173.27 104.269C172.96 104.449 172.798 104.545 172.798 104.545C169.695 106.369 165.925 106.341 163.683 105.462C161.103 104.453 158.028 101.264 156.361 99.051C153.369 95.0751 151.345 91.8767 148.969 88.0211C151.405 85.9104 156.05 82.1427 157.861 80.8189C159.047 82.226 163.076 86.8037 164.1 87.91C164.1 87.91 164.315 88.1428 164.531 88.3756L165.119 87.3129C167.28 83.4082 168.911 78.9022 171.201 74.9735C174.435 69.4288 179.683 67.9847 185.517 65.9564C185.542 69.6899 187.22 87.0079 187.876 90.7668H189.686C192.913 84.6829 196.628 76.3662 199.554 69.42L199.555 69.4196Z" fill="white"/>
<path d="M191.747 86.7219C194.135 81.8706 196.636 76.276 198.794 71.2151C196.762 72.0519 194.567 72.4727 192.343 72.4963C190.173 72.6314 187.994 72.3843 185.946 71.7316L185.869 71.709C186.403 78.3422 187.404 88.0628 187.876 90.7668H189.686C190.356 89.5041 191.047 88.1452 191.747 86.7223L191.747 86.7219Z" fill="#096FCA"/>
<path d="M200.21 65.4472C197.49 72.0786 194.63 78.6624 191.505 85.1137C190.66 86.8564 189.793 88.5875 188.887 90.2987L189.687 89.84H187.876L188.77 90.5195C188.558 89.2966 188.471 88.4709 188.316 87.1698C188.109 85.4266 187.922 83.6807 187.742 81.9343C187.349 78.1129 186.988 74.2869 186.698 70.4558C186.59 69.0325 186.478 67.6055 186.447 66.1781C186.421 64.9885 184.568 64.9843 184.594 66.1781C184.661 69.2366 184.981 72.3003 185.254 75.3455C185.598 79.1627 185.973 82.9781 186.418 86.7847C186.583 88.195 186.741 89.6114 186.983 91.011C187.051 91.4059 187.498 91.6905 187.876 91.6905H189.687C190.002 91.6905 190.336 91.517 190.487 91.2318C193.898 84.7879 196.861 78.1009 199.715 71.3959C200.487 69.5815 201.249 67.7624 201.997 65.9383C202.187 65.4754 201.791 64.9205 201.35 64.7997C200.819 64.6539 200.401 64.9816 200.211 65.4463L200.21 65.4472Z" fill="#211715"/>
<path d="M180.509 69.4663C179.849 70.3231 178.529 71.6015 179.192 72.7513C179.666 73.5733 180.421 74.2495 180.847 75.098L180.72 74.6309C180.704 74.5037 181.023 74.237 180.739 74.5638L180.396 74.9568L179.449 76.0436C179.28 76.2384 179.103 76.4292 178.939 76.6286C178.438 77.2396 178.595 77.839 178.759 78.5393C179.44 81.4401 180.12 84.3413 180.8 87.243C181.072 88.4025 182.859 87.9118 182.587 86.751C182.155 84.9088 181.723 83.067 181.291 81.2249C181.101 80.4144 180.911 79.6035 180.721 78.793C180.648 78.4824 180.575 78.1718 180.502 77.8612C180.483 77.783 180.465 77.7048 180.447 77.6266C180.409 77.3706 180.345 77.4729 180.253 77.9335C180.284 77.92 180.314 77.858 180.338 77.8362C181.005 77.2355 181.579 76.4352 182.158 75.7474C183.402 74.269 181.309 72.9392 180.722 71.6654L180.848 72.1324C180.842 71.9843 181.32 71.465 181.419 71.327C181.642 71.0132 181.873 70.7059 182.108 70.4008C182.413 70.0042 182.168 69.364 181.775 69.1345C181.297 68.8549 180.814 69.0692 180.508 69.4668L180.509 69.4663Z" fill="#211715"/>
<path d="M203.686 69.8653C204.214 70.7457 204.652 71.6663 204.95 72.6494C204.95 72.6476 205.084 73.1331 205.093 73.1313C205.239 72.8943 205.202 72.8452 204.98 72.9831C204.851 73.0313 204.722 73.0794 204.593 73.1276C204.138 73.2979 203.684 73.4705 203.236 73.658C202.307 74.0463 202.047 75.0743 202.686 75.8561C202.978 76.2125 203.289 76.5546 203.586 76.9073C203.886 77.2637 204.309 77.6275 204.537 78.033L204.41 77.5659C204.412 77.6011 204.043 78.0367 203.993 78.1075C203.832 78.3403 203.671 78.5731 203.511 78.8069C203.234 79.2114 202.958 79.6178 202.684 80.0247C202.101 80.8902 201.523 81.7604 200.947 82.6306C199.751 84.4376 198.555 86.2441 197.324 88.028C196.646 89.0111 198.25 89.9382 198.924 88.9625C200.609 86.52 202.226 84.0321 203.876 81.5664C204.265 80.9856 204.657 80.4056 205.052 79.8289C205.435 79.2688 206.064 78.6338 206.239 77.9691C206.436 77.2253 205.851 76.7147 205.417 76.2111C205.176 75.9316 204.939 75.6478 204.701 75.3655C204.593 75.2377 204.485 75.1095 204.376 74.9827L204.249 74.8337C204.088 74.6022 204.066 74.6467 204.183 74.9684L203.945 75.3771C204.043 75.2553 204.57 75.1081 204.791 75.0244C205.143 74.8915 205.5 74.7684 205.849 74.6286C206.52 74.3597 206.96 73.7931 206.937 73.053C206.915 72.3717 206.579 71.6307 206.323 71.0086C206.027 70.2902 205.686 69.5987 205.287 68.9317C204.675 67.9106 203.072 68.8405 203.687 69.8662L203.686 69.8653Z" fill="#211715"/>
<path d="M185.7 72.6239C187.907 73.3112 190.152 73.4968 192.451 73.42C194.715 73.3441 196.926 72.9613 199.033 72.111C199.496 71.924 199.823 71.494 199.68 70.9724C199.559 70.5327 199.007 70.1374 198.54 70.3258C196.58 71.1168 194.559 71.4977 192.451 71.5685C190.303 71.6403 188.256 71.4811 186.193 70.8386C185.053 70.4831 184.564 72.2698 185.701 72.6239H185.7Z" fill="#211715"/>
<path d="M203.972 67.7139C208.447 69.6084 213.444 71.639 216.166 75.914C217.635 78.2204 218.246 80.9476 218.498 83.641C218.772 86.5672 218.691 89.5244 218.562 92.4562C218.397 96.2114 218.062 99.9605 217.547 103.684C217.479 104.179 217.667 104.678 218.194 104.822C218.627 104.941 219.265 104.674 219.334 104.176C219.814 100.702 220.163 97.2125 220.353 93.7105C220.524 90.5598 220.642 87.3763 220.4 84.226C220.175 81.304 219.636 78.331 218.213 75.7344C216.953 73.4372 215.054 71.5931 212.903 70.1291C210.429 68.4457 207.65 67.277 204.907 66.1156C204.446 65.9208 203.915 65.9777 203.639 66.448C203.412 66.8363 203.508 67.5181 203.972 67.7139Z" fill="#211715"/>
<path d="M171.687 88.6282C172.13 98.1965 172.496 107.768 172.784 117.343C172.82 118.531 174.673 118.536 174.637 117.343C174.348 107.768 173.983 98.1965 173.539 88.6282C173.484 87.4419 171.632 87.4349 171.687 88.6282Z" fill="#211715"/>
<path d="M184.161 65.4464C180.768 66.6096 177.267 67.7607 174.391 69.9727C171.069 72.5263 169.332 76.2986 167.62 80.0145C166.563 82.3117 165.54 84.6278 164.32 86.8449C163.745 87.8896 165.344 88.8251 165.92 87.7795C168.016 83.9692 169.524 79.8682 171.643 76.07C172.527 74.4875 173.574 73.073 174.953 71.8857C176.191 70.8202 177.631 70.0042 179.11 69.3215C180.904 68.4934 182.787 67.8713 184.654 67.2312C185.775 66.847 185.294 65.0576 184.162 65.4459L184.161 65.4464Z" fill="#211715"/>
<path d="M164.755 87.2549C162.622 84.9438 160.545 82.567 158.516 80.1638C158.276 79.8796 157.701 79.7935 157.394 80.0189C154.261 82.3171 151.251 84.8248 148.314 87.3659C148.012 87.6265 147.965 88.1574 148.169 88.4879C150.683 92.5671 153.236 96.6958 156.266 100.42C157.599 102.058 159.108 103.567 160.797 104.838C162.377 106.027 164.081 106.735 166.054 106.921C168.538 107.155 171.104 106.585 173.265 105.344C174.298 104.75 173.366 103.15 172.33 103.745C170.574 104.754 168.565 105.204 166.546 105.105C164.806 105.019 163.34 104.413 161.942 103.395C158.566 100.937 156.142 97.3415 153.838 93.9284C152.427 91.8386 151.091 89.6997 149.768 87.5534L149.623 88.6754C152.441 86.238 155.323 83.8227 158.328 81.6181L157.206 81.4733C159.234 83.8764 161.311 86.2532 163.444 88.5643C164.254 89.4419 165.562 88.1301 164.754 87.2553L164.755 87.2549Z" fill="#211715"/>
<path d="M147.478 70.4795C147.475 70.5952 147.47 70.7554 147.465 70.9489C147.222 70.9081 146.943 70.8952 146.626 70.9174C144.667 71.0549 142.73 71.9926 142.912 72.9762C142.95 73.4784 143.184 73.8732 143.757 74.5337C143.51 74.9508 143.514 75.9672 143.82 76.1056L144.191 76.5518C143.599 76.5518 143.2 76.8365 142.985 77.235C142.592 77.9621 142.979 78.8712 143.75 79.1693L143.988 79.2614C143.911 79.2549 143.834 79.2484 143.834 79.2484C142.987 79.1785 142.084 80.1408 142.33 80.8337C142.514 81.3503 143.05 81.7396 143.572 81.9807C144.77 83.3207 146.26 84.3968 147.905 85.1194C148.304 85.2948 148.713 85.4494 149.104 85.641C149.4 85.7859 149.686 85.9511 149.958 86.1358C150.772 86.6871 151.849 86.6732 152.656 86.1117C153.969 85.1981 155.363 84.096 156.581 83.067C157.059 82.6634 157.238 82.008 157.039 81.4155C155.884 77.9686 154.882 74.7304 154.002 73.9186C152.78 72.791 151.458 72.4944 150.763 71.1169C150.28 70.1592 149.399 68.966 148.304 69.1793C147.578 69.3205 147.498 69.9227 147.485 70.2685C147.485 70.2685 147.482 70.3439 147.478 70.4795H147.478Z" fill="white"/>
<path d="M145.636 80.912C145.669 80.9398 145.784 81.0689 145.674 80.9351C145.542 80.7741 145.716 81.0698 145.64 80.8796C145.576 80.7213 145.641 80.8981 145.652 80.9421C145.658 80.9643 145.659 80.9907 145.667 81.012C145.701 81.1041 145.657 80.8106 145.654 80.9106C145.652 81.0092 145.643 81.1342 145.653 81.2318C145.633 81.0388 145.686 81.0453 145.665 81.1295C145.659 81.1522 145.655 81.1758 145.649 81.1985C145.638 81.2429 145.564 81.4438 145.633 81.279C145.703 81.1106 145.62 81.2675 145.613 81.2957C145.599 81.355 145.679 81.2041 145.691 81.1967C145.667 81.2119 145.639 81.255 145.616 81.2767C145.596 81.2962 145.572 81.3138 145.553 81.3341C145.488 81.4012 145.621 81.2804 145.626 81.2795C145.56 81.2953 145.481 81.3735 145.42 81.4059C145.392 81.4202 145.364 81.4323 145.337 81.4466C145.244 81.4961 145.416 81.4063 145.416 81.4133C145.416 81.4318 145.239 81.4697 145.211 81.4767C145.189 81.4818 145.139 81.4841 145.122 81.4966C145.123 81.4957 145.32 81.4813 145.221 81.4846C145.141 81.4869 145.063 81.4855 144.984 81.486C144.877 81.4873 145.041 81.4984 145.049 81.4989C145.003 81.4966 144.949 81.4822 144.905 81.4735C144.834 81.4586 144.763 81.4415 144.692 81.4221C144.526 81.3763 144.365 81.3165 144.205 81.255C144.162 81.2388 144.04 81.2078 144.221 81.2633C144.187 81.2527 144.153 81.2337 144.12 81.2189C144.062 81.193 144.004 81.1666 143.947 81.1383C143.806 81.0684 143.668 80.9898 143.538 80.9009C143.512 80.8828 143.487 80.8634 143.46 80.8458C143.377 80.7893 143.522 80.8902 143.523 80.8939C143.508 80.8509 143.393 80.7787 143.361 80.7477C143.334 80.7208 143.214 80.5699 143.291 80.682C143.365 80.7893 143.305 80.7009 143.291 80.6796C143.265 80.638 143.238 80.5973 143.214 80.5537C143.202 80.532 143.191 80.4936 143.174 80.4755C143.166 80.4667 143.252 80.6482 143.216 80.5672C143.198 80.5274 143.192 80.4204 143.208 80.5815C143.225 80.7491 143.213 80.6463 143.215 80.6158C143.216 80.5968 143.219 80.5667 143.216 80.5477C143.202 80.4718 143.2 80.6727 143.196 80.6796C143.214 80.644 143.247 80.5385 143.247 80.4964C143.247 80.507 143.151 80.6681 143.203 80.6042C143.227 80.5746 143.244 80.5255 143.264 80.4931C143.276 80.4727 143.297 80.4501 143.306 80.4283C143.339 80.3427 143.187 80.5533 143.256 80.4899C143.308 80.4422 143.351 80.383 143.403 80.3339C143.423 80.3154 143.443 80.2978 143.463 80.2797C143.556 80.195 143.437 80.3131 143.404 80.3242C143.466 80.3029 143.53 80.2418 143.589 80.2103C143.613 80.1978 143.639 80.1876 143.662 80.1742C143.755 80.1205 143.461 80.2339 143.615 80.1987C143.659 80.1885 143.859 80.1515 143.697 80.1682C143.528 80.1853 143.787 80.1714 143.833 80.1742C144.318 80.2024 144.781 79.7285 144.76 79.2485C144.736 78.7227 144.352 78.3528 143.833 78.3228C142.956 78.2718 142.085 78.8393 141.651 79.5803C141.405 80.0016 141.316 80.4714 141.404 80.95C141.485 81.3911 141.794 81.8229 142.119 82.1205C142.443 82.4182 142.816 82.6542 143.219 82.831C143.662 83.0264 144.111 83.2161 144.593 83.2879C145.163 83.3726 145.659 83.311 146.188 83.0819C146.597 82.9046 146.993 82.6005 147.224 82.2136C147.665 81.473 147.652 80.1881 146.946 79.6026C146.573 79.2938 145.996 79.2105 145.636 79.6026C145.322 79.9437 145.238 80.582 145.636 80.912Z" fill="#211715"/>
<path d="M144.976 75.7265C144.335 75.5821 143.694 75.5876 143.095 75.882C142.58 76.1352 142.227 76.6008 142.026 77.1262C141.843 77.6066 141.794 78.1704 141.912 78.6731C141.979 78.9554 142.11 79.2225 142.307 79.4372C142.401 79.5395 142.509 79.6349 142.629 79.7052C142.695 79.7437 142.764 79.7705 142.836 79.8001C142.904 79.8297 142.972 79.858 143.041 79.8844C142.988 79.8612 142.991 79.8621 143.048 79.8871C143.904 80.2565 144.764 80.6013 145.629 80.9508C145.963 81.086 146.308 81.2299 146.666 81.2873C147.252 81.3813 147.849 81.2304 148.345 80.9027C148.945 80.5064 149.296 79.9242 149.347 79.2077C149.397 78.5106 149.064 77.8144 148.536 77.3692C148.166 77.0572 147.583 76.9794 147.226 77.3692C146.91 77.7131 146.83 78.3449 147.226 78.6781C147.303 78.7429 147.371 78.8138 147.442 78.885C147.532 78.9767 147.393 78.7716 147.434 78.8846C147.445 78.9128 147.471 78.9554 147.488 78.9799C147.331 78.7587 147.567 79.0387 147.507 79.0799C147.49 79.0919 147.512 78.8818 147.495 78.9924C147.489 79.0359 147.496 79.104 147.498 79.147C147.505 79.3002 147.558 78.961 147.494 79.1618C147.485 79.1873 147.477 79.216 147.471 79.2424C147.435 79.4053 147.487 79.1614 147.506 79.1697C147.509 79.1711 147.435 79.297 147.44 79.2859C147.449 79.2678 147.55 79.1748 147.475 79.2345C147.439 79.2637 147.404 79.3016 147.37 79.3349C147.289 79.4155 147.485 79.2771 147.377 79.3243C147.298 79.359 147.222 79.4141 147.143 79.4521C147.33 79.3613 147.064 79.4641 147.013 79.478C146.836 79.5266 147.144 79.4706 147.006 79.4766C146.841 79.484 147.242 79.5358 147.049 79.4817C146.775 79.4048 146.508 79.3183 146.242 79.2137C145.96 79.1021 145.681 78.9804 145.401 78.8651C145.311 78.8281 145.221 78.7911 145.129 78.7596C145.067 78.7388 145.005 78.7217 144.943 78.7013C144.886 78.6823 144.829 78.6619 144.772 78.6407C144.745 78.6309 144.561 78.5546 144.701 78.6147C144.503 78.5296 144.31 78.4351 144.114 78.3467C143.989 78.2903 143.863 78.2366 143.736 78.1833C143.671 78.1556 143.597 78.1301 143.533 78.0986C143.769 78.2148 143.437 78.0241 143.616 78.1463C143.795 78.2676 143.515 78.0598 143.674 78.1995C143.754 78.269 143.713 78.2486 143.689 78.2032C143.811 78.431 143.727 78.2491 143.698 78.181C143.654 78.0764 143.689 78.3611 143.706 78.2449C143.71 78.2162 143.702 78.1792 143.701 78.15C143.7 78.107 143.701 78.0639 143.704 78.0213C143.706 77.969 143.762 77.8339 143.708 77.9501C143.662 78.0487 143.702 77.9862 143.713 77.9454C143.728 77.8945 143.737 77.8422 143.753 77.7913C143.761 77.7617 143.772 77.7325 143.781 77.7029C143.833 77.5247 143.712 77.8103 143.767 77.7353C143.789 77.7057 143.806 77.6677 143.824 77.6349C143.904 77.4863 143.836 77.6751 143.797 77.658C143.798 77.6585 143.852 77.5983 143.856 77.5937C143.981 77.4358 143.838 77.6265 143.823 77.6038C143.827 77.6103 144.009 77.465 144.03 77.4812C144.045 77.4928 143.796 77.546 143.987 77.5071C144.005 77.5034 144.102 77.4636 144.115 77.4747C144.103 77.465 143.929 77.4803 144.078 77.4803C144.141 77.4803 144.204 77.4761 144.267 77.4784C144.307 77.4798 144.347 77.4835 144.387 77.4863C144.184 77.4733 144.455 77.5057 144.483 77.5122C144.955 77.6182 145.508 77.3687 145.623 76.8656C145.73 76.3953 145.482 75.8408 144.976 75.7269L144.976 75.7265Z" fill="#211715"/>
<path d="M147.605 76.8919C146.724 76.4883 145.858 76.0551 144.985 75.6334C144.814 75.551 144.643 75.4695 144.471 75.3895C144.433 75.3723 144.39 75.3469 144.35 75.3335C144.172 75.2756 144.418 75.426 144.465 75.4737C144.584 75.5945 144.464 75.4205 144.519 75.5658C144.578 75.7236 144.53 75.5658 144.517 75.5297C144.456 75.351 144.518 75.6973 144.517 75.5695C144.517 75.5269 144.511 75.4839 144.509 75.4413C144.508 75.4029 144.483 75.1728 144.518 75.1418C144.517 75.1428 144.47 75.3742 144.512 75.1918C144.521 75.1506 144.528 75.109 144.539 75.0678C144.537 75.0775 144.575 74.9539 144.573 74.9525C144.59 74.9678 144.466 75.1636 144.582 74.9595C144.666 74.8118 144.599 74.9493 144.572 74.9724C144.608 74.9414 144.642 74.9035 144.678 74.8711C144.534 74.9988 144.652 74.8974 144.703 74.8692C144.73 74.8539 144.873 74.7951 144.76 74.8363C144.626 74.8849 145.125 74.778 144.839 74.8049C144.89 74.8002 144.94 74.7965 144.99 74.7956C145.048 74.7947 145.265 74.828 145.045 74.7868C145.283 74.8317 145.52 74.8988 145.751 74.9701C145.874 75.0081 145.996 75.0488 146.116 75.0932C146.168 75.1122 146.22 75.1321 146.272 75.1525C146.311 75.1673 146.349 75.183 146.387 75.1988C146.304 75.164 146.293 75.1599 146.354 75.1863C146.782 75.3992 147.203 75.6126 147.598 75.8852C147.642 75.9157 147.686 75.9472 147.729 75.9787C147.58 75.8704 147.717 75.9704 147.754 76.0014C147.83 76.0666 147.904 76.1347 147.974 76.2064C148.055 76.2893 148.132 76.3763 148.204 76.467C148.071 76.2985 148.338 76.6244 148.321 76.6605C148.317 76.6688 148.25 76.4351 148.295 76.6211C148.345 76.8248 148.306 76.423 148.302 76.6373C148.301 76.6818 148.3 76.7294 148.301 76.7734C148.306 76.9553 148.359 76.6137 148.295 76.8012C148.281 76.8428 148.268 76.8938 148.258 76.9354C148.216 77.1094 148.348 76.8095 148.243 76.9687C148.219 77.0044 148.193 77.0488 148.173 77.0858C148.236 76.9678 148.226 77.0127 148.151 77.1039C148.119 77.1418 148.023 77.1942 148.178 77.0877C148.033 77.1872 148.26 77.0525 148.162 77.0905C148.022 77.1446 148.388 77.0377 148.155 77.0808L148.081 77.0761C148.191 77.0923 148.211 77.0937 148.142 77.0798C148.027 77.0396 147.901 77.0067 147.783 76.9706C147.644 76.9275 147.978 77.0613 147.776 76.9692C147.719 76.9433 147.662 76.9174 147.605 76.8914C147.165 76.6901 146.587 76.7517 146.337 77.2238C146.122 77.6306 146.199 78.2749 146.67 78.4902C147.322 78.7887 148.036 79.0826 148.759 78.8447C149.46 78.6147 149.953 77.9306 150.096 77.2252C150.169 76.8627 150.179 76.4888 150.082 76.1286C149.976 75.7398 149.74 75.4334 149.49 75.127C149.082 74.6271 148.527 74.2536 147.971 73.9351C147.402 73.6088 146.789 73.3455 146.16 73.1589C145.38 72.928 144.618 72.8479 143.867 73.2191C143.261 73.5181 142.826 74.099 142.715 74.7637C142.606 75.4158 142.617 76.1708 143.082 76.6915C143.288 76.9225 143.625 77.0275 143.898 77.1581C144.149 77.2775 144.397 77.3997 144.646 77.5219C145.317 77.8519 145.99 78.1777 146.67 78.4892C147.11 78.6906 147.688 78.629 147.937 78.1569C148.153 77.7496 148.075 77.1057 147.605 76.8905V76.8919Z" fill="#211715"/>
<path d="M148.411 70.2684C148.42 70.0999 148.411 70.2031 148.404 70.2429C148.408 70.2138 148.428 70.0744 148.455 70.0425C148.358 70.1587 148.449 70.0531 148.55 70.0717C148.883 70.1341 149.118 70.3489 149.337 70.6021C149.948 71.307 150.217 72.1962 150.943 72.8238C151.67 73.4515 152.567 73.8569 153.273 74.5068C153.656 74.8595 153.933 75.4723 154.184 76.0643C154.571 76.9766 154.889 77.9199 155.208 78.8577C155.381 79.3678 155.551 79.8788 155.721 80.3902C155.856 80.7962 156.254 81.4715 156.088 81.9033C155.919 82.3407 155.277 82.7383 154.932 83.0387C154.514 83.4021 154.085 83.7548 153.642 84.0871C152.908 84.6374 151.926 85.5909 150.936 85.4711C150.428 85.4095 150.018 85.0619 149.571 84.842C149.001 84.5606 148.398 84.35 147.829 84.0663C146.697 83.5025 145.677 82.7767 144.769 81.8982C143.913 81.0688 142.601 82.3764 143.46 83.2072C144.474 84.1885 145.628 85.0369 146.894 85.665C147.52 85.9756 148.184 86.2015 148.803 86.525C149.368 86.8203 149.872 87.1614 150.514 87.2697C151.993 87.5192 153.108 86.756 154.251 85.9274C154.82 85.515 155.376 85.0823 155.913 84.63C156.473 84.1593 157.138 83.6645 157.553 83.0554C158.416 81.7918 157.66 80.3472 157.232 79.0692C156.817 77.8301 156.401 76.5892 155.893 75.3844C155.552 74.5748 155.186 73.7232 154.51 73.1326C153.669 72.3975 152.455 71.9458 151.79 71.0312C151.395 70.4873 151.148 69.874 150.703 69.3561C150.279 68.8622 149.723 68.4396 149.079 68.2915C147.696 67.9744 146.63 68.9205 146.559 70.2684C146.497 71.4593 148.35 71.4556 148.412 70.2684H148.411Z" fill="#211715"/>
<path d="M146.953 73.7167C147.335 74.7058 147.931 75.545 148.492 76.436C148.984 77.2196 149.156 77.9241 149.118 78.8554C149.098 79.34 149.558 79.8028 150.044 79.7811C150.563 79.7579 150.949 79.3742 150.971 78.8554C151.016 77.7746 150.776 76.6869 150.239 75.744C149.984 75.2964 149.679 74.8775 149.403 74.4429C149.265 74.2258 149.131 74.0064 149.008 73.7806C148.947 73.6685 148.889 73.5556 148.834 73.4403C148.806 73.383 148.78 73.3256 148.754 73.2672C148.786 73.3422 148.782 73.3279 148.74 73.2247C148.566 72.7743 148.11 72.4137 147.601 72.578C147.162 72.7201 146.767 73.233 146.954 73.7167H146.953Z" fill="#211715"/>
<path d="M147.557 74.6447C148.378 74.2013 149.333 73.5982 149.583 72.6322C149.805 71.7727 149.36 70.8507 148.624 70.3938C147.632 69.7777 146.281 69.9527 145.205 70.2022C144.242 70.4253 143.131 70.8358 142.477 71.6167C142.282 71.8486 142.128 72.0916 142.04 72.3841C141.998 72.5258 141.976 72.6799 141.975 72.8275C141.975 72.8613 141.977 72.8933 141.979 72.9271C142.016 73.1941 142.024 73.2552 142.002 73.1099C141.981 72.9645 141.989 73.0261 142.026 73.2927C142.125 73.9509 142.518 74.48 142.928 74.9831C143.235 75.3603 143.924 75.3256 144.238 74.9831C144.606 74.5822 144.566 74.0763 144.238 73.6741C144.161 73.5797 144.068 73.458 143.968 73.2876C143.926 73.2159 143.853 73.0298 143.912 73.2038C143.881 73.115 143.856 73.0284 143.834 72.9372C143.828 72.915 143.81 72.797 143.83 72.9229C143.861 73.1182 143.805 72.7169 143.805 72.7303C143.805 72.7151 143.839 72.953 143.827 72.8516C143.823 72.8169 143.823 72.6878 143.822 72.8507C143.821 73.0557 143.877 72.7123 143.818 72.8886C143.773 73.0243 143.808 72.915 143.832 72.8789C143.887 72.8002 143.891 72.8428 143.842 72.8548C143.805 72.8636 143.781 72.9183 143.845 72.8558C143.875 72.8262 143.902 72.7942 143.933 72.7646C143.981 72.7178 144.033 72.6757 144.084 72.6318C143.945 72.7516 144.094 72.6308 144.163 72.5869C144.239 72.5378 144.318 72.4915 144.398 72.448C144.484 72.4017 144.57 72.3587 144.658 72.3179C144.697 72.2999 144.735 72.2818 144.775 72.2652C144.737 72.2814 144.626 72.3216 144.799 72.2587C145.003 72.1842 145.207 72.1152 145.417 72.0578C145.62 72.0023 145.826 71.9555 146.033 71.9176C146.082 71.9088 146.13 71.9009 146.179 71.8921C146.195 71.8893 146.359 71.8648 146.228 71.8824C146.344 71.8671 146.46 71.8565 146.576 71.8477C146.783 71.8319 146.986 71.8329 147.193 71.8426C147.378 71.8514 147.237 71.8453 147.196 71.8384C147.235 71.8449 147.273 71.8518 147.312 71.8597C147.405 71.8791 147.499 71.9217 147.592 71.9365C147.687 71.9518 147.539 71.9129 147.525 71.9051C147.552 71.9203 147.582 71.9314 147.609 71.9472C147.643 71.9666 147.678 71.9944 147.714 72.0083C147.815 72.0485 147.621 71.9527 147.642 71.9476C147.664 71.9425 147.742 72.0439 147.759 72.0597C147.876 72.1647 147.697 72.0106 147.709 71.9944C147.704 72.0013 147.759 72.0675 147.759 72.0809C147.759 72.0939 147.782 72.1309 147.789 72.142C147.846 72.2337 147.728 71.9384 147.746 72.0425C147.753 72.0819 147.773 72.1258 147.785 72.1638C147.846 72.3517 147.748 72.167 147.784 72.0999C147.778 72.1115 147.779 72.2536 147.783 72.2628C147.746 72.1906 147.834 72.0226 147.779 72.2018C147.725 72.3767 147.89 72.0319 147.78 72.1902C147.767 72.2092 147.752 72.2332 147.742 72.2541C147.676 72.3911 147.851 72.1406 147.775 72.2179C147.726 72.2675 147.683 72.323 147.633 72.3725C147.568 72.4369 147.497 72.4934 147.429 72.5545C147.439 72.5457 147.555 72.4647 147.466 72.5262C147.409 72.5656 147.354 72.6068 147.297 72.6452C147.079 72.7919 146.852 72.9215 146.621 73.046C146.194 73.2765 146.024 73.9023 146.289 74.3124C146.568 74.7456 147.1 74.891 147.557 74.6447Z" fill="#211715"/>
<path d="M142.69 67.0325C143.557 68.2891 144.409 69.5574 145.304 70.7955C145.449 70.9964 145.61 71.1529 145.857 71.2209C146.079 71.282 146.374 71.2542 146.571 71.1274C146.959 70.877 147.207 70.2808 146.903 69.861C146.009 68.6233 145.157 67.3546 144.289 66.0979C144.015 65.7004 143.464 65.481 143.022 65.7656C142.626 66.0207 142.395 66.6057 142.69 67.032V67.0325Z" fill="#211715"/>
<path d="M201.751 112.665C201.344 109.807 200.713 107.211 199.942 105.176C199.865 104.973 199.658 104.852 199.442 104.876C198.691 104.96 197.446 105.007 196.992 104.766C195.164 103.798 193.772 103.982 191.681 103.94C190.67 103.92 189.955 103.953 188.603 104.055C187.952 104.104 186.724 104.067 186.146 104.412C185.567 104.757 185.287 104.982 185.304 105.659C185.315 106.091 185.465 106.463 185.809 106.673C186.21 106.918 186.789 107.029 187.245 107.112C187.8 107.213 188.439 107.286 189.028 107.4C187.72 108.153 186.45 108.972 185.224 109.853C184.923 110.07 184.581 110.398 184.466 110.751C184.37 111.046 184.313 111.459 184.388 111.76C184.495 112.179 184.735 112.563 185.114 112.771C185.539 113.003 186.092 113.204 186.644 113.211C186.982 114.296 187.084 114.894 188.012 115.577C189.06 116.348 190.149 117.474 191.471 117.934C191.835 118.061 192.221 118.16 192.671 118.136C193.038 118.072 193.378 118 193.721 117.822C195.617 116.84 197.884 115.051 199.644 114.072C199.995 113.877 200.926 113.679 201.438 113.557C201.676 113.501 201.834 113.272 201.802 113.03C201.785 112.908 201.768 112.786 201.751 112.665Z" fill="white"/>
<path d="M204.367 89.2787C203.783 88.0355 203.27 86.9464 202.922 86.2192C202.732 85.8235 202.271 85.643 201.864 85.8008C197.605 87.4625 186.795 92.1077 183.2 93.6319C182.775 93.8129 182.579 94.3026 182.757 94.7275C182.757 94.7275 184.796 99.507 186.795 104.195C187.398 104.082 188.144 104.09 188.602 104.056C189.954 103.954 190.669 103.921 191.68 103.941C193.771 103.982 195.163 103.798 196.991 104.767C197.446 105.007 198.691 104.96 199.441 104.877L199.58 104.123C200.926 103.699 208.713 99.8875 209.174 99.4385L208.997 99.0831L208.325 97.7352C207.402 95.7773 205.701 92.1253 204.366 89.2792L204.367 89.2787Z" fill="white"/>
<path d="M189.782 106.621C188.922 106.408 188.039 106.339 187.173 106.159C186.809 106.084 185.982 106.006 186.234 105.477C186.462 104.998 187.504 105.033 187.911 105.014C188.725 104.976 189.536 104.904 190.349 104.875C191.156 104.846 191.962 104.872 192.768 104.875C193.549 104.878 194.34 104.87 195.105 105.043C195.852 105.212 196.504 105.671 197.251 105.794C197.644 105.859 198.04 105.876 198.437 105.868C198.737 105.862 199.23 105.728 199.499 105.834L199.09 105.596C199.352 105.817 199.497 106.705 199.61 107.079C199.803 107.72 199.975 108.368 200.13 109.02C200.288 109.686 200.428 110.356 200.552 111.029C200.617 111.38 200.678 111.732 200.734 112.084C200.763 112.263 200.791 112.443 200.818 112.623L200.849 112.84C200.867 113.127 200.89 113.131 200.918 112.851L201.327 112.613C200.739 112.849 200.084 112.896 199.491 113.135C198.854 113.392 198.271 113.81 197.7 114.185C196.351 115.071 195.046 116.034 193.635 116.819C192.981 117.183 192.433 117.301 191.719 117.042C191.031 116.793 190.421 116.328 189.857 115.872C189.313 115.433 188.643 115.025 188.182 114.498C187.812 114.074 187.7 113.49 187.538 112.966C187.412 112.557 187.065 112.31 186.645 112.286C186.228 112.263 185.546 112.135 185.348 111.707C185.157 111.293 185.375 110.916 185.693 110.654C186.728 109.8 187.962 109.105 189.114 108.421C190.139 107.813 189.208 106.212 188.179 106.822C187.254 107.371 186.346 107.948 185.461 108.56C184.714 109.076 183.87 109.594 183.574 110.506C183.305 111.337 183.426 112.236 183.948 112.938C184.556 113.756 185.669 114.084 186.645 114.138L185.752 113.458C185.984 114.211 186.192 114.968 186.693 115.593C187.21 116.238 187.976 116.724 188.619 117.24C190.086 118.417 191.866 119.552 193.798 118.796C195.539 118.114 197.083 116.804 198.634 115.784C199.303 115.345 199.919 114.899 200.65 114.701C201.467 114.48 202.452 114.401 202.694 113.419C202.811 112.947 202.643 112.383 202.571 111.914C202.484 111.35 202.388 110.787 202.28 110.227C202.091 109.244 201.869 108.268 201.603 107.303C201.375 106.475 201.146 105.605 200.79 104.821C200.322 103.791 199.361 103.999 198.437 104.017C198.113 104.023 197.745 104.049 197.431 103.948C197.179 103.867 196.638 103.577 196.271 103.45C195.438 103.161 194.547 103.062 193.669 103.035C191.911 102.981 190.172 103.045 188.418 103.141C187.539 103.19 186.597 103.161 185.788 103.557C184.937 103.973 184.362 104.688 184.379 105.66C184.421 108.184 187.535 107.973 189.29 108.407C190.447 108.694 190.941 106.909 189.782 106.622V106.621Z" fill="#211715"/>
<path d="M187.484 103.464C186.621 101.443 185.759 99.4204 184.897 97.3986L183.652 94.4812C183.622 94.4113 183.588 94.3423 183.562 94.271C183.566 94.2826 183.649 94.4603 183.608 94.4492C183.691 94.4714 183.962 94.3071 184.043 94.2724C184.66 94.0104 185.277 93.7471 185.894 93.4842C189.411 91.9845 192.928 90.4834 196.456 89.0074C198.033 88.3478 199.61 87.691 201.196 87.0555C201.423 86.9648 201.872 86.6759 202.112 86.6931C202.239 86.7023 202.056 86.6343 202.162 86.7662C202.273 86.9037 202.342 87.1434 202.418 87.304C202.779 88.065 203.137 88.8269 203.495 89.5892C205.111 93.0324 206.679 96.5002 208.376 99.9045L208.521 98.7825C208.703 98.6173 208.65 98.6965 208.505 98.7812C208.393 98.8464 208.283 98.9145 208.17 98.9783C207.831 99.1709 207.485 99.3528 207.139 99.5333C206.181 100.033 205.214 100.515 204.243 100.989C203.231 101.484 202.215 101.971 201.191 102.44C200.782 102.628 200.372 102.812 199.959 102.99C199.714 103.095 200.126 102.922 199.899 103.015C199.818 103.048 199.738 103.081 199.656 103.113C199.55 103.154 199.444 103.194 199.335 103.229C198.206 103.594 198.689 105.383 199.828 105.014C201.67 104.417 203.444 103.435 205.178 102.587C206.178 102.098 207.175 101.603 208.161 101.086C208.718 100.794 209.36 100.52 209.831 100.091C210.149 99.8018 210.154 99.3273 209.976 98.9691C208.391 95.7892 206.922 92.5524 205.414 89.3351C205.014 88.4816 204.614 87.6285 204.211 86.7764C203.777 85.8594 203.375 84.8365 202.176 84.8166C201.424 84.8041 200.551 85.329 199.867 85.6072C199.014 85.9534 198.164 86.3047 197.314 86.6579C193.47 88.2552 189.64 89.8887 185.81 91.5212C185.079 91.8331 184.347 92.1451 183.616 92.4566C182.752 92.8246 181.831 93.1912 181.774 94.2937C181.73 95.125 182.379 96.1776 182.695 96.92C183.758 99.4125 184.821 101.905 185.885 104.398C186.081 104.858 186.759 104.959 187.152 104.73C187.628 104.452 187.681 103.925 187.484 103.463L187.484 103.464Z" fill="#211715"/>
<path d="M135.872 121.142C136.55 118.296 137.174 115.633 137.679 113.408C137.858 112.615 137.994 111.661 137.409 111.097C137.112 110.81 136.696 110.687 136.293 110.597C130.775 109.363 124.944 108.147 119.326 107.014C118.88 106.924 118.351 106.927 118.036 107.255C117.879 107.417 117.805 107.64 117.736 107.854C115.185 115.803 112.728 123.782 110.367 131.79H95.2109C95.2109 133.282 95.2109 134.255 95.2109 134.255V147.947C102.469 147.947 121.102 147.962 127.835 147.964C128.682 147.964 129.418 147.392 129.627 146.571C130.643 142.586 133.571 130.804 135.872 121.142L135.872 121.142Z" fill="white"/>
<path d="M179.918 137.191C179.332 136.227 178.69 135.138 178.036 134.011C176.949 134.411 175.457 134.924 175.228 136.933C175.146 137.651 175.975 138.218 175.956 138.941C175.947 139.316 175.718 139.646 175.604 140.003C175.363 140.756 175.696 141.653 176.37 142.066C175.923 143.044 175.911 144.212 176.336 145.2C176.762 146.189 177.62 146.982 178.638 147.329C179.007 147.455 179.392 147.525 179.775 147.593C181.602 147.923 183.429 148.251 185.256 148.58C185.743 146.565 186.798 144.149 187.824 142.196C187.506 141.174 187.058 140.192 186.494 139.282C185.703 137.906 184.411 135.669 183.683 134.54C183.02 133.512 181.905 132.678 180.994 133.223C180.315 133.629 180.442 134.571 180.507 135.101C180.658 136.322 180.773 137.244 181.014 138.945C180.682 138.435 180.313 137.841 179.918 137.191Z" fill="white"/>
<path d="M75.1589 117.678C76.3001 119.695 77.1277 122.562 77.8771 125.694C77.8771 125.129 77.8771 121.508 77.8771 121.504C77.8618 119.591 77.8465 117.669 77.835 115.751C77.8275 115.008 77.8234 114.256 77.6863 113.524L75.6021 112.427C75.6679 111.738 75.697 111.281 75.7258 110.874C75.7864 110.015 75.3386 109.197 74.5767 108.795C71.3406 107.09 64.9501 104.534 62.4287 103.661C62.4287 103.661 62.4287 105.102 62.4277 106.542C66.0755 108.807 70.0721 111.166 73.0964 114.554C73.535 115.046 74.4544 116.432 75.1593 117.678" fill="white"/>
<path d="M80.6674 81.6061C78.5934 85.2002 75.0498 88.3533 70.5971 90.5046C70.2173 90.2024 69.807 89.9853 69.2688 89.9173C68.5861 89.8316 67.9516 89.9946 67.5018 90.4139C66.8326 91.0379 66.6316 92.1978 66.7891 93.1129C67.1295 95.0911 68.1692 96.4422 69.8167 97.2666C69.1553 100.086 68.814 101.285 69.0015 103.657C69.0553 104.338 69.3813 105.509 69.9218 106.628C71.5901 107.345 73.194 108.077 74.4028 108.704C74.6594 107.897 74.8511 107.304 74.8511 107.304C75.2856 105.963 75.8682 104.864 75.8858 104.806C76.0025 104.449 76.3661 104.229 76.7343 104.301C78.2697 104.596 80.578 104.201 82.2305 103.453C83.0735 103.072 83.8641 102.391 84.4268 101.103C84.6927 100.501 84.8747 99.7003 84.996 98.882C85.1794 97.6397 85.2262 96.3506 85.2109 95.6165C85.3207 95.0703 85.5194 94.5575 85.8825 94.1034C86.4309 93.416 87.3558 92.8435 86.7815 91.7641C86.5633 91.3558 86.1812 91.0689 85.7574 90.8786C83.6218 89.9205 83.3055 86.8161 83.0716 84.5786C83.0082 82.3546 82.5862 80.4943 81.9054 78.9331C81.584 79.8445 81.1685 80.7383 80.6674 81.6061Z" fill="white"/>
<path d="M100.378 143.967C100.17 143.941 99.9577 143.916 99.7516 143.947C99.552 143.976 99.3728 144.056 99.1958 144.132C97.4141 144.893 95.6036 145.546 93.5625 145.646C92.8192 145.682 91.5265 145.145 91.2213 144.386C91.2213 144.386 90.4126 144.386 89.566 144.386C89.446 141.966 89.1825 139.553 88.7754 137.165C91.0425 133.624 94.9728 131.326 99.1129 130.886C99.784 130.815 100.469 130.792 101.128 130.934C102.084 131.14 102.959 131.7 103.546 132.483C103.713 132.706 103.86 133.007 103.725 133.25C105.174 134.251 106.377 135.606 107.199 137.163C107.307 137.369 107.412 137.599 107.363 137.826C107.314 138.053 107.034 138.236 106.842 138.104L106.029 139.019C106.164 139.1 106.307 139.187 106.457 139.282C106.679 139.421 107.138 140.016 107.138 140.755V141.805C107.263 141.862 107.373 141.932 107.483 142.02C107.858 142.321 108.03 143.06 107.856 143.435C107.625 143.933 106.911 144.441 105.868 144.418C104.16 144.382 102.204 144.219 100.378 143.993" fill="white"/>
<path d="M204.131 139.402C202.418 131.966 200.698 124.532 198.981 117.097C198.89 116.704 198.482 116.417 198.088 116.417H136.864C135.671 116.417 135.67 118.269 136.864 118.269H198.088L197.194 117.589C198.912 125.024 200.631 132.459 202.344 139.895C202.612 141.056 204.399 140.564 204.131 139.403L204.131 139.402Z" fill="#211715"/>
<path d="M210.701 167.845C209.928 164.494 209.154 161.142 208.376 157.792C208.107 156.631 206.321 157.122 206.59 158.284C207.368 161.634 208.141 164.986 208.915 168.337C209.183 169.497 210.97 169.006 210.701 167.845Z" fill="#211715"/>
<path d="M114.742 116.417H111.618C110.709 116.417 109.795 116.391 108.885 116.417C108.306 116.434 108.017 116.695 107.571 117.043L106.298 118.037C102.995 120.616 99.692 123.195 96.3888 125.774L90.7523 130.175C90.3577 130.483 90.429 131.161 90.7523 131.484C91.1418 131.873 91.6665 131.793 92.0621 131.484C97.8195 126.988 103.577 122.493 109.335 117.997L108.68 118.268H114.741C115.933 118.268 115.935 116.417 114.741 116.417H114.742Z" fill="#211715"/>
<path d="M111.259 132.036C112.755 126.967 114.287 121.909 115.859 116.864C116.644 114.341 117.439 111.821 118.244 109.304C118.349 108.976 118.453 108.647 118.559 108.319C118.576 108.267 118.716 107.863 118.657 107.919C118.89 107.695 119.902 108.073 120.163 108.125C121.4 108.376 122.636 108.629 123.872 108.884C126.392 109.403 128.909 109.932 131.424 110.474C132.682 110.746 133.94 111.021 135.196 111.3C135.642 111.399 136.276 111.427 136.661 111.688C136.976 111.901 136.928 112.333 136.883 112.672C136.676 114.229 136.182 115.796 135.824 117.326C135.417 119.06 135.005 120.793 134.59 122.525C132.967 129.302 131.306 136.069 129.616 142.829C129.355 143.872 129.093 144.915 128.829 145.956C128.674 146.566 128.462 147.028 127.751 147.038C127.216 147.046 126.68 147.038 126.145 147.038C123.111 147.036 120.076 147.034 117.041 147.033C110.328 147.028 103.615 147.023 96.9013 147.022C96.3381 147.022 95.7749 147.022 95.2112 147.022C94.0191 147.022 94.0172 148.873 95.2112 148.873C101.975 148.873 108.738 148.879 115.502 148.883C118.799 148.885 122.096 148.887 125.393 148.889C126.774 148.89 128.494 149.173 129.626 148.23C130.611 147.41 130.76 145.883 131.056 144.702C132.777 137.851 134.461 130.991 136.111 124.124C136.939 120.679 137.767 117.233 138.545 113.776C138.77 112.777 138.948 111.643 138.316 110.748C137.579 109.703 136.088 109.603 134.94 109.35C132.332 108.774 129.721 108.216 127.107 107.669C125.792 107.394 124.477 107.121 123.162 106.852C121.846 106.582 120.509 106.209 119.175 106.062C118.685 106.008 118.176 106.067 117.744 106.321C117.176 106.654 116.965 107.234 116.773 107.828C116.349 109.14 115.933 110.454 115.517 111.769C113.854 117.026 112.231 122.297 110.651 127.58C110.256 128.901 109.863 130.222 109.473 131.545C109.135 132.69 110.923 133.179 111.259 132.037V132.036Z" fill="#211715"/>
<path d="M113.062 135.816C116.113 137.722 119.103 139.723 122.162 141.616C123.178 142.245 124.11 140.644 123.097 140.017C120.038 138.125 117.048 136.123 113.997 134.218C112.983 133.585 112.052 135.186 113.062 135.816Z" fill="#211715"/>
<path d="M132.648 114.663C131.178 120.575 129.619 126.464 128.082 132.358C127.687 133.87 127.293 135.382 126.899 136.894C126.599 138.048 128.385 138.541 128.686 137.386C130.261 131.337 131.847 125.291 133.4 119.235C133.748 117.877 134.096 116.517 134.434 115.155C134.722 113.999 132.935 113.506 132.648 114.663Z" fill="#211715"/>
<path d="M180.591 138.282C178.199 134.475 174.342 127.464 172.863 125.049C176.534 122.476 185.407 116.4 190.257 113.156C192.648 116.911 201.316 130.141 204.061 134.54L195.403 141.894" fill="white"/>
<path d="M209.642 86.7963C209.947 84.4269 210.52 83.1291 211.556 81.3873C212.025 80.5981 214.69 77.0929 220.031 75.6664C222.581 74.9855 225.372 74.7314 228.193 75.2975C231.014 75.8635 235.556 77.2452 239.201 83.5702C240.618 86.0284 241.632 89.4902 241.476 92.8293C241.194 98.8719 237.902 102.986 235.696 105.057C234.264 106.401 231.694 108.17 231.359 110.131C231.329 110.307 231.326 110.64 231.342 111.023C229.535 110.968 228.08 111.272 226.114 111.773C222.679 112.649 220.816 113.708 218.507 115.184C218.061 113.904 217.695 112.851 217.695 112.851C217.252 111.485 216.659 110.365 216.641 110.306C216.522 109.943 216.152 109.719 215.776 109.792C214.212 110.092 211.861 109.69 210.178 108.929C209.319 108.54 208.514 107.847 207.94 106.535C207.669 105.921 207.484 105.106 207.36 104.272C207.173 103.007 207.126 101.694 207.142 100.946C207.03 100.39 206.828 99.8671 206.458 99.4047C205.899 98.7044 204.957 98.1212 205.542 97.0214C205.764 96.6057 206.153 96.3132 206.585 96.1193C208.761 95.1436 209.083 91.9808 209.321 89.7017C209.36 88.3451 209.53 87.1213 209.809 86.0159L209.642 86.7963Z" fill="white"/>
<path d="M221.072 75.4163C220.721 75.4913 220.375 75.5751 220.033 75.6663C219.767 75.7376 219.507 75.8139 219.254 75.8945C214.431 77.4353 212.003 80.6374 211.557 81.3868C210.685 82.8531 210.141 84.0047 209.809 85.746C214.219 86.1991 217.671 89.3957 219.687 92.0451C220.614 93.3707 220.765 94.2539 221.543 96.1743C222.084 95.6462 222.6 95.2384 223.383 95.1402C224.078 95.0528 224.724 95.2189 225.182 95.6462C225.864 96.2817 226.069 97.4633 225.909 98.3955C225.651 99.8915 225.001 101.036 223.997 101.869C224.024 101.999 224.04 102.073 224.04 102.073C224.47 104.042 226.635 107.321 228.616 108.853L231.341 110.962C231.34 110.882 231.337 110.803 231.337 110.803C231.33 110.514 231.336 110.272 231.36 110.131C231.696 108.17 234.266 106.4 235.697 105.057C237.904 102.986 241.196 98.8714 241.478 92.8287C241.634 89.4896 240.619 86.0284 239.203 83.5696C235.558 77.2446 231.015 75.863 228.195 75.2969C225.752 74.8067 223.332 74.9322 221.072 75.4163Z" fill="#645D5C"/>
<path d="M211.644 87.0646C213.902 87.7806 215.853 89.1993 217.482 90.8915C218.184 91.6201 218.873 92.3884 219.366 93.2766C219.883 94.2093 220.185 95.2484 220.576 96.2366C220.76 96.7014 221.195 97.0258 221.715 96.8833C222.158 96.7615 222.547 96.2121 222.362 95.7446C221.921 94.6287 221.573 93.4562 220.997 92.3986C220.43 91.3567 219.612 90.4333 218.793 89.5821C216.941 87.6589 214.696 86.0907 212.137 85.2789C210.998 84.9178 210.51 86.7045 211.645 87.0641L211.644 87.0646Z" fill="#211715"/>
<path d="M222.532 96.5199C223.176 95.9742 224.258 95.8034 224.724 96.5347C225.216 97.3059 225.055 98.2695 224.779 99.117C224.526 99.896 224.1 100.551 223.457 101.117C222.837 101.661 221.918 102.066 221.043 102.31C219.896 102.631 220.383 104.417 221.535 104.096C223.462 103.557 225.258 102.446 226.162 100.601C226.616 99.6739 226.941 98.5866 226.88 97.5456C226.81 96.3746 226.327 95.111 225.222 94.5491C223.847 93.8501 222.345 94.2598 221.222 95.2114C220.84 95.5349 220.889 96.1876 221.222 96.5204C221.6 96.8985 222.149 96.8444 222.532 96.5204L222.532 96.5199Z" fill="#211715"/>
<path d="M210.357 92.82C210.048 93.4587 209.918 95.0227 211.103 95.3518C212.701 95.6032 213.099 93.7517 212.708 92.7862C212.389 91.9961 211.145 91.4851 210.357 92.8195V92.82Z" fill="#211715"/>
<path d="M218.59 112.604C218.382 111.979 218.139 111.367 217.874 110.763C217.784 110.559 217.691 110.357 217.594 110.156C217.56 110.085 217.53 110.002 217.487 109.934L217.464 109.887C217.567 110.134 217.559 110.117 217.443 109.839C216.791 108.481 215.368 109.014 214.18 108.955C213.003 108.896 211.773 108.627 210.693 108.149C209.733 107.724 209.072 106.946 208.707 105.966C208.227 104.675 208.123 103.224 208.078 101.859C208.059 101.27 208.087 100.723 207.892 100.155C207.664 99.4915 207.3 98.9388 206.828 98.4241C206.627 98.2052 206.253 97.9247 206.301 97.5979C206.372 97.1101 207.083 96.9346 207.426 96.7194C208.365 96.132 208.963 95.2128 209.372 94.2056C210.397 91.6779 210.063 88.872 210.704 86.262C210.988 85.1048 209.202 84.6114 208.917 85.7699C208.327 88.1764 208.549 90.7059 207.811 93.0808C207.536 93.9663 207.098 94.8133 206.248 95.2586C205.133 95.8427 204.092 96.9295 204.53 98.3042C204.871 99.3702 206.086 99.9159 206.215 101.075C206.279 101.644 206.234 102.237 206.277 102.81C206.335 103.589 206.426 104.37 206.574 105.137C206.825 106.435 207.321 107.704 208.245 108.676C209.053 109.525 210.15 109.979 211.255 110.306C212.6 110.705 214.085 110.933 215.486 110.764C215.385 110.776 215.872 110.726 215.88 110.709C215.996 110.708 215.961 110.681 215.777 110.627C215.728 110.494 215.752 110.548 215.85 110.79C215.911 110.925 215.979 111.057 216.042 111.19C216.335 111.811 216.587 112.445 216.803 113.097C217.177 114.222 218.967 113.739 218.59 112.604Z" fill="#211715"/>
<path d="M210.568 86.7961C210.828 84.8511 211.518 82.9386 212.698 81.3561C212.559 81.5426 212.788 81.245 212.831 81.1936C212.924 81.0811 213.02 80.9705 213.117 80.8617C213.374 80.5738 213.645 80.2984 213.926 80.0341C214.638 79.3639 215.417 78.7789 216.253 78.2706C220.417 75.7369 225.785 75.225 230.371 76.8409C234.611 78.3345 237.933 82.1605 239.474 86.3235C241.343 91.3705 240.683 96.8541 237.682 101.314C236.447 103.149 234.862 104.533 233.226 105.994C232.211 106.9 231.193 107.911 230.676 109.193C230.204 110.36 230.423 111.74 230.613 112.948C230.691 113.443 231.309 113.717 231.752 113.595C232.279 113.45 232.477 112.952 232.399 112.456C232.241 111.453 232.082 110.368 232.572 109.5C233.193 108.397 234.236 107.555 235.181 106.74C236.72 105.415 238.097 103.995 239.241 102.308C242.449 97.5821 243.263 91.601 241.393 86.1976C239.743 81.4315 236.184 77.1737 231.449 75.2755C226.639 73.3472 220.897 73.761 216.312 76.1156C214.42 77.0876 212.651 78.4484 211.329 80.1239C209.811 82.0481 209.038 84.3938 208.716 86.7956C208.65 87.2923 209.19 87.7213 209.643 87.7213C210.199 87.7213 210.502 87.2937 210.569 86.7956L210.568 86.7961Z" fill="#211715"/>
<path d="M209.669 101.074C209.264 101.202 208.851 101.304 208.43 101.363L208.676 101.33C208.289 101.381 207.9 101.393 207.512 101.346L207.758 101.379C207.663 101.366 207.569 101.35 207.476 101.331C207.23 101.281 206.984 101.295 206.762 101.425C206.57 101.537 206.387 101.757 206.337 101.978C206.231 102.44 206.476 103.013 206.984 103.117C208.051 103.335 209.133 103.184 210.162 102.859C210.389 102.787 210.593 102.642 210.715 102.434C210.831 102.235 210.88 101.943 210.809 101.721C210.659 101.258 210.164 100.918 209.669 101.074L209.669 101.074Z" fill="#211715"/>
<path d="M223.147 102.319C223.453 103.67 224.182 104.953 224.946 106.094C225.787 107.348 226.766 108.573 227.961 109.508C228.354 109.816 228.887 109.892 229.271 109.508C229.591 109.188 229.667 108.509 229.271 108.199C228.168 107.336 227.29 106.271 226.546 105.16C226.156 104.578 225.797 103.973 225.488 103.344C225.414 103.193 225.343 103.041 225.276 102.887C225.315 102.975 225.291 102.926 225.267 102.867C225.236 102.788 225.204 102.71 225.175 102.631C225.077 102.368 224.995 102.101 224.933 101.827C224.822 101.339 224.26 101.052 223.794 101.18C223.292 101.318 223.036 101.83 223.147 102.319Z" fill="#211715"/>
<path d="M193.509 141.603C196.288 142.266 199.386 143.038 199.778 143.156L202.065 143.846C203.826 137.793 204.691 133.434 207.324 126.959C208.118 125.006 209.124 123.134 210.542 121.573C210.715 121.383 210.884 121.2 211.05 121.024C212.177 119.83 213.167 118.946 214.314 118.122C214.4 118.061 214.487 117.999 214.575 117.938L215.842 117.069C216.154 116.327 216.715 114.857 217.275 114.381C218.318 113.495 221.242 111.854 223.667 111.187C226.33 110.455 229.986 109.758 231.143 109.722C232.15 109.691 233.702 111.171 234.831 113.018L237.44 113.394C241.095 115.969 243.811 119.716 245.686 123.773C247.964 128.702 249.07 134.102 250.015 139.419C249.388 139.193 248.682 139.151 247.992 139.351C242.712 140.885 235.067 143.115 229.819 144.628C228.052 145.138 226.954 146.755 226.826 148.589C226.575 152.167 226.276 154.46 226.051 157.654C220.306 157.654 209.554 157.654 209.554 157.654C207.444 158.326 204.062 158.448 197.988 155.804C193.376 153.796 186.962 150.502 185.201 148.82C185.795 146.147 187.465 142.687 188.744 140.547C189.011 140.596 189.213 140.631 189.213 140.631C189.833 140.739 191.595 141.145 193.51 141.603H193.509Z" fill="#096FCA"/>
<path d="M217.929 142.364C216.785 145.609 215.716 148.929 214.261 152.053C213.208 154.312 211.287 156.285 208.806 156.904C208.385 157.009 208.054 157.062 207.759 157.09C207.277 157.136 206.792 157.147 206.308 157.128C205.062 157.082 203.837 156.835 202.638 156.504C199.412 155.615 196.356 154.114 193.373 152.621C191.836 151.852 190.313 151.052 188.829 150.185C187.785 149.574 186.672 148.932 185.855 148.165L186.093 149.066C186.75 146.198 188.088 143.444 189.593 140.931C190.207 139.906 188.605 138.974 187.993 139.996C186.943 141.75 186.043 143.6 185.29 145.501C184.907 146.468 184.533 147.472 184.325 148.494C184.143 149.386 184.946 149.846 185.576 150.304C188.535 152.454 191.976 154.054 195.279 155.593C198.761 157.215 202.462 158.856 206.365 158.983C209.485 159.084 212.334 157.789 214.353 155.384C215.575 153.929 216.256 152.166 216.949 150.416C217.937 147.921 218.823 145.387 219.715 142.857C220.112 141.731 218.323 141.247 217.928 142.365L217.929 142.364Z" fill="#211715"/>
<path d="M226.82 160.323C227.006 156.473 227.453 152.645 227.738 148.801C227.85 147.287 228.626 145.946 230.142 145.498C231.879 144.985 233.622 144.492 235.362 143.987C239.072 142.91 242.78 141.83 246.49 140.751C247.882 140.347 249.499 139.629 250.66 140.918C251.19 141.506 251.191 142.152 251.134 142.901C251.056 143.934 250.98 144.969 250.908 146.003C250.667 149.491 250.495 152.984 250.256 156.473C250.174 157.662 252.027 157.657 252.108 156.473C252.335 153.162 252.501 149.847 252.724 146.535C252.796 145.469 252.873 144.404 252.953 143.338C253.03 142.315 253.074 141.384 252.578 140.448C251.7 138.789 249.694 138.003 247.9 138.417C246.029 138.849 244.182 139.493 242.339 140.03C240.305 140.621 238.271 141.213 236.236 141.804C234.326 142.359 232.415 142.913 230.504 143.465C229.573 143.734 228.681 143.985 227.906 144.593C227.237 145.118 226.721 145.802 226.382 146.581C225.905 147.679 225.886 148.841 225.791 150.017C225.703 151.124 225.6 152.23 225.495 153.336C225.275 155.662 225.079 157.988 224.966 160.322C224.909 161.513 226.761 161.51 226.819 160.322L226.82 160.323Z" fill="#211715"/>
<path d="M200.026 142.263C198.396 141.78 196.717 141.425 195.065 141.025C193.207 140.575 191.343 140.07 189.46 139.739C188.967 139.652 188.461 139.871 188.32 140.385C188.197 140.833 188.472 141.437 188.967 141.524C190.851 141.856 192.715 142.361 194.572 142.81C196.224 143.21 197.903 143.565 199.534 144.049C200.679 144.388 201.168 142.602 200.026 142.263Z" fill="#211715"/>
<path d="M214.107 117.138C212.377 118.355 210.778 119.803 209.437 121.442C208.04 123.15 207.078 125.095 206.262 127.133C204.715 130.994 203.549 134.968 202.459 138.978C201.813 141.357 201.154 143.733 200.423 146.089C200.069 147.229 201.857 147.717 202.21 146.581C203.405 142.729 204.366 138.812 205.513 134.946C206.082 133.026 206.712 131.124 207.417 129.249C208.168 127.254 208.966 125.271 210.183 123.507C211.457 121.662 213.212 120.024 215.042 118.737C216.01 118.057 215.085 116.451 214.107 117.138H214.107Z" fill="#211715"/>
<path d="M236.972 114.193C242.443 118.086 245.456 124.417 247.196 130.722C247.753 132.739 248.199 134.785 248.598 136.839C248.826 138.008 250.612 137.513 250.385 136.347C249 129.239 246.914 122.028 242.109 116.423C240.869 114.976 239.459 113.699 237.907 112.595C237.499 112.305 236.876 112.523 236.639 112.928C236.368 113.392 236.563 113.903 236.972 114.194L236.972 114.193Z" fill="#211715"/>
<path d="M232.173 112.734C228.83 113.077 225.482 113.525 222.22 114.35C219.356 115.074 216.594 116.119 213.938 117.409C212.866 117.93 213.805 119.527 214.873 119.008C220.329 116.357 226.173 115.202 232.173 114.585C232.671 114.534 233.099 114.197 233.099 113.66C233.099 113.199 232.674 112.683 232.173 112.734V112.734Z" fill="#211715"/>
<path d="M235.632 112.551C234.757 111.145 233.537 109.481 231.898 108.921C231.325 108.725 230.737 108.818 230.152 108.896C229.395 108.996 228.643 109.125 227.893 109.268C226.143 109.603 224.355 109.955 222.664 110.528C220.96 111.104 219.296 111.908 217.783 112.881C217.151 113.287 216.541 113.707 216.119 114.341C215.612 115.1 215.299 115.985 214.95 116.823C214.757 117.285 215.158 117.841 215.597 117.962C216.131 118.108 216.543 117.778 216.736 117.315C216.989 116.709 217.231 116.093 217.563 115.525C217.823 115.079 218.128 114.869 218.542 114.594C219.816 113.749 221.21 113.034 222.642 112.497C224.128 111.939 225.705 111.606 227.256 111.28C228.469 111.026 229.726 110.737 230.947 110.658C231.394 110.629 231.803 110.89 232.226 111.265C232.945 111.905 233.525 112.67 234.032 113.485C234.66 114.495 236.263 113.567 235.632 112.551Z" fill="#211715"/>
<path d="M181.391 137.815C178.677 133.485 176.326 128.941 173.664 124.581L173.331 125.848C177.86 122.674 182.433 119.56 187.012 116.457C188.248 115.62 189.485 114.785 190.725 113.955L189.458 113.623C193.171 119.452 196.988 125.215 200.727 131.026C201.578 132.349 202.429 133.672 203.262 135.007L203.407 133.885C200.887 136.025 198.368 138.165 195.849 140.305L194.749 141.238C193.84 142.011 195.155 143.315 196.059 142.547C198.579 140.407 201.098 138.267 203.617 136.127L204.717 135.194C205.019 134.937 205.065 134.398 204.862 134.072C201.135 128.103 197.238 122.24 193.411 116.336C192.624 115.122 191.836 113.908 191.058 112.687C190.802 112.285 190.221 112.068 189.791 112.355C185 115.56 180.243 118.817 175.501 122.092C174.464 122.808 173.429 123.525 172.398 124.248C171.994 124.531 171.787 125.059 172.065 125.515C174.727 129.875 177.078 134.418 179.793 138.748C180.424 139.755 182.028 138.827 181.392 137.813L181.391 137.815Z" fill="#211715"/>
<path d="M181.771 137.731C181.677 137.042 181.588 136.353 181.503 135.663C181.465 135.362 181.421 135.061 181.395 134.759C181.385 134.646 181.378 134.532 181.379 134.418C181.379 134.377 181.414 134.093 181.389 134.211C181.404 134.141 181.507 133.955 181.404 134.081C181.454 134.019 181.523 133.99 181.55 133.983C181.612 133.965 181.771 133.995 181.91 134.061C182.411 134.301 182.748 134.792 183.035 135.246C183.708 136.315 184.34 137.409 184.973 138.502C185.662 139.69 186.387 140.849 186.837 142.155C186.999 142.627 187.472 142.94 187.976 142.801C188.436 142.675 188.787 142.137 188.623 141.663C188.175 140.361 187.513 139.196 186.828 138.01C186.22 136.957 185.61 135.905 184.977 134.867C184.332 133.808 183.628 132.721 182.409 132.271C181.043 131.765 179.715 132.661 179.55 134.065C179.482 134.644 179.594 135.226 179.666 135.799C179.767 136.608 179.874 137.415 179.984 138.223C180.052 138.718 180.687 138.989 181.123 138.869C181.658 138.722 181.838 138.228 181.771 137.731Z" fill="#211715"/>
<path d="M177.481 133.233C176.689 133.534 175.91 133.892 175.323 134.525C174.644 135.258 174.129 136.45 174.348 137.459C174.452 137.94 174.791 138.282 174.959 138.725C175.111 139.13 174.764 139.504 174.671 139.909C174.403 141.073 174.942 142.208 175.903 142.864L175.571 141.598C174.602 143.873 175.287 146.521 177.479 147.808C178.56 148.443 179.874 148.547 181.085 148.765C182.493 149.019 183.9 149.272 185.308 149.526C185.8 149.614 186.306 149.392 186.447 148.879C186.57 148.431 186.295 147.829 185.8 147.741C184.689 147.541 183.578 147.341 182.466 147.14C181.372 146.943 180.238 146.812 179.164 146.52C177.475 146.059 176.466 144.187 177.17 142.532C177.378 142.046 177.295 141.579 176.838 141.266C176.154 140.799 176.605 140.137 176.78 139.549C177.05 138.638 176.634 138.052 176.254 137.274C176.018 136.789 176.33 136.159 176.678 135.784C177.023 135.413 177.509 135.195 177.973 135.018C178.44 134.84 178.762 134.394 178.62 133.879C178.497 133.432 177.95 133.054 177.481 133.233Z" fill="#211715"/>
<path d="M75.1596 117.678C74.4547 116.433 73.5354 115.046 73.0968 114.554C69.857 110.925 65.5015 108.477 61.6555 106.062C57.1472 109.601 56.2204 109.954 53.8088 114.509C52.3457 117.271 51.2281 121.301 50.1698 125.964C48.9448 133.236 48.6507 137.229 48.1834 143.212C48.0291 144.73 47.9055 146.65 47.8281 148.373C54.9889 148.372 71.2891 148.372 71.2891 148.372C72.6614 148.638 74.081 148.737 75.4954 148.805C80.2071 149.032 84.947 148.928 89.6327 148.495C89.7077 144.169 89.3261 139.834 88.4929 135.589C83.2023 135.934 80.0005 135.055 79.0802 130.992C77.9413 125.966 76.927 120.801 75.1596 117.679" fill="#7ABEE6"/>
<path d="M58.5782 107.29C57.6644 108.007 56.7525 108.737 55.9624 109.592C55.1171 110.506 54.4168 111.545 53.7934 112.619C52.2882 115.212 51.2794 117.987 50.48 120.869C50.0076 122.573 49.5102 124.312 49.2193 126.057C48.9345 127.765 48.671 129.477 48.4389 131.193C48.0573 134.015 47.7697 136.846 47.5362 139.684C47.2495 143.166 46.9374 146.646 46.8364 150.14C46.8021 151.332 48.6547 151.331 48.689 150.14C48.7775 147.073 49.0429 144.022 49.2856 140.965C49.5051 138.202 49.7501 135.442 50.0956 132.691C50.5129 129.37 51.039 126.087 51.8723 122.843C52.5966 120.023 53.4141 117.188 54.8022 114.614C55.4464 113.419 56.1258 112.214 57.0193 111.184C57.8664 110.208 58.8751 109.395 59.889 108.6C60.2826 108.291 60.2127 107.615 59.889 107.291C59.4999 106.903 58.9738 106.982 58.5792 107.291L58.5782 107.29Z" fill="#211715"/>
<path d="M88.1092 138.148C88.5705 141.58 88.7743 145.039 88.7191 148.5C88.7001 149.692 90.5528 149.693 90.5717 148.5C90.6269 145.039 90.4231 141.58 89.9618 138.148C89.8951 137.653 89.5838 137.222 89.0355 137.222C88.5867 137.222 88.042 137.649 88.1092 138.148Z" fill="#211715"/>
<path d="M59.9928 138.163C60.5208 140.077 61.0567 142.008 62.0969 143.718C63.1617 145.468 64.6318 146.793 66.4598 147.718C70.7658 149.894 75.7988 149.856 80.5123 149.848C83.4001 149.843 86.286 149.712 89.1626 149.463C90.3413 149.361 90.352 147.509 89.1626 147.612C84.3991 148.024 79.5999 148.121 74.8257 147.844C71.0858 147.628 66.4552 146.772 64.1459 143.47C62.9149 141.711 62.3438 139.717 61.7792 137.671C61.4629 136.524 59.6747 137.011 59.9928 138.163Z" fill="#211715"/>
<path d="M76.5284 112.427C76.6081 111.571 76.7795 110.636 76.5173 109.797C76.2445 108.923 75.622 108.294 74.824 107.882C73.5059 107.2 72.1489 106.592 70.7886 106.002C68.1213 104.844 65.423 103.724 62.6751 102.769C61.5469 102.377 61.0619 104.165 62.1828 104.554C64.6217 105.402 67.0213 106.383 69.3931 107.402C70.6872 107.958 71.9752 108.53 73.2387 109.153C73.7583 109.409 74.4498 109.635 74.699 110.205C74.9727 110.831 74.737 111.774 74.6763 112.428C74.63 112.926 75.1353 113.353 75.6026 113.353C76.1422 113.353 76.4826 112.928 76.5289 112.428L76.5284 112.427Z" fill="#211715"/>
<path d="M74.3595 118.145C75.271 119.78 75.8346 121.586 76.3306 123.383C76.9406 125.591 77.4246 127.833 77.9239 130.068C78.2713 131.623 78.6307 133.117 79.7177 134.338C80.5967 135.326 81.8431 135.929 83.1135 136.232C84.9768 136.677 86.9359 136.625 88.833 136.49C90.0154 136.405 90.0247 134.553 88.833 134.638C86.3759 134.814 82.9732 135.072 81.1405 133.152C80.1618 132.126 79.9432 130.619 79.6394 129.257C79.1786 127.192 78.7265 125.124 78.1703 123.083C77.6219 121.07 76.9795 119.04 75.9592 117.211C75.3789 116.17 73.7782 117.102 74.3595 118.145Z" fill="#211715"/>
<path d="M61.586 107.109C64.0661 108.654 66.5982 110.146 68.9079 111.944C70.07 112.849 71.1746 113.834 72.1755 114.915C73.0555 115.865 73.721 117.026 74.3602 118.145C74.9511 119.18 76.5523 118.249 75.9599 117.211C75.2758 116.013 74.5491 114.779 73.6196 113.752C72.5821 112.605 71.4196 111.574 70.202 110.623C67.7723 108.725 65.1337 107.138 62.5211 105.51C61.5063 104.878 60.5754 106.479 61.586 107.109Z" fill="#211715"/>
<path d="M78.8047 121.508C78.8047 120.159 78.7834 118.811 78.7737 117.462C78.7639 116.068 78.8223 114.656 78.5805 113.278C78.4939 112.785 77.8904 112.508 77.4412 112.631C76.9206 112.774 76.7075 113.276 76.7941 113.77C77.0137 115.021 76.9132 116.351 76.922 117.617C76.9312 118.914 76.9516 120.211 76.9516 121.508C76.9516 122.699 78.8042 122.701 78.8042 121.508L78.8047 121.508Z" fill="#211715"/>
<path d="M48.7961 124.843C46.7884 124.843 44.8612 125.557 43.5496 127.128C42.5371 128.341 42.0105 129.827 42.0031 131.405C41.9961 132.905 42.0031 134.405 42.0031 135.905V157.24C42.0031 158.431 43.8557 158.433 43.8557 157.24V131.906C43.8557 131.088 43.8858 130.298 44.2114 129.524C45.0029 127.641 46.8259 126.694 48.7961 126.694C49.9883 126.694 49.9901 124.843 48.7961 124.843Z" fill="#211715"/>
<path d="M82.0547 87.6395C82.3576 88.2666 82.4854 89.8019 81.3215 90.125C79.7528 90.3717 79.3628 88.5541 79.7463 87.6066C80.0604 86.8308 81.2812 86.3296 82.0547 87.6395Z" fill="#211715"/>
<path d="M75.7435 107.55C75.9371 106.968 76.1575 106.398 76.4151 105.841C76.4873 105.685 76.5647 105.532 76.6369 105.376C76.6702 105.304 76.7846 105.086 76.7708 105.07L76.749 105.129C76.5531 105.188 76.5146 105.217 76.6332 105.219C76.6614 105.289 77.3983 105.31 77.5039 105.315C77.7874 105.33 78.0717 105.327 78.3552 105.311C79.0152 105.275 79.6775 105.18 80.3236 105.04C81.444 104.798 82.6324 104.429 83.555 103.729C84.5989 102.936 85.2682 101.759 85.6091 100.506C85.9777 99.1514 86.1014 97.705 86.1334 96.3057C86.1454 95.773 86.1672 95.3518 86.4622 94.8815C86.7558 94.4136 87.213 94.0715 87.5145 93.605C88.2569 92.4547 87.753 91.0685 86.6762 90.3353C86.3071 90.084 85.8819 89.9534 85.5521 89.6433C85.2159 89.3272 84.975 88.925 84.7907 88.5042C84.3512 87.5021 84.1942 86.3658 84.0723 85.2873C83.8982 83.7492 83.8565 82.2278 83.4851 80.7143C83.2012 79.5576 81.4143 80.0473 81.6987 81.2063C82.266 83.5183 82.0711 85.94 82.7408 88.2367C83.0242 89.2092 83.4647 90.1826 84.1932 90.9051C84.5656 91.2749 84.9908 91.5077 85.4456 91.7535C85.7439 91.915 86.1264 92.184 85.987 92.5556C85.8379 92.9532 85.3358 93.2972 85.0816 93.636C84.686 94.1636 84.3748 94.8325 84.2998 95.4934C84.2377 96.0401 84.2784 96.6085 84.2446 97.1597C84.1974 97.9253 84.1173 98.6899 83.9593 99.4416C83.7324 100.522 83.3151 101.641 82.3814 102.307C81.4907 102.942 80.2527 103.211 79.1912 103.375C78.5604 103.472 77.8999 103.511 77.2635 103.447C76.5679 103.377 75.9135 103.312 75.3845 103.882C75.3183 103.954 75.2067 104.096 75.1493 104.194C75.0941 104.315 75.0418 104.437 74.9913 104.559C75.0677 104.383 75.0872 104.335 75.0488 104.416C74.9696 104.578 74.8908 104.741 74.8149 104.906C74.4907 105.607 74.2003 106.324 73.9562 107.058C73.5792 108.191 75.3679 108.677 75.7426 107.55L75.7435 107.55Z" fill="#211715"/>
<path d="M82.2438 97.5114C83.2577 97.8317 84.3224 97.9789 85.3729 97.7641C85.5915 97.7192 85.8166 97.5262 85.9263 97.3388C86.0426 97.1402 86.0917 96.8477 86.0199 96.6255C85.8569 96.1219 85.39 95.8747 84.8805 95.9789C84.7888 95.9978 84.6967 96.0131 84.6036 96.0256L84.85 95.9927C84.4688 96.039 84.0867 96.0275 83.7064 95.9775L83.9528 96.0103C83.5392 95.9525 83.1345 95.8516 82.7361 95.7261C82.2739 95.5803 81.7047 95.8979 81.5968 96.3728C81.4819 96.8773 81.7487 97.3554 82.2438 97.5114Z" fill="#211715"/>
<path d="M62.6033 70.4733C63.2874 70.2604 63.9233 70.1141 64.4902 70.0003C67.3177 69.4328 70.1161 69.6879 72.6713 70.3701C78.0249 71.7999 80.6968 75.3135 81.1669 76.1045C81.574 76.7891 81.9098 77.4047 82.1858 78.0439C80.7654 83.0831 76.4724 87.6654 70.5964 90.5055C70.2175 90.2023 69.8072 89.9848 69.2685 89.9172C68.5859 89.8316 67.9513 89.9945 67.5016 90.4139C66.8324 91.0378 66.6314 92.1977 66.7888 93.1128C67.1292 95.0911 68.1686 96.4422 69.8164 97.2665C69.1551 100.086 68.8137 101.286 69.0013 103.657C69.1152 105.099 70.45 108.74 72.4546 109.43C70.5144 110.916 68.0857 112.076 65.7578 112.486C61.3593 113.26 57.0923 112.186 55.059 110.877C53.4042 109.812 52.2584 108.985 51.5368 107.126C51.1542 106.141 51.3612 104.546 51.5043 103.626C52.0272 100.264 52.9688 98.4584 51.8415 92.886C51.6322 91.9246 51.3955 90.0607 51.176 87.5742C51.0199 84.2273 52.0365 80.7577 53.4565 78.2934C56.3781 73.2241 59.874 71.3227 62.6033 70.4743V70.4733Z" fill="#645D5C"/>
<path d="M80.7923 79.2752C78.8429 83.8733 74.9227 87.2786 70.5385 89.5035C69.4752 90.0432 70.4116 91.641 71.4737 91.1023C76.0996 88.7546 80.3351 85.0624 82.392 80.2097C82.587 79.7497 82.53 79.2183 82.0595 78.9433C81.6709 78.7161 80.9882 78.8119 80.7923 79.2752Z" fill="#211715"/>
<path d="M68.7924 97.5745C68.2162 100.015 67.6377 102.593 68.3417 105.074C68.923 107.121 70.0873 109.53 72.2081 110.322C73.3262 110.74 73.8092 108.951 72.7004 108.537C71.9928 108.273 71.4717 107.505 71.0998 106.872C70.6366 106.085 70.2911 105.233 70.0651 104.348C70.0197 104.171 69.9808 103.993 69.9484 103.814C69.9424 103.782 69.916 103.567 69.935 103.739C69.9211 103.613 69.9146 103.488 69.9067 103.362C69.8706 102.782 69.8641 102.201 69.9049 101.621C69.9896 100.416 70.3022 99.2366 70.5787 98.0661C70.8525 96.9075 69.0666 96.4127 68.7924 97.574V97.5745Z" fill="#211715"/>
<path d="M84.0117 81.5264C83.668 78.9576 82.7945 76.4641 81.092 74.4715C79.3241 72.4025 76.9306 70.8825 74.3916 69.9452C68.6559 67.8281 61.8489 68.5173 57.066 72.4497C54.3894 74.6502 52.3437 77.7532 51.2321 81.0205C50.6078 82.8553 50.2512 84.8123 50.2349 86.7522C50.2201 88.5194 50.4966 90.337 50.7625 92.0829C50.9968 93.6206 51.3493 95.123 51.4257 96.6833C51.4859 97.9192 51.3979 99.143 51.1784 100.358C50.6805 103.115 49.6759 106.149 51.296 108.715C52.1209 110.022 53.3964 110.944 54.6951 111.742C56.0188 112.554 57.5727 113.032 59.089 113.321C62.9943 114.065 67.0122 113.622 70.5418 111.753C71.3764 111.311 72.1689 110.799 72.922 110.229C73.3203 109.928 73.5282 109.431 73.2545 108.963C73.0253 108.571 72.3884 108.328 71.9873 108.631C69.0273 110.869 65.6056 111.972 61.8916 111.801C58.9825 111.668 56.0206 110.835 53.8207 108.848C52.7827 107.911 52.2033 106.757 52.2501 105.352C52.29 104.152 52.5489 102.969 52.7827 101.796C53.0046 100.684 53.2042 99.5651 53.2714 98.4315C53.3589 96.9559 53.2163 95.4808 52.9861 94.0237C52.4914 90.8943 51.7601 87.7205 52.2649 84.5411C52.7994 81.1784 54.3084 78.0369 56.5755 75.4954C60.1816 71.4523 65.594 69.9151 70.886 70.9126C73.7607 71.4546 76.4938 72.6358 78.6632 74.6266C79.0143 74.9492 79.3505 75.2885 79.6659 75.6463C79.7776 75.7731 79.885 75.9027 79.992 76.0332C80.0235 76.0716 80.0541 76.111 80.0846 76.1503C80.0818 76.1466 79.9846 76.0189 80.0443 76.0994C80.0865 76.1568 80.1291 76.2137 80.1703 76.272C80.8081 77.1774 81.3277 78.2262 81.6654 79.2797C81.8993 80.0101 82.0586 80.7674 82.16 81.5269C82.2262 82.0222 82.5384 82.4526 83.0863 82.4526C83.5351 82.4526 84.0793 82.0259 84.0126 81.5269L84.0117 81.5264Z" fill="#211715"/>
<path d="M71.4013 89.9746C70.4435 89.1637 69.1865 88.7036 67.9397 89.1174C66.7684 89.5057 66.0584 90.5574 65.8787 91.7465C65.5814 93.7164 66.4836 95.9067 68.0083 97.1758C68.9059 97.9229 69.9563 98.4121 71.0776 98.7255C72.2276 99.0467 72.7185 97.261 71.5699 96.9402C71.0729 96.8014 70.6793 96.6676 70.2606 96.4561C69.8683 96.258 69.4477 95.9835 69.2074 95.7724C68.8813 95.4864 68.6507 95.2253 68.4663 94.9481C68.1931 94.5371 68.0486 94.2325 67.9138 93.8168C67.6382 92.9675 67.4946 92.0552 67.9661 91.2952C68.4006 90.5953 69.4612 90.7504 70.0915 91.2841C70.4732 91.6071 71.0271 91.6581 71.4013 91.2841C71.7329 90.9527 71.7848 90.2996 71.4013 89.9751V89.9746Z" fill="#211715"/>
<path d="M94.1483 137.017C95.4049 136.294 96.7628 135.551 98.2486 135.505C99.3023 135.473 100.484 135.829 101.098 136.75C101.375 137.166 101.916 137.345 102.366 137.082C102.779 136.841 102.976 136.234 102.698 135.816C101.762 134.411 100.153 133.682 98.4867 133.653C96.5831 133.62 94.8213 134.494 93.2132 135.419C92.1804 136.014 93.1123 137.614 94.1483 137.018V137.017Z" fill="#211715"/>
<path d="M101.298 137.438C101.386 137.411 101.475 137.392 101.565 137.371C101.692 137.341 101.523 137.386 101.487 137.379C101.528 137.387 101.588 137.369 101.631 137.366C101.81 137.354 101.99 137.359 102.169 137.375C102.367 137.394 102.155 137.35 102.139 137.368C102.151 137.354 102.279 137.391 102.295 137.394C102.39 137.411 102.484 137.431 102.578 137.454C102.78 137.503 102.979 137.564 103.175 137.635C103.216 137.65 103.258 137.666 103.299 137.682C103.42 137.728 103.376 137.735 103.293 137.676C103.37 137.73 103.479 137.759 103.565 137.8C103.751 137.89 103.933 137.989 104.109 138.096C104.269 138.194 104.415 138.32 104.576 138.412C104.39 138.307 104.501 138.352 104.553 138.396C104.59 138.427 104.628 138.458 104.664 138.49C104.735 138.551 104.802 138.615 104.868 138.681C105.213 139.023 105.839 139.05 106.178 138.681C106.517 138.312 106.546 137.736 106.178 137.372C105.477 136.676 104.591 136.184 103.667 135.85C102.772 135.526 101.732 135.372 100.805 135.653C100.342 135.793 100.001 136.307 100.158 136.791C100.309 137.259 100.801 137.588 101.297 137.438H101.298Z" fill="#211715"/>
<path d="M102.755 139.373C102.89 139.33 103.026 139.289 103.164 139.257C103.232 139.241 103.303 139.232 103.371 139.214C103.509 139.177 103.165 139.224 103.418 139.207C103.657 139.191 103.893 139.195 104.131 139.217C104.263 139.229 104.116 139.23 104.075 139.209C104.112 139.228 104.186 139.229 104.23 139.238C104.332 139.259 104.433 139.285 104.533 139.316C104.635 139.348 104.734 139.386 104.834 139.424C104.95 139.468 104.628 139.325 104.826 139.423C104.878 139.448 104.93 139.472 104.982 139.498C105.199 139.606 105.41 139.726 105.617 139.85C105.736 139.921 105.864 140.031 105.992 140.08C106.101 140.123 105.832 139.927 105.894 140.006C105.914 140.031 105.944 140.054 105.966 140.078C105.991 140.105 106.081 140.217 105.986 140.096C105.884 139.965 105.995 140.114 106.007 140.134C106.047 140.194 106.099 140.367 106.154 140.401C106.119 140.379 106.095 140.233 106.136 140.364C106.153 140.419 106.171 140.473 106.186 140.529C106.199 140.581 106.227 140.649 106.224 140.704L106.209 140.604C106.213 140.654 106.215 140.705 106.215 140.755C106.225 141.239 106.634 141.704 107.142 141.681C107.635 141.659 108.079 141.274 108.068 140.755C108.053 140.055 107.802 139.422 107.369 138.879C107.029 138.451 106.461 138.177 105.982 137.931C104.802 137.328 103.538 137.184 102.264 137.588C101.803 137.734 101.459 138.238 101.617 138.727C101.767 139.189 102.262 139.53 102.756 139.373L102.755 139.373Z" fill="#211715"/>
<path d="M90.4228 144.853C90.7613 145.591 91.5315 146.049 92.2605 146.329C93.1239 146.66 93.9992 146.564 94.8945 146.433C95.8602 146.291 96.8022 146.032 97.7206 145.706C98.1759 145.544 98.6256 145.367 99.0717 145.181C99.5529 144.981 99.8553 144.832 100.379 144.892C100.877 144.95 101.305 144.425 101.305 143.967C101.305 143.418 100.878 143.099 100.379 143.041C99.463 142.934 98.7345 143.345 97.9068 143.668C97.0792 143.99 96.2353 144.272 95.3688 144.468C94.9677 144.559 94.5624 144.634 94.153 144.676C93.8204 144.709 93.4694 144.744 93.2563 144.697C92.7436 144.583 92.2138 144.335 92.0229 143.918C91.8145 143.464 91.1568 143.352 90.7558 143.586C90.2889 143.859 90.2139 144.397 90.4232 144.852L90.4228 144.853Z" fill="#211715"/>
<path d="M91.171 137.693C92.0056 137.744 92.8074 137.449 93.6244 137.336L93.378 137.369C93.4058 137.366 93.4331 137.362 93.4609 137.359C93.7151 137.329 93.9277 137.276 94.1158 137.088C94.2765 136.927 94.3974 136.664 94.3872 136.433C94.3765 136.194 94.2978 135.946 94.1158 135.779C93.9472 135.624 93.6989 135.479 93.4609 135.508C92.8291 135.583 92.2196 135.757 91.5911 135.845L91.8375 135.812C91.6161 135.841 91.3943 135.855 91.171 135.841C90.9427 135.828 90.6741 135.955 90.5161 136.113C90.3554 136.273 90.2346 136.537 90.2447 136.767C90.2684 137.294 90.6519 137.661 91.171 137.693Z" fill="#211715"/>
<path d="M92.1125 134.787C93.7192 133.462 95.6325 132.536 97.6592 132.065C98.623 131.842 99.6939 131.648 100.684 131.788C101.159 131.855 101.605 132.033 102.008 132.292C102.186 132.406 102.342 132.535 102.493 132.684C102.575 132.764 102.646 132.856 102.728 132.936C102.836 133.04 102.791 133.129 102.832 133.004C102.697 133.418 102.929 133.819 103.257 134.05C103.965 134.548 104.603 135.138 105.166 135.795C105.443 136.117 105.693 136.459 105.923 136.816C106.096 137.085 106.456 137.503 106.437 137.826L106.564 137.359L106.719 137.254H107.212L107.089 137.211C105.964 136.811 105.479 138.599 106.597 138.996C107.392 139.279 108.237 138.645 108.29 137.826C108.34 137.063 107.826 136.332 107.42 135.724C106.555 134.43 105.463 133.345 104.193 132.451L104.619 133.497C105.045 132.185 103.536 130.942 102.492 130.442C101.153 129.802 99.7323 129.852 98.297 130.066C95.5292 130.478 92.9531 131.705 90.8027 133.478C89.8824 134.236 91.1996 135.54 92.1125 134.787Z" fill="#211715"/>
<path d="M100.379 144.918C101.605 145.069 102.836 145.188 104.069 145.266C105.23 145.338 106.47 145.503 107.548 144.966C108.511 144.485 109.041 143.513 108.769 142.453C108.507 141.435 107.665 140.898 106.685 140.703C105.402 140.448 104.09 140.284 102.792 140.117C102.295 140.053 101.866 140.588 101.866 141.043C101.866 141.596 102.294 141.905 102.792 141.969C103.926 142.114 105.072 142.264 106.193 142.489C106.32 142.514 106.447 142.541 106.572 142.577C106.619 142.591 106.845 142.681 106.649 142.591C106.737 142.632 106.818 142.68 106.899 142.732C106.741 142.632 106.938 142.795 106.864 142.683C106.899 142.735 106.931 142.789 106.959 142.846C106.936 142.789 106.935 142.791 106.956 142.851C106.972 142.898 106.985 142.945 106.995 142.993C106.991 142.906 106.992 142.918 106.999 143.03C106.994 143.146 106.998 143.15 107.012 143.042C106.985 143.133 106.984 143.143 107.009 143.074C107.138 142.975 106.817 143.275 106.996 143.087C106.939 143.148 106.882 143.21 106.816 143.261C106.939 143.164 106.647 143.351 106.613 143.367C106.721 143.316 106.474 143.415 106.448 143.423C106.315 143.461 106.242 143.477 106.123 143.487C105.518 143.536 104.881 143.462 104.276 143.427C102.974 143.35 101.674 143.225 100.379 143.067C99.882 143.006 99.4531 143.536 99.4531 143.992C99.4531 144.543 99.8806 144.857 100.379 144.918H100.379Z" fill="#211715"/>
<path d="M164.194 20.6621V60.2085L165.121 59.2828H82.6936C81.5015 59.2828 81.4996 61.1342 82.6936 61.1342H165.121C165.621 61.1342 166.047 60.7102 166.047 60.2085V20.6621C166.047 19.4707 164.194 19.4688 164.194 20.6621Z" fill="#D9D9D9"/>
<path d="M128.978 0.0500001C124.548 2.43513 119.738 5.22988 114.689 6.44675C114.263 6.5495 114.262 7.15261 114.688 7.25675L119.211 8.36068C119.51 8.43381 119.636 8.79438 119.441 9.03229C112.458 17.5605 99.334 25.5028 87.9807 30.0832C87.4157 30.3114 87.6542 31.1557 88.2563 31.0622C94.6941 30.0633 100.835 28.1837 107.195 25.0718C113.642 21.9174 118.88 18.8926 123.07 13.6961C123.248 13.4748 123.589 13.4961 123.73 13.7433C124.398 14.9213 125.411 16.5242 126.335 18.0673C126.529 18.3914 127.019 18.3127 127.099 17.9438C128.176 12.9634 129.129 5.49047 129.586 0.453615C129.616 0.124521 129.269 -0.10691 128.978 0.0495373V0.0500001Z" fill="#096FCA"/>
<path d="M152.93 49.7053V50.2737C150.734 50.2774 147.638 50.2737 144.004 50.27V13.26H152.93V49.7053Z" fill="#096FCA"/>
<path d="M130.424 49.9501V24.5515H139.35V50.27C136.518 50.2662 133.505 50.2662 130.424 50.2662V49.9501Z" fill="#78AFDB"/>
<path d="M125.772 49.7053V50.2584C122.755 50.2584 119.742 50.2547 116.846 50.251V35.843H125.772V49.7053Z" fill="#B1D1EB"/>
<path d="M103.267 46.2508C103.267 45.6371 103.267 45.252 103.267 45.252H112.194V50.2485C108.873 50.2458 105.831 50.2425 103.266 50.2388C103.267 48.7466 103.267 47.2159 103.267 46.2508Z" fill="#D8E8F5"/>
</g>
</g>
<defs>
<clipPath id="clip0_786_1080">
<rect width="295" height="161" fill="white"/>
</clipPath>
<clipPath id="clip1_786_1080">
<rect width="211" height="169" fill="white" transform="translate(42)"/>
</clipPath>
</defs>
</svg>
