<svg width="295" height="161" viewBox="0 0 295 161" fill="none" xmlns="http://www.w3.org/2000/svg">
<g clip-path="url(#clip0_781_534)">
<path d="M51.2065 141.4H176.218C177.826 141.4 177.829 138.89 176.218 138.89H51.2065C49.5991 138.89 49.5965 141.4 51.2065 141.4Z" fill="#211715"/>
<path d="M73.1599 142.047C71.3325 141.368 69.5454 140.585 67.8075 139.7C65.9649 138.75 64.216 137.587 63.0053 135.899C61.2605 133.466 60.8129 130.18 61.2543 127.214C62.9454 115.854 66.4646 105.029 69.8052 94.0436C70.3095 92.3192 71.0666 90.6799 72.0517 89.1797L72.1616 88.9616C76.7009 82.0302 85.4605 79.027 95.498 75.0925C96.7577 74.094 98.0027 73.2154 98.9912 72.582C101.189 82.3879 104.06 92.8747 107.15 102.409C109.44 109.473 110.193 111.87 113.122 119.132H114.067C116.996 111.87 117.749 109.473 120.038 102.409C123.128 92.8737 126 82.3879 128.197 72.582C129.103 73.1647 130.223 73.9502 131.373 74.8446C141.675 78.9047 150.709 81.8869 155.345 88.9658L155.435 89.1488C156.402 90.6644 157.138 92.316 157.621 94.0494C160.962 105.035 164.481 115.859 166.173 127.22C166.614 130.186 166.166 133.472 164.422 135.905C163.211 137.592 161.824 139.204 159.982 140.153C157.58 141.301 154.949 141.884 152.29 141.856L73.1599 142.047Z" fill="#B3B3B3"/>
<path d="M135.009 41.0838C135.332 40.7837 135.711 40.5509 136.124 40.3989C136.537 40.2469 136.976 40.1788 137.416 40.1983C137.975 40.1801 138.528 40.3146 139.017 40.5874C139.505 40.8602 139.911 41.2612 140.191 41.7475C141.134 43.3908 141.094 46.419 140.461 48.2924C140.013 49.6193 139.279 51.6491 137.508 53.1041C137.119 53.4298 136.666 53.6709 136.179 53.8122C135.692 53.9534 135.181 53.9917 134.679 53.9247L134.407 53.8786C134.14 54.784 133.815 55.671 133.434 56.5339C132.72 58.4811 128.798 65.2744 123.821 67.9993C123.821 68.3769 123.821 68.6222 123.821 68.6222C123.407 68.9585 114.977 75.6373 114.337 76.0928H112.852C112.213 75.6373 103.783 68.9585 103.369 68.6222V67.8278C101.223 66.5758 99.3285 64.9326 97.7821 62.9826C95.5787 60.3083 93.9437 57.2089 92.9778 53.8755C92.4427 53.9889 91.889 53.9784 91.3585 53.8448C90.8281 53.7113 90.3348 53.4581 89.9162 53.1046C88.1464 51.6491 87.4115 49.6193 86.9628 48.2929C86.3299 46.4195 86.2903 43.3913 87.2335 41.748C87.5131 41.2617 87.9188 40.8607 88.4074 40.5878C88.896 40.3149 89.4491 40.1803 90.0078 40.1983C90.4473 40.1788 90.8863 40.2469 91.2994 40.3989C91.7126 40.5509 92.0916 40.7837 92.4146 41.0838C92.4146 41.0838 88.6352 22.573 113.12 22.573C138.017 22.573 135.009 41.0838 135.009 41.0838Z" fill="white"/>
<path d="M95.7085 36.642C94.8397 37.5416 93.9955 38.5139 93.7857 39.7116C93.6202 40.6577 93.5405 41.3026 93.4781 41.9757L92.4157 41.0834C92.0927 40.7834 91.7136 40.5507 91.3005 40.3988C90.8874 40.2469 90.4484 40.1788 90.0089 40.1985C89.575 40.2081 89.1458 40.2912 88.7394 40.4443C88.0323 37.6788 87.6845 34.833 87.7046 31.9779C87.5281 25.6709 89.8907 19.3106 92.8498 16.3996C94.1432 14.6003 95.6811 12.9921 97.4188 11.6219C102.073 8.07094 107.776 6.18693 113.619 6.26997C119.67 6.26997 125.815 7.76838 130.285 13.3028C136.346 18.001 139.163 21.5538 139.602 31.9779C139.704 34.8234 139.364 37.6675 138.594 40.4077C138.215 40.2782 137.818 40.2076 137.417 40.1985C136.977 40.1789 136.538 40.2471 136.125 40.3991C135.712 40.5511 135.333 40.7838 135.01 41.0839L132.159 38.1441C131.037 34.3293 127.995 31.175 124.362 30.3905L113.207 28.8492C111.262 28.6079 109.3 28.5205 107.341 28.5877C105.704 28.5679 104.073 28.7989 102.505 29.2729C101.138 29.735 99.9839 30.6786 99.2552 31.9292C98.4882 33.2819 97.5945 34.5579 96.586 35.7398C96.3055 36.0364 96.0051 36.335 95.7085 36.642Z" fill="#645D5C"/>
<path d="M113.121 119.128C110.192 111.866 109.438 109.469 107.149 102.404C104.312 93.6503 101.66 84.0944 99.5433 74.9988C99.4636 74.5448 99.485 74.0787 99.6059 73.634C99.7267 73.1893 99.9441 72.777 100.242 72.4267C101.194 71.3189 102.394 69.7159 103.365 68.6223C103.779 68.9586 112.209 75.6374 112.849 76.0929H114.335C114.974 75.6374 123.404 68.9586 123.818 68.6223C124.791 69.7159 125.991 71.3189 126.941 72.4267C127.239 72.7769 127.457 73.1892 127.577 73.634C127.698 74.0787 127.72 74.5448 127.64 74.9988C125.524 84.0939 122.871 93.6498 120.034 102.404C117.744 109.469 116.991 111.866 114.062 119.128H113.121Z" fill="white"/>
<path d="M110.575 112.583C111.252 114.42 112.037 116.441 113.121 119.128H114.065C116.762 112.443 117.614 109.88 119.519 104.004C118.595 96.0472 117.374 86.585 117.374 86.3062C117.393 85.8037 117.469 85.305 117.601 84.8198C117.657 84.5974 117.708 84.3751 117.754 84.153C117.997 83.0484 118.042 82.4825 118.326 81.3115L118.344 81.2545C116.984 79.412 115.339 77.2274 114.336 76.094H112.851C111.857 77.2174 110.231 79.3748 108.878 81.2074C108.955 81.4234 109.004 81.5647 109.004 81.5647C109.297 82.3018 109.53 83.0618 109.699 83.8371C110.006 84.6838 110.191 85.5702 110.249 86.4694C110.256 86.9375 108.971 95.9097 107.779 104.351C108.857 107.673 109.603 109.938 110.575 112.583Z" fill="#096FCA"/>
<path d="M106.966 118.806C101.686 109.614 96.4703 100.379 91.6062 90.9562C91.4427 90.6399 91.2798 90.3231 91.1174 90.0058C90.9169 89.7125 90.7545 89.3945 90.6344 89.0597C90.6229 88.9923 90.4199 89.305 90.7593 88.9264C90.9805 88.68 91.2122 88.4421 91.4417 88.2036C92.5348 87.0676 93.6747 85.9792 94.8214 84.8987C94.9542 84.7619 95.0546 84.5967 95.1149 84.4154C95.1752 84.2341 95.1939 84.0414 95.1695 83.8518C95.1452 83.6622 95.0785 83.4806 94.9744 83.3207C94.8703 83.1607 94.7315 83.0264 94.5684 82.928L92.5535 81.7721L91.6577 81.2585L91.0982 80.9374L90.8743 80.8093C90.723 80.7103 90.723 80.7256 90.8743 80.8553L91.0451 81.4887C91.0388 81.6356 91.0289 81.5384 91.094 81.4557C91.1605 81.3547 91.2212 81.2499 91.2757 81.1419C91.3798 80.9662 91.4958 80.7946 91.6135 80.6262C91.8638 80.276 92.1342 79.9407 92.4234 79.6221C93.1654 78.7977 93.9583 78.021 94.7974 77.2968C96.3146 75.9703 97.9258 74.7565 99.6184 73.665L97.7836 72.9145C100.651 85.683 104.245 98.2756 108.549 110.63C109.587 113.607 110.735 116.54 111.914 119.464C112.011 119.78 112.224 120.046 112.509 120.209C112.795 120.372 113.132 120.419 113.451 120.341C113.769 120.251 114.039 120.038 114.203 119.749C114.366 119.46 114.409 119.118 114.323 118.797C109.709 107.346 106.067 95.4817 102.941 83.5399C101.959 79.792 101.043 76.0278 100.192 72.2471C100.14 72.0627 100.047 71.8927 99.9192 71.75C99.7917 71.6073 99.6336 71.4955 99.4568 71.4233C99.28 71.351 99.0892 71.3201 98.8988 71.3329C98.7084 71.3457 98.5233 71.4019 98.3577 71.4971C95.7113 73.1615 93.2708 75.1353 91.0872 77.3773C90.1545 78.3637 88.8282 79.7183 88.5784 81.1116C88.3504 82.3799 89.4846 82.9065 90.3955 83.429L93.3056 85.0979L93.0527 83.1267C91.9971 84.1204 90.9467 85.1236 89.9333 86.1633C89.0161 87.1047 87.8059 88.1356 88.1875 89.6068C88.398 90.2265 88.6746 90.8215 89.0125 91.3813C89.339 92.0177 89.6673 92.6531 89.9973 93.2877C90.6302 94.5042 91.2687 95.7176 91.9128 96.9278C94.5814 101.946 97.3349 106.917 100.128 111.866C101.677 114.61 103.236 117.347 104.807 120.077C105.61 121.476 107.77 120.213 106.964 118.81L106.966 118.806Z" fill="#211715"/>
<path d="M122.378 120.074C127.968 110.339 133.558 100.571 138.603 90.5367C139.003 89.9062 139.14 89.143 138.983 88.4122C138.704 87.7124 138.257 87.0928 137.682 86.6084C136.537 85.4054 135.34 84.2611 134.131 83.1236L133.878 85.0948L136.788 83.4259C137.665 82.9227 138.7 82.4672 138.627 81.2752C138.582 80.5226 138.022 79.7523 137.586 79.1597C137.127 78.5338 136.629 77.9375 136.096 77.3741C133.912 75.132 131.472 73.1581 128.825 71.494C128.66 71.3987 128.475 71.3425 128.284 71.3297C128.094 71.3169 127.903 71.3478 127.726 71.4201C127.549 71.4923 127.391 71.6041 127.264 71.7468C127.136 71.8896 127.043 72.0596 126.99 72.244C124.123 85.0125 120.529 97.6051 116.225 109.96C115.187 112.937 114.039 115.87 112.86 118.794C112.774 119.115 112.817 119.457 112.98 119.746C113.144 120.035 113.414 120.248 113.732 120.338C114.051 120.418 114.389 120.372 114.675 120.209C114.961 120.045 115.174 119.778 115.269 119.461C119.883 108.007 123.524 96.1459 126.651 84.2041C127.632 80.4562 128.548 76.692 129.399 72.9113L127.565 73.6618C129.257 74.7532 130.868 75.967 132.385 77.2936C133.201 77.999 133.974 78.7531 134.7 79.5519C134.993 79.8713 135.268 80.2071 135.524 80.5577C135.644 80.7266 135.76 80.8987 135.869 81.0755C135.932 81.1801 135.986 81.2925 136.055 81.3924C136.103 81.4641 136.147 81.6869 136.138 81.4881L136.309 80.8547C136.408 80.6612 136.397 80.7705 136.198 80.8731C136.008 80.9709 135.824 81.0875 135.639 81.1937L134.631 81.769L132.619 82.9279C132.455 83.0263 132.317 83.1606 132.212 83.3207C132.108 83.4807 132.041 83.6624 132.017 83.8521C131.993 84.0418 132.012 84.2345 132.072 84.4159C132.133 84.5972 132.233 84.7625 132.366 84.8992C133.361 85.8374 134.352 86.782 135.311 87.7574C135.515 87.9666 135.717 88.1758 135.918 88.385C136.086 88.5618 136.527 88.8829 136.594 89.1104C136.613 89.1732 136.598 88.9211 136.552 89.0613C136.414 89.3882 136.253 89.7044 136.069 90.0074C134.876 92.3344 133.661 94.6498 132.425 96.9534C129.895 101.677 127.306 106.368 124.658 111.026C123.189 113.626 121.71 116.22 120.222 118.808C119.416 120.211 121.575 121.476 122.379 120.076L122.378 120.074Z" fill="#211715"/>
<path d="M117.05 84.1901C114.853 84.1901 112.656 84.1436 110.458 84.1431C110.127 84.1431 109.809 84.2753 109.575 84.5107C109.341 84.7461 109.209 85.0654 109.209 85.3983C109.209 85.7312 109.341 86.0505 109.575 86.2859C109.809 86.5213 110.127 86.6535 110.458 86.6535C112.656 86.6535 114.853 86.6995 117.05 86.7006C117.381 86.7006 117.699 86.5683 117.933 86.3329C118.168 86.0975 118.299 85.7783 118.299 85.4454C118.299 85.1125 118.168 84.7932 117.933 84.5578C117.699 84.3224 117.381 84.1901 117.05 84.1901Z" fill="#211715"/>
<path d="M117.122 80.9772C116.917 81.8428 116.781 82.7198 116.601 83.5922C116.335 84.4831 116.177 85.4029 116.129 86.3317C116.151 86.9311 116.267 87.5388 116.34 88.133C116.724 91.2574 117.116 94.3803 117.497 97.5053C117.762 99.6803 118.023 101.856 118.278 104.032C118.288 104.362 118.422 104.676 118.655 104.909C118.887 105.143 119.199 105.278 119.527 105.288C119.858 105.286 120.175 105.153 120.408 104.918C120.642 104.683 120.774 104.365 120.777 104.032C120.347 100.336 119.901 96.6421 119.438 92.9493C119.172 90.805 118.813 88.6466 118.645 86.4902C118.645 85.8871 118.737 85.2876 118.916 84.712C119.144 83.6947 119.295 82.6628 119.535 81.6482C119.907 80.0792 117.498 79.4076 117.126 80.9808L117.122 80.9772Z" fill="#211715"/>
<path d="M109.043 104.267C109.698 99.6302 110.364 94.9953 111.001 90.3547C111.167 89.1492 111.375 87.9384 111.477 86.725C111.509 85.9528 111.41 85.1808 111.184 84.4421C110.912 83.2426 110.544 82.067 110.083 80.927C109.914 80.6413 109.64 80.434 109.32 80.3497C109.001 80.2654 108.661 80.311 108.374 80.4767C108.094 80.6502 107.891 80.9254 107.808 81.2453C107.724 81.5651 107.766 81.9049 107.926 82.1942C108.122 82.709 108.277 83.239 108.387 83.7789C108.526 84.3051 108.708 84.8187 108.836 85.348C108.967 85.832 109.012 86.3357 108.967 86.8354C108.828 88.0875 108.703 88.8819 108.523 90.1826C107.905 94.6554 107.265 99.1261 106.634 103.596C106.557 103.916 106.604 104.254 106.766 104.541C106.928 104.828 107.193 105.042 107.506 105.14C107.826 105.226 108.166 105.182 108.454 105.018C108.741 104.854 108.953 104.583 109.043 104.263V104.267Z" fill="#211715"/>
<path d="M109.676 60.3457C110.992 61.0302 112.457 61.3719 113.938 61.3394C115.486 61.4029 117.011 60.9461 118.271 60.0413C118.505 59.8059 118.637 59.4867 118.637 59.1538C118.637 58.8209 118.505 58.5016 118.271 58.2662C118.032 58.04 117.716 57.9141 117.388 57.9141C117.06 57.9141 116.744 58.04 116.505 58.2662C116.892 57.9629 116.626 58.1705 116.526 58.2343C116.443 58.2866 116.356 58.3389 116.266 58.385C116.15 58.4462 115.861 58.5152 116.211 58.4232C116.09 58.4551 115.973 58.5152 115.854 58.5534C115.528 58.6553 115.194 58.7319 114.856 58.7825C115.043 58.7526 114.922 58.773 114.804 58.7825C114.706 58.7926 114.608 58.8008 114.51 58.807C114.274 58.8224 114.038 58.829 113.801 58.8269C113.589 58.8269 113.378 58.8192 113.166 58.8039C113.069 58.7973 112.972 58.7893 112.876 58.7798C112.831 58.7751 112.476 58.7129 112.778 58.7704C112.464 58.7169 112.153 58.6471 111.847 58.5612C111.716 58.522 111.586 58.4749 111.46 58.431C111.155 58.3264 111.683 58.5419 111.408 58.4116C111.248 58.3358 111.091 58.2547 110.934 58.1742C110.792 58.0896 110.636 58.034 110.472 58.0107C110.309 57.9873 110.143 57.9966 109.984 58.038C109.824 58.0795 109.674 58.1522 109.543 58.2521C109.411 58.352 109.301 58.477 109.218 58.62C109.134 58.7629 109.08 58.921 109.058 59.0851C109.036 59.2492 109.047 59.4161 109.089 59.5761C109.131 59.7361 109.205 59.8861 109.305 60.0175C109.405 60.1489 109.531 60.259 109.673 60.3415L109.676 60.3457Z" fill="#211715"/>
<path d="M113.228 50.354C113.421 51.0524 113.575 51.761 113.69 52.4764L113.645 52.1427C113.659 52.2397 113.661 52.338 113.653 52.4356L113.698 52.1019C113.691 52.1467 113.68 52.1906 113.665 52.2332L113.791 51.9335C113.778 51.9632 113.763 51.9915 113.745 52.0182L113.941 51.7641C113.92 51.7893 113.897 51.8123 113.871 51.8326L114.124 51.6364C114.071 51.6699 114.015 51.6996 113.957 51.7254L114.256 51.5988C114.165 51.6378 114.07 51.6655 113.973 51.6814L114.305 51.6364C114.218 51.6469 114.129 51.6469 114.041 51.6364L114.373 51.6814C114.273 51.6673 114.175 51.6432 114.075 51.6291C113.914 51.5771 113.742 51.5694 113.577 51.6066C113.412 51.6139 113.252 51.6654 113.113 51.7557C112.827 51.9237 112.619 52.199 112.535 52.521C112.451 52.843 112.498 53.1853 112.665 53.4727C112.744 53.6144 112.851 53.7385 112.979 53.8374C113.108 53.9363 113.255 54.008 113.411 54.048C113.653 54.081 113.888 54.1422 114.134 54.1526C114.511 54.1544 114.883 54.0646 115.218 53.8911C115.433 53.7912 115.623 53.6447 115.774 53.4621C115.926 53.2795 116.035 53.0654 116.094 52.8352C116.173 52.466 116.169 52.0842 116.085 51.7165C115.97 51.0329 115.812 50.3567 115.637 49.6846C115.594 49.5256 115.52 49.3768 115.419 49.2467C115.318 49.1165 115.192 49.0077 115.05 48.9263C114.907 48.8449 114.75 48.7925 114.587 48.7722C114.424 48.7519 114.259 48.7641 114.1 48.808C113.784 48.9019 113.517 49.1153 113.354 49.4032C113.192 49.6911 113.146 50.0312 113.228 50.3519V50.354Z" fill="#211715"/>
<path d="M102.178 44.3008C101.825 45.4514 102.055 48.1009 104.226 48.3279C107.095 48.3107 107.248 45.1083 106.282 43.602C105.491 42.3677 103.165 41.8552 102.178 44.3008Z" fill="#211715"/>
<path d="M125.247 44.3008C125.599 45.4514 125.37 48.1009 123.199 48.3279C120.329 48.3107 120.176 45.1083 121.142 43.602C121.934 42.3677 124.258 41.8552 125.247 44.3008Z" fill="#211715"/>
<path d="M93.2988 40.1985C92.588 39.5588 91.7057 39.1434 90.7616 39.0039C89.8176 38.8644 88.8536 39.007 87.9896 39.414C87.3809 39.7283 86.8489 40.1739 86.4315 40.7189C86.0142 41.2639 85.7219 41.8949 85.5755 42.5667C84.7354 45.7047 85.5328 49.3516 87.3124 52.0331C88.5179 53.8484 90.4266 55.4933 92.7476 55.1847C93.0756 55.1743 93.3873 55.0387 93.6194 54.8055C93.8514 54.5723 93.9864 54.2591 93.9968 53.9295C93.9968 53.3202 93.4211 52.5849 92.7476 52.6743C91.0143 52.9049 89.8385 51.4975 89.0697 50.1037C88.3681 48.8729 87.9319 47.5076 87.7892 46.0964C87.6851 44.8036 87.6914 43.2026 88.4877 42.1075C88.5372 42.0384 88.5273 42.0515 88.4591 42.1477C88.5112 42.0878 88.5655 42.0297 88.622 41.9736C88.6465 41.9516 88.8984 41.7502 88.7808 41.8334C89.0323 41.6591 89.3193 41.5432 89.6209 41.494C89.9545 41.4207 90.3004 41.4256 90.6318 41.5085C90.9632 41.5913 91.2711 41.7497 91.5317 41.9715C92.7257 43.0473 94.4986 41.278 93.2983 40.1964L93.2988 40.1985Z" fill="#211715"/>
<path d="M135.892 41.9715C136.14 41.7598 136.432 41.6055 136.746 41.5196C137.06 41.4337 137.389 41.4184 137.709 41.4746C138.045 41.5176 138.365 41.6407 138.643 41.8334C138.568 41.7811 139.075 42.2832 138.906 42.0656C139.742 43.1451 139.739 44.8041 139.635 46.0965C139.496 47.475 139.076 48.8101 138.402 50.019C137.635 51.44 136.445 52.907 134.679 52.6722C134.348 52.6737 134.031 52.8065 133.797 53.0415C133.563 53.2766 133.431 53.595 133.43 53.9274C133.438 54.2578 133.572 54.5724 133.804 54.806C134.037 55.0397 134.35 55.1746 134.679 55.1827C138.481 55.6884 140.821 51.4834 141.74 48.3945C142.553 45.6592 142.544 41.4349 139.904 39.6676C139.013 39.1171 137.969 38.8713 136.928 38.967C135.886 39.0627 134.903 39.4947 134.127 40.1985C132.929 41.2796 134.699 43.0499 135.893 41.9736L135.892 41.9715Z" fill="#211715"/>
<path d="M133.605 51.9743C133.251 53.4806 132.768 54.9533 132.162 56.376C132.092 56.5538 132.284 56.1218 132.158 56.3801C132.116 56.4685 132.077 56.559 132.035 56.6474C131.931 56.8686 131.82 57.0872 131.706 57.3038C131.446 57.8038 131.164 58.2938 130.874 58.776C129.372 61.3431 127.452 63.6378 125.192 65.5641C123.98 66.608 122.546 67.3573 120.999 67.754C119.434 68.1201 120.096 70.5406 121.664 70.1744C124.922 69.4145 127.638 67.0364 129.768 64.5485C131.591 62.4848 133.117 60.1735 134.299 57.6824C134.38 57.503 134.455 57.321 134.531 57.1385C134.553 57.0862 134.661 56.8247 134.588 56.9957C134.516 57.1667 134.595 56.9879 134.608 56.9591C134.68 56.7996 134.746 56.6364 134.812 56.4748C134.903 56.2536 134.991 56.0318 135.073 55.808C135.466 54.7781 135.779 53.7191 136.009 52.6406C136.334 51.0638 133.927 50.3917 133.601 51.9733L133.605 51.9743Z" fill="#211715"/>
<path d="M91.3502 52.566C92.3218 56.8696 94.3266 60.8688 97.1898 64.215C99.9584 67.443 103.526 70.0089 107.797 70.648C108.116 70.7258 108.453 70.6785 108.739 70.5156C109.024 70.3527 109.237 70.0866 109.334 69.7714C109.42 69.4504 109.376 69.1085 109.213 68.8195C109.05 68.5306 108.78 68.3179 108.461 68.2275C104.562 67.6449 101.487 65.3886 98.9564 62.4404C96.3946 59.4052 94.6104 55.7865 93.7592 51.8997C93.4036 50.325 90.9942 50.9913 91.3502 52.5671V52.566Z" fill="#211715"/>
<path d="M130.546 11.6836C127.521 8.39377 123.49 6.21127 119.091 5.48127C114.644 4.67388 110.074 4.87616 105.714 6.07331C101.498 7.24826 97.643 9.46896 94.5036 12.5314C93.6538 13.3749 92.8666 14.2799 92.1483 15.239C91.5909 15.9859 90.933 16.647 90.3984 17.4194C89.1735 19.2595 88.2391 21.2788 87.6282 23.4058C85.9777 28.8309 86.0605 34.9778 87.4471 40.4558C87.8432 42.0206 90.2537 41.3575 89.8565 39.7884C89.2811 37.4108 88.9804 34.9744 88.9602 32.5275C88.8853 30.2637 89.0934 27.9993 89.5796 25.7875C90.0301 23.7398 90.7713 21.7677 91.7803 19.932C92.1809 19.1976 92.6538 18.5055 93.192 17.8661C93.8447 17.1135 94.4318 16.3127 95.0897 15.5648C97.7334 12.5458 101.115 10.2711 104.9 8.96502C108.829 7.6335 113.005 7.20456 117.12 7.7098C121.579 8.11784 125.73 10.1645 128.78 13.4577C129.863 14.6559 131.626 12.8766 130.546 11.6826V11.6836Z" fill="#211715"/>
<path d="M139.871 40.4552C140.446 38.2407 140.78 35.9702 140.868 33.6833C140.896 31.5127 140.745 29.3436 140.418 27.198C140.056 24.0718 138.973 21.0735 137.256 18.4413C136.297 17.0794 135.187 15.831 133.948 14.7201C132.76 13.6359 130.988 15.4063 132.181 16.4952C134.113 18.1506 135.646 20.225 136.664 22.5621C137.959 25.7634 138.33 29.3564 138.374 32.7842C138.367 35.1477 138.06 37.5006 137.462 39.7862C137.08 41.3553 139.488 42.0247 139.871 40.4536V40.4552Z" fill="#211715"/>
<path d="M113.206 27.594C111.016 27.3237 108.806 27.2434 106.602 27.3539C104.602 27.4387 102.402 27.6787 100.658 28.7525C99.051 29.7415 98.1776 31.3262 97.186 32.8722C96.6588 33.709 96.0484 34.4898 95.3643 35.2027C94.7147 35.8386 94.1111 36.5203 93.5581 37.2424C92.3458 38.9056 92.2969 41.0766 92.1387 43.0604C92.1413 43.3925 92.2737 43.7102 92.5074 43.9451C92.7411 44.1799 93.0574 44.313 93.3879 44.3156C93.7172 44.309 94.0311 44.1747 94.264 43.9407C94.4969 43.7067 94.6306 43.3912 94.6371 43.0604C94.6932 42.0495 94.8114 41.043 94.9911 40.0468C95.2239 39.1717 95.7004 38.3815 96.3647 37.7691C97.146 36.9869 97.8801 36.1584 98.5628 35.288C99.2452 34.3617 99.8006 33.3528 100.441 32.3999C101.581 30.6986 103.422 30.1353 105.38 29.9465C107.988 29.7049 110.613 29.7576 113.209 30.1034C113.54 30.1019 113.857 29.9691 114.091 29.7341C114.324 29.499 114.457 29.1806 114.458 28.8482C114.45 28.5178 114.316 28.2032 114.083 27.9696C113.851 27.7359 113.538 27.6011 113.209 27.593L113.206 27.594Z" fill="#211715"/>
<path d="M124.03 31.6006C124.475 31.6984 124.912 31.8296 125.337 31.9929C125.389 32.0122 125.441 32.0326 125.489 32.053C125.377 32.0038 125.361 31.9974 125.443 32.0337C125.542 32.0802 125.643 32.1241 125.741 32.1722C125.939 32.2678 126.134 32.3705 126.325 32.4803C126.533 32.5992 126.736 32.7256 126.935 32.8595C127.028 32.9212 127.119 32.985 127.209 33.0499C127.252 33.0807 127.513 33.2768 127.313 33.1215C127.667 33.3984 128.004 33.698 128.319 34.0185C128.64 34.3413 128.941 34.6827 129.221 35.0409C129.065 34.8438 129.291 35.1393 129.301 35.1529C129.368 35.246 129.434 35.3399 129.499 35.4348C129.628 35.6258 129.752 35.82 129.87 36.0174C130.108 36.4149 130.323 36.826 130.513 37.2486C130.545 37.3192 130.576 37.3903 130.607 37.4614C130.563 37.3568 130.559 37.3479 130.592 37.4306C130.635 37.5388 130.677 37.6476 130.717 37.7569C130.804 37.9949 130.882 38.235 130.955 38.4776C130.998 38.6366 131.073 38.7853 131.173 38.9154C131.274 39.0454 131.4 39.1543 131.542 39.2357C131.685 39.3171 131.842 39.3694 132.005 39.3898C132.168 39.4101 132.333 39.398 132.491 39.3542C132.649 39.3104 132.797 39.2357 132.927 39.1344C133.056 39.0331 133.165 38.9071 133.246 38.7638C133.327 38.6204 133.379 38.4624 133.399 38.2988C133.419 38.1352 133.407 37.9692 133.364 37.8103C132.146 33.7439 128.921 30.1221 124.695 29.1806C124.376 29.0922 124.034 29.1348 123.746 29.2992C123.458 29.4637 123.246 29.7364 123.158 30.0575C123.07 30.3785 123.113 30.7216 123.276 31.0112C123.44 31.3007 123.711 31.5132 124.031 31.6016L124.03 31.6006Z" fill="#211715"/>
<path d="M121.31 28.4306C120.715 26.8676 119.591 25.5652 118.135 24.7523C116.218 23.7063 113.981 23.4155 111.837 23.2795C111.506 23.2815 111.19 23.4143 110.956 23.6493C110.722 23.8843 110.59 24.2024 110.588 24.5348C110.595 24.8654 110.729 25.1804 110.962 25.4142C111.195 25.6481 111.508 25.7826 111.837 25.79C112.39 25.825 112.943 25.8716 113.493 25.9432C113.271 25.9144 113.622 25.9631 113.665 25.9694C113.786 25.9882 113.908 26.0082 114.029 26.0295C114.259 26.0703 114.487 26.116 114.715 26.1665C115.129 26.2583 115.538 26.3728 115.939 26.5096C116.032 26.5415 116.125 26.575 116.216 26.6095C116.341 26.6571 116.464 26.7099 116.268 26.6252C116.448 26.7037 116.625 26.7868 116.799 26.8784C116.95 26.9589 117.099 27.0447 117.245 27.1362C117.314 27.1805 117.383 27.2263 117.453 27.2737C117.486 27.2968 117.723 27.4678 117.557 27.3438C117.391 27.2199 117.617 27.3961 117.649 27.4207C117.709 27.472 117.767 27.5243 117.825 27.5776C117.939 27.6822 118.048 27.7927 118.152 27.9092C118.204 27.9662 118.252 28.0258 118.303 28.0834C118.488 28.2926 118.236 27.9735 118.297 28.0708C118.377 28.201 118.473 28.3219 118.554 28.4526C118.634 28.5834 118.71 28.7199 118.781 28.8579C118.825 28.9437 119.051 29.462 118.901 29.098C118.998 29.4132 119.211 29.6793 119.497 29.8422C119.782 30.005 120.119 30.0524 120.438 29.9746C120.756 29.8843 121.026 29.6716 121.19 29.3826C121.353 29.0936 121.396 28.7515 121.31 28.4306Z" fill="#211715"/>
<path d="M102.485 67.7353C101.894 68.4053 101.34 69.1035 100.779 69.8012C100.197 70.5287 99.541 71.2259 99.0095 71.9921C98.5769 72.5782 98.3176 73.2751 98.2615 74.0027C98.2054 74.7302 98.3548 75.4589 98.6925 76.105C99.9428 78.234 101.359 80.2604 102.927 82.1651C103.822 83.3398 104.888 84.3722 106.089 85.2273C106.377 85.3874 106.715 85.4299 107.034 85.3461C107.352 85.2622 107.626 85.0584 107.798 84.777C109.746 82.1619 111.579 79.4313 113.732 76.981C113.863 76.8431 113.961 76.6776 114.02 76.4966C114.079 76.3155 114.097 76.1235 114.073 75.9346C114.049 75.7457 113.983 75.5646 113.88 75.4045C113.777 75.2444 113.64 75.1094 113.479 75.0093C113.406 74.957 113.334 74.9016 113.263 74.8472C113.176 74.7813 112.751 74.4518 113.071 74.7002C112.697 74.4094 112.324 74.1179 111.952 73.8257C110.917 73.0137 109.883 72.1995 108.852 71.3833C107.316 70.1699 105.77 68.9675 104.249 67.7353C104.01 67.5088 103.694 67.3825 103.366 67.3825C103.037 67.3825 102.721 67.5088 102.482 67.7353C102.25 67.9718 102.12 68.2906 102.12 68.6229C102.12 68.9551 102.25 69.2739 102.482 69.5104C104.039 70.7714 105.621 72.002 107.193 73.2436C108.859 74.559 110.496 75.9371 112.218 77.1772L111.965 75.2059C109.672 77.8163 107.716 80.7252 105.641 83.5097L107.35 83.0594C106.832 82.6949 106.357 82.2739 105.932 81.8042C105.387 81.2336 104.877 80.628 104.385 80.0087C103.461 78.8445 102.613 77.6154 101.803 76.3691C101.515 75.9261 101.231 75.48 100.96 75.0255C100.869 74.89 100.787 74.7485 100.715 74.6019C100.657 74.4669 100.733 74.5951 100.74 74.6427C100.721 74.5037 100.723 74.3628 100.744 74.2243C100.877 73.3681 101.625 72.7238 102.141 72.0799C102.835 71.2164 103.516 70.3425 104.249 69.5114C105.314 68.3043 103.554 66.5225 102.485 67.7353Z" fill="#211715"/>
<path d="M122.936 69.5102C123.669 70.3413 124.35 71.2152 125.044 72.0787C125.56 72.7204 126.309 73.3679 126.441 74.223C126.462 74.3591 126.466 74.4973 126.451 74.6341C126.451 74.6273 126.533 74.4547 126.47 74.6012C126.398 74.7476 126.316 74.8892 126.225 75.0248C125.954 75.4788 125.67 75.9254 125.383 76.3684C124.572 77.6147 123.724 78.8438 122.8 80.008C122.309 80.6273 121.799 81.2329 121.253 81.8035C120.828 82.2732 120.353 82.6942 119.836 83.0587L121.544 83.509C119.47 80.7245 117.514 77.8156 115.22 75.2052L114.967 77.1749C116.689 75.9348 118.327 74.5567 119.992 73.2414C121.564 71.9997 123.147 70.7691 124.703 69.5081C124.935 69.2717 125.066 68.9528 125.066 68.6206C125.066 68.2883 124.935 67.9694 124.703 67.733C124.465 67.5046 124.149 67.3771 123.82 67.3771C123.49 67.3771 123.174 67.5046 122.936 67.733C121.415 68.9652 119.869 70.1676 118.333 71.381C117.301 72.1966 116.268 73.0107 115.233 73.8235C114.861 74.116 114.488 74.4075 114.115 74.6979C114.434 74.4495 114.011 74.779 113.923 74.8449C113.851 74.8972 113.779 74.9547 113.706 75.007C113.545 75.1071 113.408 75.2421 113.305 75.4022C113.202 75.5623 113.136 75.7434 113.112 75.9323C113.088 76.1213 113.106 76.3133 113.165 76.4943C113.224 76.6753 113.322 76.8408 113.453 76.9788C115.607 79.4291 117.44 82.1607 119.387 84.7747C119.558 85.0572 119.832 85.262 120.151 85.3459C120.47 85.4299 120.808 85.3866 121.096 85.225C123.371 83.724 125.056 81.2632 126.586 79.0535C127.203 78.1618 127.803 77.2549 128.362 76.324C128.707 75.7576 128.901 75.1107 128.923 74.4466C128.945 73.7825 128.795 73.124 128.487 72.5358C127.998 71.6973 127.413 70.9195 126.744 70.2184C126.073 69.3816 125.412 68.5374 124.702 67.733C123.635 66.5228 121.873 68.3036 122.936 69.5102Z" fill="#211715"/>
<path d="M113.71 98.9807C97.8809 99.0958 82.1282 99.1899 76.5348 99.2077C76.3236 99.2082 76.1145 99.2506 75.9196 99.3324C75.7246 99.4142 75.5476 99.5339 75.3987 99.6844C75.2498 99.835 75.132 100.014 75.0518 100.21C74.9717 100.406 74.9308 100.617 74.9317 100.829C74.9644 109.96 75.4001 141.56 75.7364 153.175C75.749 153.601 75.9281 154.004 76.2347 154.298C76.5413 154.591 76.9508 154.752 77.3744 154.744C82.4291 154.666 98.0849 154.714 113.71 154.768C129.335 154.716 144.992 154.666 150.045 154.744C150.469 154.752 150.878 154.591 151.185 154.298C151.491 154.004 151.67 153.601 151.683 153.175C152.017 141.56 152.455 109.96 152.487 100.829C152.488 100.617 152.447 100.406 152.367 100.21C152.287 100.014 152.169 99.835 152.02 99.6844C151.871 99.5339 151.694 99.4142 151.5 99.3324C151.305 99.2506 151.096 99.2082 150.884 99.2077C145.293 99.1883 129.541 99.0958 113.71 98.9807Z" fill="white"/>
<path d="M76.5383 97.9525C76.0409 97.962 75.5541 98.0978 75.1231 98.3473C74.692 98.5967 74.3308 98.9518 74.0731 99.3793C73.7712 99.9869 73.6381 100.665 73.688 101.343C73.6921 102.213 73.698 103.082 73.7057 103.952C73.7244 106.317 73.748 108.681 73.7764 111.046C73.8458 117.126 73.9283 123.206 74.0237 129.285C74.115 135.171 74.2201 141.057 74.3391 146.943C74.3644 148.131 74.3915 149.318 74.4203 150.506C74.3621 151.596 74.4107 152.689 74.5655 153.769C74.7327 154.437 75.1267 155.026 75.6795 155.433C76.2322 155.84 76.9091 156.041 77.5933 156C77.9192 156 78.245 155.994 78.5703 155.992C81.2624 155.973 83.9539 155.97 86.646 155.965C90.935 155.956 95.2238 155.951 99.5125 155.949C104.551 155.945 109.588 155.943 114.626 155.944C119.637 155.944 124.649 155.946 129.659 155.95C133.797 155.953 137.935 155.959 142.073 155.968C144.514 155.973 146.954 155.974 149.394 155.996C149.922 156.035 150.453 155.988 150.966 155.856C151.419 155.705 151.829 155.443 152.156 155.093C152.484 154.744 152.721 154.318 152.844 153.854C152.951 153.265 152.992 152.665 152.966 152.067C153.028 149.749 153.081 147.432 153.125 145.115C153.248 139.057 153.352 132.999 153.437 126.94C153.526 121.004 153.604 115.067 153.67 109.131C153.693 106.965 153.713 104.799 153.73 102.632C153.736 101.598 153.9 100.389 153.39 99.4535C153.099 98.9586 152.675 98.5557 152.167 98.2902C151.66 98.0247 151.088 97.9074 150.518 97.9514C148.227 97.9459 145.937 97.9434 143.647 97.9441C139.602 97.942 135.558 97.9406 131.513 97.9399H116.539C111.403 97.9399 106.266 97.9399 101.129 97.9399C96.6662 97.9399 92.2038 97.941 87.7417 97.9431C84.712 97.9431 81.6825 97.9452 78.6531 97.9494C77.948 97.9494 77.2425 97.9508 76.5367 97.9535C74.9294 97.9588 74.9262 100.469 76.5367 100.464C78.5042 100.457 80.4716 100.455 82.4387 100.457C86.1864 100.454 89.9322 100.453 93.676 100.452C98.4512 100.452 103.226 100.452 108.001 100.452C113.058 100.452 118.114 100.452 123.17 100.452C127.758 100.452 132.346 100.453 136.934 100.455C140.305 100.455 143.677 100.457 147.047 100.46C148.043 100.46 149.038 100.462 150.034 100.464C150.317 100.439 150.603 100.439 150.886 100.464C151.49 100.582 151.235 101.856 151.232 102.35C151.202 107.156 151.142 111.962 151.08 116.767C151.001 122.916 150.91 129.064 150.807 135.213C150.718 140.484 150.625 145.756 150.495 151.026C150.482 151.512 150.47 151.998 150.457 152.484C150.448 152.798 150.55 153.307 150.226 153.463C149.935 153.524 149.635 153.531 149.341 153.486C148.398 153.478 147.454 153.473 146.51 153.471C143.208 153.458 139.906 153.451 136.604 153.448C132.058 153.442 127.512 153.438 122.967 153.437C117.947 153.435 112.927 153.435 107.907 153.437C103.183 153.437 98.4584 153.44 93.7343 153.446C90.0762 153.45 86.4179 153.456 82.7594 153.466C81.5705 153.469 80.3817 153.474 79.1929 153.48C78.8004 153.482 78.4081 153.484 78.016 153.487C77.7646 153.487 77.305 153.568 77.1238 153.413C76.8636 153.193 76.9739 152.595 76.9677 152.279C76.9545 151.786 76.9418 151.292 76.9297 150.799C76.9016 149.672 76.8756 148.546 76.8516 147.42C76.7933 144.731 76.7413 142.043 76.6955 139.354C76.5851 133.209 76.4886 127.065 76.4061 120.92C76.3328 115.617 76.2704 110.314 76.2187 105.01C76.2103 104.109 76.2034 103.207 76.1979 102.305C76.1947 101.88 75.9475 100.499 76.544 100.465C78.1367 100.371 78.1472 97.8599 76.5383 97.9525Z" fill="#211715"/>
<path d="M82.5017 149.288C90.1365 149.24 97.7719 149.28 105.404 149.304C114.654 149.332 123.902 149.29 133.151 149.276C136.803 149.27 140.455 149.265 144.107 149.288C145.715 149.298 145.716 146.787 144.107 146.777C136.644 146.731 129.181 146.77 121.719 146.794C112.378 146.824 103.037 146.779 93.6947 146.765C89.9632 146.759 86.2312 146.754 82.4996 146.777C80.8923 146.787 80.8892 149.298 82.4996 149.288H82.5017Z" fill="#211715"/>
<path d="M108.977 122.049C108.975 123.031 108.975 124.014 108.977 124.997C108.977 126.105 108.827 127.322 109.684 128.178C110.517 129.007 111.655 128.871 112.725 128.87C113.688 128.87 114.651 128.87 115.614 128.87C116.171 128.913 116.73 128.807 117.234 128.563C117.515 128.404 117.76 128.189 117.955 127.932C118.151 127.674 118.292 127.38 118.37 127.066C118.453 126.531 118.479 125.988 118.448 125.448C118.448 124.93 118.448 124.413 118.448 123.895C118.448 123.422 118.448 122.95 118.448 122.477C118.494 121.892 118.37 121.307 118.09 120.792C117.909 120.501 117.666 120.252 117.38 120.064C117.093 119.876 116.769 119.753 116.431 119.704C115.98 119.661 115.526 119.648 115.074 119.665H111.85C111.23 119.606 110.607 119.74 110.065 120.048C109.737 120.269 109.467 120.566 109.278 120.914C109.088 121.262 108.985 121.651 108.977 122.047C108.98 122.38 109.112 122.697 109.346 122.932C109.58 123.167 109.896 123.3 110.227 123.303C110.556 123.296 110.87 123.161 111.102 122.927C111.335 122.693 111.469 122.378 111.476 122.047C111.49 121.728 111.402 122.301 111.495 122.007L111.443 122.138C111.517 122.022 111.505 122.033 111.407 122.17C111.489 122.118 111.546 122.104 111.362 122.19C111.622 122.07 111.108 122.194 111.398 122.167C111.045 122.2 111.527 122.176 111.614 122.176H115.715C115.866 122.154 116.019 122.156 116.169 122.18L116.024 122.167C116.157 122.21 116.143 122.202 115.982 122.143C116.238 122.247 115.804 122.038 116.015 122.17L115.931 122.059C115.999 122.18 115.997 122.164 115.928 122.007C116.018 122.292 115.954 121.738 115.948 122.048C115.944 122.207 115.948 122.367 115.948 122.527C115.948 122.926 115.948 123.325 115.948 123.724C115.948 124.548 115.946 125.373 115.942 126.197C115.955 126.296 115.955 126.396 115.942 126.494L115.969 126.353C115.958 126.415 115.942 126.475 115.921 126.534C115.974 126.482 115.957 126.292 115.921 126.482L116.004 126.371C115.904 126.465 115.919 126.458 116.048 126.35C115.762 126.426 116.247 126.318 116.055 126.359C115.872 126.398 116.368 126.371 116.059 126.362C115.878 126.358 115.695 126.362 115.515 126.362C114.729 126.36 113.942 126.36 113.156 126.362H112.001H111.532C111.442 126.376 111.351 126.375 111.262 126.359C111.42 126.384 111.454 126.384 111.363 126.359C111.272 126.334 111.3 126.347 111.448 126.398C111.167 126.279 111.663 126.54 111.414 126.372C111.511 126.51 111.523 126.521 111.449 126.405L111.501 126.536L111.473 126.447C111.443 126.307 111.445 126.324 111.479 126.496C111.442 126.462 111.479 126.154 111.479 126.097C111.477 125.654 111.476 125.211 111.475 124.768C111.475 123.861 111.475 122.954 111.475 122.048C111.475 121.715 111.344 121.396 111.109 121.16C110.875 120.925 110.557 120.793 110.226 120.793C109.895 120.793 109.577 120.925 109.343 121.16C109.108 121.396 108.977 121.715 108.977 122.048V122.049Z" fill="#211715"/>
<path d="M73.2383 89.5933C76.8007 84.2116 83.0697 81.4009 88.8291 79.0578C90.8419 78.2378 92.8714 77.458 94.8967 76.6687C95.2109 76.5722 95.4764 76.3584 95.6386 76.0712C95.8009 75.7841 95.8475 75.4455 95.769 75.1248C95.679 74.8051 95.4672 74.5339 95.1797 74.3699C94.8921 74.2059 94.5519 74.1622 94.2325 74.2483C87.5179 76.8633 80.2417 79.2691 74.7384 84.1216C73.3411 85.3565 72.112 86.7713 71.0829 88.3292C70.1902 89.678 72.3529 90.9364 73.2404 89.5959L73.2383 89.5933Z" fill="#211715"/>
<path d="M156.422 88.3265C152.518 82.4285 145.956 79.3459 139.636 76.7549C137.527 75.8904 135.397 75.0735 133.273 74.2445C132.954 74.1585 132.613 74.2023 132.326 74.3663C132.038 74.5303 131.826 74.8014 131.736 75.1211C131.656 75.4418 131.701 75.7814 131.864 76.0691C132.027 76.3567 132.293 76.5702 132.609 76.665C136.044 78.0034 139.503 79.2973 142.843 80.8632C145.757 82.1342 148.48 83.8076 150.933 85.8349C152.206 86.9319 153.327 88.1956 154.265 89.5922C155.15 90.9311 157.316 89.6758 156.422 88.3254V88.3265Z" fill="#211715"/>
<path d="M154.294 89.8113C155.278 91.3806 156.041 93.079 156.561 94.8583C157.183 96.8991 157.807 98.9388 158.432 100.977C159.694 105.123 160.927 109.279 162.019 113.474C163.1 117.627 164.041 121.819 164.734 126.056C165.11 127.855 165.163 129.707 164.89 131.525C164.493 133.27 163.698 134.897 162.568 136.281C161.438 137.664 160.004 138.765 158.379 139.496C156.431 140.225 154.368 140.597 152.289 140.595C150.682 140.605 150.678 143.116 152.289 143.105C156.12 143.08 160.245 142.135 163.093 139.411C164.527 138.084 165.689 136.487 166.511 134.711C167.299 132.841 167.661 130.817 167.568 128.788C167.402 126.564 167.069 124.356 166.573 122.182C166.14 119.933 165.644 117.695 165.101 115.47C164.025 111.059 162.767 106.695 161.457 102.349C160.71 99.8671 159.948 97.3902 159.19 94.9116C158.571 92.6729 157.65 90.5302 156.451 88.5435C155.589 87.1837 153.426 88.4431 154.293 89.8108L154.294 89.8113Z" fill="#211715"/>
<path d="M70.9729 88.544C68.781 91.9959 67.8743 96.0753 66.6927 99.9519C65.43 104.098 64.1911 108.253 63.0913 112.445C61.9915 116.638 61.0306 120.866 60.3227 125.143C59.918 127.074 59.7916 129.053 59.9474 131.021C60.132 132.925 60.7697 134.756 61.8067 136.361C64.3005 140.026 68.8653 141.733 72.8274 143.257C73.1469 143.343 73.4871 143.3 73.7747 143.136C74.0623 142.972 74.2742 142.7 74.3645 142.381C74.4451 142.06 74.3993 141.72 74.2366 141.433C74.074 141.145 73.8071 140.932 73.4916 140.837C71.7676 140.19 70.0804 139.448 68.4375 138.615C66.856 137.879 65.4413 136.825 64.2807 135.518C62.0305 132.764 62.1846 129.113 62.7316 125.81C64.0673 117.746 66.3002 109.869 68.6654 102.057C69.3421 99.8164 70.0339 97.579 70.7173 95.3389C71.2635 93.3932 72.0756 91.5329 73.1304 89.8113C73.9975 88.4447 71.8353 87.1842 70.9729 88.544Z" fill="#211715"/>
<path d="M189.273 129.386H256.604V153.725H184.635C184.635 146.435 184.635 136.675 184.635 129.386H189.275" fill="white"/>
<path d="M180.266 104.225C180.27 104.608 180.27 116.021 180.27 120.835H252.24C252.24 120.201 252.24 119.848 252.24 119.848V104.225H180.266Z" fill="white"/>
<path d="M189.899 90.1895H182.015V85.2021H180.543V79.7205H252.512V85.2021H253.985C253.985 85.2021 253.985 87.5943 253.985 90.1895H189.899Z" fill="white"/>
<path d="M189.273 129.386V120.835H260.752V129.386H189.273Z" fill="#096FCA"/>
<path d="M190.522 129.386V120.835L189.273 122.09H257.597C258.581 122.09 259.584 122.146 260.567 122.09C260.628 122.087 260.69 122.09 260.751 122.09L259.502 120.835V129.386L260.751 128.131H196.38C194.05 128.131 191.702 128.044 189.373 128.131C189.339 128.131 189.306 128.131 189.273 128.131C187.665 128.131 187.662 130.642 189.273 130.642H260.751C261.081 130.637 261.396 130.503 261.629 130.269C261.862 130.034 261.995 129.718 262 129.386V120.835C261.995 120.504 261.862 120.187 261.629 119.953C261.396 119.718 261.081 119.585 260.751 119.58H198.39C195.417 119.58 192.436 119.511 189.464 119.58C189.4 119.58 189.336 119.58 189.273 119.58C188.943 119.585 188.628 119.718 188.394 119.953C188.161 120.187 188.028 120.504 188.023 120.835V129.386C188.023 131.002 190.522 131.005 190.522 129.386Z" fill="#211715"/>
<path d="M250.99 104.883V119.848C250.99 121.464 253.489 121.466 253.489 119.848V104.883C253.489 103.268 250.99 103.265 250.99 104.883Z" fill="#211715"/>
<path d="M186.217 111.072H246.401C248.009 111.072 248.011 108.561 246.401 108.561H186.217C184.609 108.561 184.606 111.072 186.217 111.072Z" fill="#211715"/>
<path d="M186.217 116.499H246.401C248.009 116.499 248.011 113.989 246.401 113.989H186.217C184.609 113.989 184.606 116.499 186.217 116.499Z" fill="#211715"/>
<path d="M189.272 119.58C186.27 119.58 183.269 119.58 180.267 119.58L181.516 120.835C181.516 115.86 181.516 110.884 181.516 105.91C181.516 105.348 181.519 104.787 181.516 104.225L180.267 105.481H189.272C190.879 105.481 190.882 102.97 189.272 102.97H180.267C179.937 102.975 179.622 103.108 179.388 103.343C179.155 103.577 179.022 103.894 179.018 104.225C179.055 108.436 179.022 112.646 179.022 116.859V120.834C179.026 121.165 179.16 121.482 179.393 121.716C179.626 121.951 179.941 122.085 180.271 122.089C183.272 122.089 186.273 122.089 189.276 122.089C190.883 122.089 190.886 119.579 189.276 119.579L189.272 119.58Z" fill="#211715"/>
<path d="M255.354 130.208V153.725L256.603 152.47H187.57C186.642 152.47 185.681 152.397 184.755 152.47C184.715 152.473 184.673 152.47 184.632 152.47L185.881 153.725C185.881 145.612 185.881 137.499 185.881 129.386L184.632 130.641H189.272C190.879 130.641 190.882 128.131 189.272 128.131H184.632C184.302 128.135 183.987 128.269 183.754 128.503C183.521 128.738 183.388 129.054 183.383 129.386C183.383 137.499 183.383 145.612 183.383 153.725C183.388 154.056 183.521 154.373 183.754 154.607C183.987 154.842 184.302 154.976 184.632 154.98H247.741C250.649 154.98 253.574 155.076 256.481 154.98C256.522 154.98 256.564 154.98 256.605 154.98C256.935 154.976 257.25 154.842 257.483 154.607C257.716 154.373 257.849 154.056 257.854 153.725V130.208C257.854 128.593 255.356 128.59 255.356 130.208H255.354Z" fill="#211715"/>
<path d="M190.035 142.812H251.093C252.701 142.812 252.703 140.302 251.093 140.302H190.035C188.427 140.302 188.425 142.812 190.035 142.812Z" fill="#211715"/>
<path d="M190.035 136.891H251.093C252.701 136.891 252.703 134.38 251.093 134.38H190.035C188.427 134.38 188.425 136.891 190.035 136.891Z" fill="#211715"/>
<path d="M190.035 148.676H248.093C249.7 148.676 249.703 146.166 248.093 146.166H190.035C188.427 146.166 188.425 148.676 190.035 148.676Z" fill="#211715"/>
<path d="M184.172 70.6187C212.315 70.6187 254.94 70.6187 254.94 70.6187V79.719H184.172V70.6187Z" fill="#096FCA"/>
<path d="M255.236 89.533V85.202C255.231 84.8706 255.098 84.554 254.865 84.3197C254.632 84.0853 254.317 83.9515 253.987 83.9468H248.476C248.144 83.9468 247.827 84.079 247.592 84.3144C247.358 84.5498 247.227 84.8691 247.227 85.202C247.227 85.5349 247.358 85.8542 247.592 86.0896C247.827 86.325 248.144 86.4572 248.476 86.4572H253.987L252.738 85.202V89.533C252.738 89.8659 252.869 90.1852 253.104 90.4206C253.338 90.656 253.656 90.7882 253.987 90.7882C254.318 90.7882 254.636 90.656 254.87 90.4206C255.105 90.1852 255.236 89.8659 255.236 89.533Z" fill="#211715"/>
<path d="M251.264 79.7206V85.2022C251.264 85.5351 251.395 85.8544 251.63 86.0898C251.864 86.3252 252.182 86.4574 252.513 86.4574C252.844 86.4574 253.162 86.3252 253.396 86.0898C253.631 85.8544 253.762 85.5351 253.762 85.2022V79.7206C253.762 79.3876 253.631 79.0684 253.396 78.833C253.162 78.5976 252.844 78.4653 252.513 78.4653C252.182 78.4653 251.864 78.5976 251.63 78.833C251.395 79.0684 251.264 79.3876 251.264 79.7206Z" fill="#211715"/>
<path d="M180.766 85.202V90.1894C180.77 90.5208 180.903 90.8374 181.137 91.0717C181.37 91.3061 181.685 91.4399 182.015 91.4446H189.898C190.23 91.4446 190.548 91.3124 190.782 91.077C191.016 90.8416 191.148 90.5223 191.148 90.1894C191.148 89.8565 191.016 89.5372 190.782 89.3018C190.548 89.0664 190.23 88.9342 189.898 88.9342H182.015L183.264 90.1894V85.202C183.264 84.8691 183.132 84.5498 182.898 84.3144C182.664 84.079 182.346 83.9468 182.015 83.9468C181.684 83.9468 181.366 84.079 181.132 84.3144C180.897 84.5498 180.766 84.8691 180.766 85.202Z" fill="#211715"/>
<path d="M187.8 78.4653H180.544C180.214 78.4701 179.899 78.6038 179.666 78.8382C179.433 79.0726 179.3 79.3891 179.295 79.7206V85.2022C179.3 85.5336 179.433 85.8501 179.666 86.0845C179.899 86.3189 180.214 86.4527 180.544 86.4574H241.955C243.563 86.4574 243.565 83.947 241.955 83.947H180.544L181.793 85.2022V79.7206L180.544 80.9758H187.8C189.407 80.9758 189.41 78.4653 187.8 78.4653Z" fill="#211715"/>
<path d="M184.171 71.8737H254.939L253.69 70.6185V79.7188L254.939 78.4636H184.171L185.42 79.7188V70.6185C185.42 69.0029 182.922 69.0003 182.922 70.6185V79.7188C182.927 80.0503 183.06 80.3668 183.293 80.6012C183.526 80.8355 183.841 80.9693 184.171 80.974H254.939C255.269 80.9694 255.584 80.8357 255.817 80.6013C256.05 80.3669 256.184 80.0503 256.188 79.7188V70.6185C256.183 70.2871 256.05 69.9705 255.817 69.7362C255.584 69.5018 255.269 69.368 254.939 69.3633C249.579 69.3633 244.219 69.3633 238.859 69.3633H184.171C182.563 69.3633 182.561 71.8737 184.171 71.8737Z" fill="#211715"/>
<path d="M189.898 90.1895H260.666V104.225H189.898V90.1895Z" fill="#7ABEE6"/>
<path d="M189.9 91.4448H255.11C256.963 91.4448 258.815 91.4448 260.667 91.4448L259.418 90.1895V104.225L260.667 102.97H189.9L191.149 104.225V90.1895C191.149 88.574 188.65 88.5714 188.65 90.1895V104.225C188.655 104.557 188.788 104.873 189.021 105.108C189.255 105.342 189.57 105.476 189.9 105.481H260.667C260.997 105.476 261.312 105.342 261.546 105.108C261.779 104.873 261.912 104.557 261.917 104.225V90.1895C261.912 89.8581 261.779 89.5416 261.546 89.3072C261.312 89.0728 260.997 88.9391 260.667 88.9343C255.308 88.9343 249.948 88.9343 244.587 88.9343H189.9C188.292 88.9343 188.29 91.4448 189.9 91.4448Z" fill="#211715"/>
<path d="M201.166 90.1895V104.225C201.166 105.84 203.664 105.843 203.664 104.225V103.688C203.664 102.073 201.166 102.07 201.166 103.688V104.225C201.166 105.84 203.664 105.843 203.664 104.225V90.1895C203.664 88.5739 201.166 88.5713 201.166 90.1895Z" fill="#211715"/>
<path d="M195.801 90.3093V104.106C195.801 105.721 198.299 105.723 198.299 104.106V90.3093C198.299 88.6938 195.801 88.6912 195.801 90.3093Z" fill="#211715"/>
<path d="M255.185 94.2061V100.209H232.06V100.115C232.06 100.115 232.06 95.1988 232.055 94.2051L255.185 94.2061Z" fill="white"/>
<path d="M253.935 94.2061V100.209L255.184 98.9535H232.06L233.309 100.209C233.309 98.2077 233.314 96.2066 233.303 94.2061L232.054 95.4614H255.184C256.791 95.4614 256.794 92.9509 255.184 92.9509H232.054C231.724 92.9554 231.409 93.0891 231.175 93.3235C230.942 93.5579 230.809 93.8746 230.805 94.2061C230.816 96.2066 230.81 98.2077 230.81 100.209C230.815 100.54 230.948 100.857 231.182 101.091C231.415 101.325 231.73 101.459 232.06 101.464H255.184C255.514 101.459 255.829 101.325 256.062 101.091C256.295 100.857 256.428 100.54 256.433 100.209V94.2061C256.433 92.5906 253.935 92.588 253.935 94.2061Z" fill="#211715"/>
</g>
<defs>
<clipPath id="clip0_781_534">
<rect width="212" height="151" fill="white" transform="translate(50 5)"/>
</clipPath>
</defs>
</svg>
