<svg width="1068" height="797" viewBox="0 0 1068 797" fill="none" xmlns="http://www.w3.org/2000/svg">
<g opacity="0.8">
<g filter="url(#filter0_f_2314_1780)">
<path d="M447.126 251.234C425.88 326.521 372.966 389.402 302.417 423.203C292.629 427.893 282.21 431.076 271.657 433.614L223.13 445.283C216.749 446.817 214.828 454.957 219.849 459.182L346.999 566.176C352.019 570.401 359.712 567.117 360.133 560.569L363.337 510.761C364.034 499.929 365.39 489.12 368.338 478.674C389.585 403.387 442.499 340.505 513.047 306.705C522.836 302.015 533.254 298.831 543.808 296.293L592.336 284.624C598.716 283.09 600.637 274.95 595.616 270.725L468.466 163.73C463.445 159.505 455.753 162.789 455.332 169.338L452.128 219.146C451.431 229.978 450.074 240.787 447.126 251.234Z" fill="#9EA8AE"/>
</g>
<g filter="url(#filter1_f_2314_1780)">
<path d="M696.901 251.234C718.148 326.521 771.062 389.402 841.61 423.203C851.399 427.893 861.818 431.076 872.371 433.614L920.898 445.283C927.279 446.817 929.2 454.957 924.179 459.182L797.029 566.176C792.008 570.401 784.316 567.117 783.895 560.569L780.691 510.761C779.994 499.929 778.638 489.12 775.69 478.674C754.443 403.387 701.529 340.505 630.981 306.705C621.192 302.015 610.774 298.831 600.22 296.293L551.692 284.624C545.312 283.09 543.391 274.95 548.412 270.725L675.562 163.73C680.583 159.505 688.275 162.789 688.696 169.338L691.9 219.146C692.597 229.978 693.953 240.787 696.901 251.234Z" fill="#A9B4BA"/>
</g>
<g filter="url(#filter2_f_2314_1780)">
<circle cx="573.686" cy="169.196" r="116.811" transform="rotate(45 573.686 169.196)" fill="url(#paint0_radial_2314_1780)"/>
</g>
<g filter="url(#filter3_f_2314_1780)">
<circle cx="901.99" cy="555.088" r="117.165" transform="rotate(45 901.99 555.088)" fill="url(#paint1_radial_2314_1780)"/>
</g>
<g filter="url(#filter4_f_2314_1780)">
<circle cx="241.696" cy="555.088" r="117.165" transform="rotate(45 241.696 555.088)" fill="url(#paint2_radial_2314_1780)"/>
</g>
</g>
<defs>
<filter id="filter0_f_2314_1780" x="156.995" y="101.839" width="501.475" height="526.228" filterUnits="userSpaceOnUse" color-interpolation-filters="sRGB">
<feFlood flood-opacity="0" result="BackgroundImageFix"/>
<feBlend mode="normal" in="SourceGraphic" in2="BackgroundImageFix" result="shape"/>
<feGaussianBlur stdDeviation="30" result="effect1_foregroundBlur_2314_1780"/>
</filter>
<filter id="filter1_f_2314_1780" x="517.558" y="133.839" width="437.475" height="462.228" filterUnits="userSpaceOnUse" color-interpolation-filters="sRGB">
<feFlood flood-opacity="0" result="BackgroundImageFix"/>
<feBlend mode="normal" in="SourceGraphic" in2="BackgroundImageFix" result="shape"/>
<feGaussianBlur stdDeviation="14" result="effect1_foregroundBlur_2314_1780"/>
</filter>
<filter id="filter2_f_2314_1780" x="404.875" y="0.384766" width="337.622" height="337.622" filterUnits="userSpaceOnUse" color-interpolation-filters="sRGB">
<feFlood flood-opacity="0" result="BackgroundImageFix"/>
<feBlend mode="normal" in="SourceGraphic" in2="BackgroundImageFix" result="shape"/>
<feGaussianBlur stdDeviation="26" result="effect1_foregroundBlur_2314_1780"/>
</filter>
<filter id="filter3_f_2314_1780" x="760.826" y="413.923" width="282.329" height="282.329" filterUnits="userSpaceOnUse" color-interpolation-filters="sRGB">
<feFlood flood-opacity="0" result="BackgroundImageFix"/>
<feBlend mode="normal" in="SourceGraphic" in2="BackgroundImageFix" result="shape"/>
<feGaussianBlur stdDeviation="12" result="effect1_foregroundBlur_2314_1780"/>
</filter>
<filter id="filter4_f_2314_1780" x="0.53125" y="313.923" width="482.329" height="482.329" filterUnits="userSpaceOnUse" color-interpolation-filters="sRGB">
<feFlood flood-opacity="0" result="BackgroundImageFix"/>
<feBlend mode="normal" in="SourceGraphic" in2="BackgroundImageFix" result="shape"/>
<feGaussianBlur stdDeviation="62" result="effect1_foregroundBlur_2314_1780"/>
</filter>
<radialGradient id="paint0_radial_2314_1780" cx="0" cy="0" r="1" gradientUnits="userSpaceOnUse" gradientTransform="translate(635.221 275.578) rotate(-121.15) scale(213.127)">
<stop stop-color="#95A0A7"/>
<stop offset="1" stop-color="#C5CBCF"/>
</radialGradient>
<radialGradient id="paint1_radial_2314_1780" cx="0" cy="0" r="1" gradientUnits="userSpaceOnUse" gradientTransform="translate(965.569 530.983) rotate(177.316) scale(181.218)">
<stop stop-color="#D3D7DB"/>
<stop offset="0.934531" stop-color="#ACB7BD"/>
</radialGradient>
<radialGradient id="paint2_radial_2314_1780" cx="0" cy="0" r="1" gradientUnits="userSpaceOnUse" gradientTransform="translate(238.313 465.008) rotate(109.867) scale(178.941)">
<stop stop-color="#95A0A7"/>
<stop offset="1" stop-color="#C5CBCF"/>
</radialGradient>
</defs>
</svg>
