<svg width="24" height="25" viewBox="0 0 24 25" fill="none" xmlns="http://www.w3.org/2000/svg">
<path d="M7.03 5.7304L3.5 9.2804C0.17 12.5904 0.17 17.9704 3.5 21.2804C6.83 24.5904 12.19 24.6104 15.5 21.2804L21.5 15.2804C22.5 14.3104 22.5 12.7204 21.5 11.7404C21.4 11.6204 21.27 11.5104 21.13 11.4204L21.5 11.0304C22.5 10.0604 22.5 8.4704 21.5 7.4904C21.36 7.3304 21.17 7.1904 21 7.0804C21.38 6.1604 21.21 5.0604 20.46 4.3104C19.59 3.4404 18.24 3.3504 17.26 4.0304C17.0565 3.71697 16.7858 3.45279 16.4675 3.25703C16.1492 3.06127 15.7913 2.93884 15.4198 2.89862C15.0483 2.8584 14.6725 2.90142 14.3196 3.02453C13.9668 3.14765 13.6458 3.34778 13.38 3.6104L10.87 6.1204C10.78 5.9804 10.67 5.8504 10.55 5.7304C10.0781 5.27341 9.44692 5.01789 8.79 5.01789C8.13308 5.01789 7.50192 5.27341 7.03 5.7304ZM8.44 7.1504C8.64 6.9504 8.95 6.9504 9.15 7.1504C9.35 7.3504 9.35 7.6604 9.15 7.8604L5.97 11.0404C6.5318 11.6029 6.84736 12.3654 6.84736 13.1604C6.84736 13.9554 6.5318 14.7179 5.97 15.2804L7.38 16.6904C8.06776 16.0027 8.54004 15.1294 8.73897 14.1773C8.9379 13.2253 8.85485 12.2359 8.5 11.3304L14.8 5.0304C15 4.8304 15.31 4.8304 15.5 5.0304C15.69 5.2304 15.71 5.5404 15.5 5.7404L10.91 10.3404L12.32 11.7504L18.33 5.7404C18.53 5.5404 18.84 5.5404 19.04 5.7404C19.24 5.9404 19.24 6.2504 19.04 6.4504L13.03 12.4604L14.44 13.8704L19.39 8.9204C19.59 8.7204 19.9 8.7204 20.1 8.9204C20.3 9.1204 20.3 9.4304 20.1 9.6304L14.44 15.2804L15.85 16.7004L19.39 13.1604C19.59 12.9604 19.9 12.9604 20.1 13.1604C20.3 13.3604 20.3 13.6704 20.1 13.8704L14.1 19.8804C11.56 22.4204 7.45 22.4204 4.91 19.8804C2.37 17.3404 2.37 13.2304 4.91 10.6904L8.44 7.1504ZM23 17.7804C23 21.0904 20.31 23.7804 17 23.7804V22.2804C19.5 22.2804 21.5 20.2804 21.5 17.7804H23ZM1 7.7804C1 4.4704 3.69 1.7804 7 1.7804V3.2804C4.5 3.2804 2.5 5.2804 2.5 7.7804H1Z" fill="#444444"/>
</svg>
