<svg width="32" height="33" viewBox="0 0 32 33" fill="none" xmlns="http://www.w3.org/2000/svg">
<path d="M24.0001 17.8337H17.3334V24.5003C17.3334 25.2337 16.7334 25.8337 16.0001 25.8337C15.2667 25.8337 14.6667 25.2337 14.6667 24.5003V17.8337H8.00008C7.26675 17.8337 6.66675 17.2337 6.66675 16.5003C6.66675 15.767 7.26675 15.167 8.00008 15.167H14.6667V8.50033C14.6667 7.76699 15.2667 7.16699 16.0001 7.16699C16.7334 7.16699 17.3334 7.76699 17.3334 8.50033V15.167H24.0001C24.7334 15.167 25.3334 15.767 25.3334 16.5003C25.3334 17.2337 24.7334 17.8337 24.0001 17.8337Z" fill="#444444"/>
</svg>
