<svg width="22" height="22" viewBox="0 0 22 22" fill="none" xmlns="http://www.w3.org/2000/svg">
<g clip-path="url(#clip0_5649_2892)">
<g clip-path="url(#clip1_5649_2892)">
<path fill-rule="evenodd" clip-rule="evenodd" d="M-3.72729 -0.0454102H38.2454V1.65455H-3.72729V-0.0454102ZM-3.72729 3.35452H38.2454V5.05448H-3.72729V3.35452ZM-3.72729 6.75013H38.2454V8.45441H-3.72729V6.75013ZM-3.72729 10.1501H38.2454V11.85H-3.72729V10.1501ZM-3.72729 13.55H38.2454V15.25H-3.72729V13.55ZM-3.72729 16.9456H38.2454V18.6456H-3.72729V16.9456ZM-3.72729 20.3455H38.2454V22.0455H-3.72729V20.3455Z" fill="#BD3D44"/>
<path fill-rule="evenodd" clip-rule="evenodd" d="M-3.72729 1.65454H38.2454V3.3545H-3.72729V1.65454ZM-3.72729 5.05447H38.2454V6.75012H-3.72729V5.05447ZM-3.72729 8.45008H38.2454V10.15H-3.72729V8.45008ZM-3.72729 11.85H38.2454V13.55H-3.72729V11.85ZM-3.72729 15.2499H38.2454V16.9499H-3.72729V15.2499ZM-3.72729 18.6456H38.2454V20.3455H-3.72729V18.6456Z" fill="white"/>
<path fill-rule="evenodd" clip-rule="evenodd" d="M-3.72729 -0.0454102H13.0609V11.85H-3.72729V-0.0454102Z" fill="#192F5D"/>
<path fill-rule="evenodd" clip-rule="evenodd" d="M-2.32937 0.463745L-2.17404 0.93404H-1.68217L-2.07912 1.22312L-1.92811 1.69773L-2.32937 1.40433L-2.72631 1.69341L-2.5753 1.22312L-2.97656 0.93404H-2.47607L-2.32937 0.463745ZM0.470827 0.463745L0.621839 0.93404H1.11802L0.71676 1.22312L0.867773 1.69773L0.470827 1.40433L0.0695658 1.69341L0.220578 1.22312L-0.176368 0.93404H0.3155L0.470827 0.463745ZM3.26671 0.463745L3.42203 0.93404H3.90959L3.51264 1.22312L3.66365 1.69773L3.26239 1.40433L2.86545 1.69341L3.01646 1.22312L2.6152 0.93404H3.11138L3.26671 0.463745ZM6.0669 0.463745L6.21791 0.93404H6.7141L6.31284 1.22312L6.46816 1.69773L6.0669 1.40433L5.66564 1.69341L5.82097 1.22312L5.41971 0.93404H5.91157L6.0669 0.463745ZM8.86278 0.463745L9.01811 0.93404H9.50997L9.11303 1.22312L9.26404 1.69773L8.86278 1.40433L8.46584 1.69341L8.61685 1.22312L8.2199 0.93404H8.71177L8.86278 0.463745ZM11.663 0.463745L11.814 0.93404H12.3102L11.9089 1.22312L12.0642 1.69773L11.663 1.40433L11.2617 1.69341L11.417 1.22312L11.0158 0.93404H11.512L11.663 0.463745ZM-0.927113 1.65458L-0.776101 2.12488H-0.279919L-0.68118 2.41396L-0.534482 2.88425L-0.922799 2.59517L-1.32406 2.88425L-1.18168 2.41396L-1.56999 2.12488H-1.07813L-0.927113 1.65458ZM1.86877 1.65458L2.02409 2.12488H2.51596L2.1147 2.41396L2.27003 2.88425L1.86877 2.59517L1.46751 2.88425L1.62283 2.41396L1.22157 2.12488H1.71775L1.86877 1.65458ZM4.66896 1.65458L4.81997 2.12488H5.31616L4.9149 2.41396L5.06591 2.88425L4.66896 2.59517L4.2677 2.88425L4.41871 2.41396L4.02177 2.12488H4.51363L4.66896 1.65458ZM7.46484 1.65458L7.62017 2.12488H8.11204L7.71078 2.41396L7.8661 2.88425L7.46484 2.59517L7.0679 2.88425L7.21891 2.41396L6.81765 2.12488H7.31814L7.46484 1.65458ZM10.265 1.65458L10.416 2.12488H10.9122L10.511 2.41396L10.662 2.88425L10.265 2.59517L9.86378 2.88425L10.0148 2.41396L9.61784 2.12488H10.1097L10.265 1.65458ZM-2.32937 2.84111L-2.17404 3.32003H-1.68217L-2.07912 3.60911L-1.92811 4.0794L-2.32937 3.78601L-2.72631 4.0794L-2.5753 3.60479L-2.97656 3.31572H-2.47607L-2.32937 2.84111ZM0.470827 2.84111L0.621839 3.31572H1.11802L0.71676 3.60479L0.867773 4.07509L0.470827 3.78169L0.0695658 4.07509L0.220578 3.60048L-0.176368 3.3114H0.3155L0.470827 2.84111ZM3.26671 2.84111L3.42203 3.31572H3.90959L3.51264 3.60479L3.66365 4.07509L3.26239 3.78169L2.86545 4.07509L3.01646 3.60048L2.6152 3.3114H3.11138L3.26671 2.84111ZM6.0669 2.84111L6.21791 3.31572H6.7141L6.31284 3.60479L6.46816 4.07509L6.0669 3.78169L5.66564 4.07509L5.82097 3.60048L5.41971 3.3114H5.91157L6.0669 2.84111ZM8.86278 2.84111L9.01811 3.31572H9.50997L9.11303 3.60479L9.26404 4.07509L8.86278 3.78169L8.46584 4.07509L8.61685 3.60048L8.2199 3.3114H8.71177L8.86278 2.84111ZM11.663 2.84111L11.814 3.31572H12.3102L11.9089 3.60479L12.0642 4.07509L11.663 3.78169L11.2617 4.07509L11.417 3.60048L11.0158 3.3114H11.512L11.663 2.84111ZM-0.927113 4.03194L-0.776101 4.50224H-0.279919L-0.68118 4.79132L-0.530168 5.26593L-0.927113 4.97253L-1.32837 5.26161L-1.17736 4.79132L-1.57431 4.50224H-1.08244L-0.927113 4.03194ZM1.86877 4.03194L2.02409 4.50224H2.51596L2.1147 4.79132L2.27003 5.26593L1.86877 4.97253L1.46751 5.26161L1.62283 4.79132L1.22157 4.50224H1.71775L1.86877 4.03194ZM4.66896 4.03194L4.81997 4.50224H5.31616L4.9149 4.79132L5.06591 5.26593L4.66896 4.97253L4.2677 5.26161L4.41871 4.79132L4.02177 4.50224H4.51363L4.66896 4.03194ZM7.46484 4.03194L7.62017 4.50224H8.11204L7.71509 4.79132L7.8661 5.26593L7.46484 4.97253L7.0679 5.26161L7.21891 4.79132L6.81765 4.50224H7.31814L7.46484 4.03194ZM10.265 4.03194L10.416 4.50224H10.9122L10.511 4.79132L10.662 5.26593L10.265 4.97253L9.86378 5.26161L10.0148 4.79132L9.61784 4.50224H10.1097L10.265 4.03194ZM-2.32937 5.22278L-2.17404 5.69308H-1.68217L-2.07912 5.98216L-1.92811 6.45677L-2.32937 6.16337L-2.72631 6.45245L-2.5753 5.98216L-2.97656 5.69308H-2.47607L-2.32937 5.22278ZM0.470827 5.22278L0.621839 5.69308H1.11802L0.71676 5.98216L0.867773 6.45245L0.470827 6.16337L0.0695658 6.45245L0.220578 5.98216L-0.176368 5.69308H0.3155L0.470827 5.22278ZM3.26671 5.22278L3.42203 5.69308H3.90959L3.51264 5.98216L3.66365 6.45677L3.26239 6.16337L2.86545 6.45245L3.01646 5.98216L2.6152 5.69308H3.11138L3.26671 5.22278ZM6.0669 5.22278L6.21791 5.69308H6.7141L6.31284 5.98216L6.46816 6.45677L6.0669 6.16337L5.66564 6.45245L5.82097 5.98216L5.41971 5.69308H5.91157L6.0669 5.22278ZM8.86278 5.22278L9.01811 5.69308H9.50997L9.11303 5.98216L9.26404 6.45677L8.86278 6.16337L8.46584 6.45245L8.61685 5.98216L8.2199 5.69308H8.71177L8.86278 5.22278ZM11.663 5.22278L11.814 5.69308H12.3102L11.9089 5.98216L12.0642 6.45677L11.663 6.16337L11.2617 6.45245L11.417 5.98216L11.0158 5.69308H11.512L11.663 5.22278ZM-0.927113 6.41362L-0.776101 6.88391H-0.279919L-0.68118 7.17299L-0.530168 7.64329L-0.927113 7.34989L-1.32837 7.64329L-1.17736 7.16868L-1.57431 6.8796H-1.08244L-0.927113 6.41362ZM1.86877 6.41362L2.02409 6.88391H2.51596L2.1147 7.17299L2.27003 7.64329L1.86877 7.34989L1.46751 7.64329L1.62283 7.16868L1.22157 6.8796H1.71775L1.86877 6.41362ZM4.66896 6.41362L4.81997 6.88391H5.31616L4.9149 7.17299L5.06591 7.64329L4.66896 7.34989L4.2677 7.64329L4.41871 7.16868L4.02177 6.8796H4.51363L4.66896 6.41362ZM7.46484 6.41362L7.62017 6.88391H8.11204L7.71509 7.17299L7.8661 7.64329L7.46484 7.34989L7.0679 7.64329L7.21891 7.16868L6.81765 6.8796H7.31814L7.46484 6.41362ZM10.265 6.41362L10.416 6.88391H10.9122L10.511 7.17299L10.662 7.64329L10.265 7.34989L9.86378 7.64329L10.0148 7.16868L9.61784 6.8796H10.1097L10.265 6.41362ZM-2.32937 7.60014L-2.17404 8.07475H-1.68217L-2.07912 8.36383L-1.92811 8.82981L-2.32937 8.54073L-2.72631 8.82981L-2.5753 8.35952L-2.97656 8.07044H-2.47607L-2.32937 7.60014ZM0.470827 7.60014L0.621839 8.07475H1.11802L0.71676 8.36383L0.872087 8.82981L0.470827 8.54073L0.0695658 8.82981L0.224892 8.35952L-0.176368 8.07044H0.3155L0.470827 7.60014ZM3.26671 7.60014L3.42203 8.07475H3.90959L3.51264 8.36383L3.66365 8.82981L3.26239 8.54073L2.86545 8.82981L3.01646 8.35952L2.6152 8.07044H3.11138L3.26671 7.60014ZM6.0669 7.60014L6.21791 8.07475H6.7141L6.31284 8.36383L6.46816 8.82981L6.0669 8.54073L5.66564 8.82981L5.82097 8.35952L5.41971 8.07044H5.91157L6.0669 7.60014ZM8.86278 7.60014L9.01811 8.07475H9.50997L9.11303 8.36383L9.26404 8.82981L8.86278 8.54073L8.46584 8.82981L8.61685 8.35952L8.2199 8.07044H8.71177L8.86278 7.60014ZM11.663 7.60014L11.814 8.07475H12.3102L11.9089 8.36383L12.0642 8.82981L11.663 8.54073L11.2617 8.82981L11.417 8.35952L11.0158 8.07044H11.512L11.663 7.60014ZM-0.927113 8.79098L-0.776101 9.26127H-0.279919L-0.68118 9.55035L-0.530168 10.025L-0.927113 9.73157L-1.32837 10.0206L-1.17736 9.55035L-1.57431 9.26127H-1.08244L-0.927113 8.79098ZM1.86877 8.79098L2.02409 9.26127H2.51596L2.1147 9.55035L2.27003 10.025L1.86877 9.73157L1.46751 10.0206L1.62283 9.55035L1.22157 9.26127H1.71775L1.86877 8.79098ZM4.66896 8.79098L4.81997 9.26127H5.31616L4.9149 9.55035L5.06591 10.025L4.66896 9.73157L4.2677 10.0206L4.41871 9.55035L4.02177 9.26127H4.51363L4.66896 8.79098ZM7.46484 8.79098L7.62017 9.26127H8.11204L7.71509 9.55035L7.8661 10.025L7.46484 9.73157L7.0679 10.0206L7.21891 9.55035L6.81765 9.26127H7.31814L7.46484 8.79098ZM10.265 8.79098L10.416 9.26127H10.9122L10.511 9.55035L10.662 10.025L10.265 9.73157L9.86378 10.0206L10.0148 9.55035L9.61784 9.26127H10.1097L10.265 8.79098ZM-2.32937 9.98182L-2.17404 10.4521H-1.68217L-2.07912 10.7412L-1.92811 11.2115L-2.32937 10.9224L-2.72631 11.2115L-2.5753 10.7369L-2.97656 10.4478H-2.47607L-2.32937 9.98182ZM0.470827 9.98182L0.621839 10.4521H1.11802L0.71676 10.7412L0.872087 11.2115L0.470827 10.9224L0.0695658 11.2115L0.224892 10.7369L-0.176368 10.4478H0.3155L0.470827 9.98182ZM3.26671 9.98182L3.42203 10.4521H3.90959L3.52127 10.7412L3.67228 11.2115L3.27102 10.9224L2.87408 11.2115L3.02509 10.7369L2.62383 10.4478H3.12001L3.26671 9.98182ZM6.0669 9.98182L6.21791 10.4521H6.7141L6.31284 10.7412L6.46816 11.2115L6.0669 10.9224L5.66564 11.2115L5.82097 10.7369L5.41971 10.4478H5.91157L6.0669 9.98182ZM8.86278 9.98182L9.01811 10.4521H9.50997L9.11303 10.7412L9.26404 11.2115L8.86278 10.9224L8.46584 11.2115L8.61685 10.7369L8.2199 10.4478H8.71177L8.86278 9.98182ZM11.663 9.98182L11.814 10.4521H12.3102L11.9089 10.7412L12.0642 11.2115L11.663 10.9224L11.2617 11.2115L11.417 10.7369L11.0158 10.4478H11.512L11.663 9.98182Z" fill="white"/>
</g>
</g>
<defs>
<clipPath id="clip0_5649_2892">
<rect width="22" height="22" rx="11" fill="white"/>
</clipPath>
<clipPath id="clip1_5649_2892">
<rect width="29.4545" height="22.0909" fill="white" transform="translate(-3.72729 -0.0454102)"/>
</clipPath>
</defs>
</svg>
